{"glyphs":{"0":{"ha":892,"x_min":34,"x_max":859,"o":"m 448 -9 q 296 22 370 -9 q 163 116 222 54 q 69 270 104 178 q 34 486 34 363 q 98 767 36 656 q 251 923 158 871 q 445 975 344 975 q 596 945 522 975 q 729 854 670 915 q 824 704 789 794 q 859 494 859 614 q 792 203 857 318 q 641 44 733 97 q 448 -9 548 -9 m 446 440 q 496 486 474 440 q 520 621 518 532 q 497 734 520 696 q 446 772 474 772 q 395 734 418 772 q 372 622 372 696 q 396 485 374 530 q 446 440 418 440 z "},"1":{"ha":620,"x_min":34,"x_max":586,"o":"m 427 0 q 355 7 389 0 q 299 26 321 14 q 277 58 277 39 l 277 60 q 293 404 293 233 q 288 610 293 507 q 277 672 286 672 q 267 664 273 672 q 253 642 261 656 q 202 572 235 611 q 133 533 167 533 q 81 556 104 533 q 46 615 59 580 q 34 683 34 650 q 48 741 34 717 q 95 768 63 765 q 180 801 152 772 q 225 866 208 829 q 269 930 243 902 q 346 968 294 959 q 404 972 370 972 q 485 966 443 972 q 556 943 527 959 q 586 897 586 926 l 586 74 q 563 32 586 48 q 503 8 539 16 q 427 0 466 0 z "},"2":{"ha":781,"x_min":34,"x_max":747,"o":"m 330 -5 q 184 7 252 -5 q 75 45 117 20 q 34 111 34 71 q 55 257 34 194 q 110 369 76 321 q 184 456 143 418 q 264 528 224 495 q 338 593 304 561 q 391 661 371 625 q 412 743 412 697 q 398 780 412 766 q 349 793 384 793 q 314 778 328 793 q 299 732 299 762 q 308 682 299 710 q 312 658 312 669 q 290 609 312 629 q 233 578 267 589 q 161 568 198 568 q 100 577 129 568 q 52 603 71 585 q 34 648 34 621 q 66 794 34 732 q 152 896 98 856 q 272 955 205 936 q 406 975 338 975 q 524 959 467 975 q 626 912 581 943 q 698 837 671 882 q 724 736 724 793 q 678 592 723 650 q 576 504 636 538 q 460 445 516 469 q 401 417 427 431 q 360 390 375 404 q 345 360 345 376 q 348 350 345 353 q 362 347 352 347 q 471 363 418 347 q 578 418 524 379 q 633 439 609 439 q 684 414 663 439 q 720 350 706 389 q 741 264 734 310 q 747 176 747 218 q 746 138 747 156 q 678 62 741 94 q 520 13 615 30 q 330 -5 426 -5 z "},"3":{"ha":769,"x_min":34,"x_max":735,"o":"m 389 -1 q 259 20 322 -1 q 145 85 196 42 q 65 194 95 129 q 35 348 35 260 l 35 376 q 92 435 41 414 q 193 457 142 457 q 250 447 227 457 q 273 414 273 436 l 273 404 q 296 358 273 373 q 347 343 318 343 q 391 353 369 343 q 427 381 413 362 q 441 429 441 400 q 422 479 441 461 q 372 504 402 497 q 309 511 342 511 q 214 501 255 511 l 210 500 q 190 514 197 500 q 184 545 184 527 q 198 600 184 573 q 241 631 212 627 q 292 639 255 631 q 370 659 328 647 q 444 685 412 671 q 475 712 475 699 q 393 738 472 738 q 281 725 340 738 q 192 690 222 712 q 128 663 156 663 q 76 689 97 663 q 44 752 55 714 q 34 829 34 790 q 37 867 34 848 q 96 919 43 896 q 229 956 149 942 q 393 970 309 970 q 576 946 493 970 q 685 870 659 923 q 703 792 703 833 q 666 707 703 741 q 524 610 602 651 q 509 596 509 602 q 530 581 509 588 q 684 476 633 543 q 735 325 735 408 q 684 145 733 218 q 555 35 635 72 q 389 -1 476 -1 z "},"4":{"ha":735,"x_min":34,"x_max":701,"o":"m 542 0 q 470 7 504 0 q 414 26 435 14 q 392 58 392 39 l 392 60 q 406 297 403 173 q 398 322 406 317 q 361 326 390 326 l 153 326 q 85 345 111 326 q 46 391 59 363 q 34 445 34 418 q 42 484 34 467 q 164 740 115 628 q 222 913 214 852 q 248 951 226 939 q 298 964 269 964 q 355 954 326 964 q 404 926 384 944 q 474 958 430 947 q 566 970 519 970 q 632 962 601 970 q 682 939 663 955 q 701 897 701 923 l 701 74 q 678 32 701 48 q 618 8 654 16 q 542 0 581 0 m 338 580 q 393 585 383 580 q 403 604 403 590 q 393 771 400 688 l 385 751 q 330 633 368 704 q 309 591 309 600 q 338 580 309 580 z "},"5":{"ha":768,"x_min":34,"x_max":734,"o":"m 388 -1 q 258 20 321 -1 q 145 85 195 42 q 64 194 94 128 q 34 348 34 260 l 35 376 q 91 435 40 414 q 193 457 142 457 q 249 447 226 457 q 273 413 273 436 l 273 403 q 295 358 273 373 q 345 343 317 343 q 390 353 368 343 q 426 381 412 362 q 440 429 440 400 q 421 474 440 450 q 366 515 401 498 q 282 532 330 532 q 201 515 237 531 q 166 505 181 507 l 154 505 q 94 528 116 505 q 63 590 72 551 q 54 673 54 628 q 74 827 54 753 q 117 919 95 901 q 242 963 166 949 q 401 977 319 977 q 615 952 519 977 q 722 887 711 928 q 724 849 724 869 q 714 772 724 810 q 682 709 703 734 q 630 684 661 684 q 566 711 602 684 q 473 742 538 731 q 347 753 409 753 q 268 747 300 753 q 235 725 235 740 q 233 691 235 706 l 232 672 q 235 657 232 663 q 246 652 237 652 q 262 655 252 652 q 406 678 342 678 q 532 655 477 678 q 624 593 586 631 q 687 508 663 555 q 723 414 711 462 q 734 325 734 366 q 683 144 732 217 q 554 35 633 72 q 388 -1 475 -1 z "},"6":{"ha":834,"x_min":34,"x_max":800,"o":"m 439 -1 q 293 26 365 -1 q 162 109 220 53 q 69 252 104 165 q 34 460 34 339 l 35 499 q 76 720 41 629 q 165 866 111 810 q 283 946 218 921 q 414 970 348 970 q 597 925 513 970 q 719 809 682 880 q 728 771 728 789 q 684 693 728 726 q 587 661 640 661 q 534 671 560 661 q 488 707 508 682 q 431 739 463 739 q 340 644 365 733 q 324 565 328 602 q 330 554 324 554 q 342 558 336 554 q 357 568 349 562 l 357 568 q 507 618 425 618 q 649 578 582 618 q 758 472 716 538 q 800 326 800 406 q 747 149 798 222 q 614 37 696 76 q 439 -1 532 -1 m 379 321 q 427 343 404 321 q 452 408 450 365 q 435 462 452 437 q 397 488 419 486 q 361 468 374 488 q 341 419 347 448 q 335 361 335 389 l 336 344 q 379 321 353 321 z "},"7":{"ha":707,"x_min":34,"x_max":673,"o":"m 375 0 q 282 20 328 0 q 206 80 236 39 q 176 183 176 120 q 194 270 176 228 q 242 362 213 313 q 314 504 276 421 q 380 711 351 587 q 383 730 383 722 q 360 755 383 754 q 345 753 353 755 q 194 654 244 730 q 149 623 172 623 q 95 655 121 623 q 51 736 68 688 q 34 833 34 785 q 62 928 34 892 q 179 959 79 943 q 394 975 279 975 q 529 965 466 975 q 633 935 593 956 q 673 878 673 914 q 603 492 671 863 l 526 67 q 474 17 518 34 q 375 0 431 0 z "},"8":{"ha":817,"x_min":34,"x_max":783,"o":"m 408 661 q 454 693 439 673 q 469 735 469 713 q 454 769 469 755 q 410 785 439 783 q 366 769 380 783 q 350 734 351 755 q 365 693 350 713 q 408 661 379 673 m 408 347 q 455 375 435 354 q 474 429 474 395 q 458 473 474 453 q 408 503 442 492 q 359 473 375 492 q 343 429 343 453 q 362 375 343 395 q 408 347 382 354 m 408 -1 q 253 29 322 -1 q 135 110 184 60 q 60 222 86 161 q 34 346 34 284 q 56 452 34 401 q 124 542 78 503 q 242 600 170 580 q 126 672 164 627 q 89 766 89 717 q 126 863 89 817 q 234 939 163 909 q 408 969 305 969 q 583 939 511 969 q 691 863 654 909 q 728 767 728 817 q 690 672 728 718 q 574 600 652 627 q 692 542 646 580 q 761 452 739 503 q 783 346 783 401 q 757 222 783 283 q 682 110 731 160 q 564 29 633 60 q 408 -1 495 -1 z "},"9":{"ha":831,"x_min":34,"x_max":798,"o":"m 413 -1 l 404 -1 q 266 20 328 -1 q 160 75 204 41 q 91 148 115 109 q 67 223 67 187 q 96 287 67 260 q 185 321 124 314 q 202 322 193 322 q 261 310 233 322 q 309 269 289 297 q 342 239 325 246 q 376 233 359 233 q 444 252 418 233 q 482 300 470 272 q 494 353 494 328 q 487 386 494 372 q 467 399 480 399 q 450 394 459 399 q 317 364 397 364 l 289 365 q 104 462 170 376 q 34 668 39 549 q 64 793 34 737 q 146 888 95 848 q 263 949 198 928 q 397 970 328 970 q 588 923 497 970 q 737 773 680 876 q 798 506 795 670 q 756 267 798 382 q 629 78 714 152 q 413 -1 544 3 m 389 650 q 422 664 404 650 q 462 731 441 678 q 378 831 428 825 q 339 805 352 831 q 326 745 326 779 q 340 680 326 710 q 385 650 355 650 l 389 650 z "},"\u0000":{"ha":0,"x_min":0,"x_max":0,"o":""},"\r":{"ha":347,"x_min":0,"x_max":0,"o":""}," ":{"ha":345,"x_min":0,"x_max":0,"o":""}," ":{"ha":345,"x_min":0,"x_max":0,"o":""},"!":{"ha":421,"x_min":44,"x_max":369,"o":"m 206 -1 q 92 30 139 -1 q 44 103 44 60 q 92 177 44 146 q 206 208 139 208 q 321 177 274 208 q 369 103 369 146 q 321 30 369 60 q 206 -1 274 -1 m 197 233 q 127 242 161 233 q 73 271 94 252 q 52 320 52 290 l 52 326 q 64 618 64 472 q 50 895 64 753 l 50 899 q 73 938 50 923 q 131 960 96 953 q 206 968 167 968 q 281 961 245 968 q 340 941 317 954 q 363 909 363 928 l 363 906 q 345 588 345 743 q 354 317 345 456 l 354 314 q 331 270 354 288 q 272 243 308 252 q 197 233 236 233 z "},"\"":{"ha":351,"x_min":34,"x_max":317,"o":"m 250 663 q 220 673 235 663 q 197 710 205 684 q 178 910 178 793 q 199 955 178 940 q 248 969 221 969 q 296 955 274 969 q 317 910 317 940 q 304 847 315 875 q 295 812 299 830 q 290 770 290 793 q 298 710 290 745 l 298 703 q 284 674 298 686 q 250 663 269 663 m 106 663 q 76 673 91 663 q 54 710 61 684 q 34 910 35 793 q 56 955 34 940 q 104 969 77 969 q 152 955 130 969 q 174 910 174 940 q 161 847 172 875 q 151 812 155 830 q 146 770 146 793 q 154 710 146 745 l 155 703 q 140 674 155 686 q 106 663 125 663 z "},"#":{"ha":1038,"x_min":34,"x_max":1004,"o":"m 652 3 q 584 12 618 3 q 528 36 550 20 q 505 72 505 52 l 506 77 q 533 273 523 176 q 435 271 484 273 q 433 174 433 220 q 435 94 433 127 l 436 62 q 405 17 436 31 q 334 3 374 3 q 265 12 299 3 q 209 36 231 20 q 186 72 186 52 l 187 77 q 212 258 203 168 l 168 254 q 113 250 141 252 q 71 267 89 250 q 44 309 54 283 q 34 360 34 334 q 51 419 34 393 q 106 444 68 444 l 229 444 l 233 515 l 183 511 q 112 507 149 508 q 71 523 88 507 q 43 565 53 540 q 34 616 34 590 q 51 675 34 650 q 106 701 68 701 l 238 701 q 241 899 240 800 q 282 952 241 934 q 372 970 323 970 q 432 963 404 970 q 479 939 461 955 q 498 898 498 923 l 496 886 q 469 701 481 795 l 557 701 q 559 899 559 800 q 601 952 559 934 q 691 970 642 970 q 751 963 722 970 q 798 939 780 955 q 817 898 817 923 l 815 886 q 787 701 800 795 l 930 701 q 972 686 956 701 q 996 649 988 672 q 1004 603 1004 627 q 989 542 1004 569 q 947 514 975 514 l 943 514 q 768 526 856 522 l 766 497 q 762 444 764 471 l 930 444 q 972 430 956 444 q 996 393 988 416 q 1004 347 1004 371 q 989 285 1004 313 q 947 258 975 258 l 943 258 q 753 271 848 267 q 752 174 752 220 q 754 94 752 127 l 755 62 q 724 17 755 31 q 652 3 693 3 m 547 444 q 551 530 550 487 q 450 527 500 529 l 444 444 l 547 444 z "},"$":{"ha":895,"x_min":34,"x_max":861,"o":"m 430 -119 q 385 -112 405 -119 q 364 -89 364 -104 l 368 -43 q 372 -1 370 -24 q 183 59 258 12 q 71 171 109 106 q 34 299 34 236 q 56 389 34 348 q 240 479 106 479 q 283 462 273 479 q 329 415 302 429 q 381 401 355 401 q 441 417 415 401 q 467 452 467 433 q 422 506 464 492 q 320 524 380 519 q 216 540 268 528 q 129 583 165 551 q 85 680 92 615 l 84 701 q 125 829 84 774 q 233 919 166 884 q 380 966 300 954 q 378 1004 380 985 q 376 1046 376 1025 q 400 1078 376 1067 q 453 1088 424 1088 q 506 1078 482 1088 q 530 1047 530 1067 q 526 1019 529 1033 q 520 970 524 1001 q 655 937 593 964 q 758 861 718 910 q 798 740 798 812 q 745 664 798 688 q 643 641 696 641 q 570 655 602 641 q 534 699 538 669 q 517 778 530 755 q 488 802 504 802 q 444 781 462 802 q 427 732 427 761 q 453 670 427 702 q 540 618 479 638 q 613 597 576 607 q 704 572 660 587 q 783 531 748 557 q 840 462 819 506 q 861 349 861 418 q 819 195 860 270 q 697 67 777 121 q 503 -1 618 14 l 509 -77 q 484 -109 509 -99 q 430 -119 458 -119 z "},"%":{"ha":960,"x_min":34,"x_max":926,"o":"m 292 1 q 226 21 261 1 q 191 62 191 41 q 194 72 191 67 q 428 507 309 264 q 627 951 547 750 q 663 970 635 970 q 733 947 695 970 q 770 899 770 924 q 764 882 770 890 q 618 637 708 802 q 447 298 529 471 q 330 22 365 125 q 292 1 323 1 m 722 0 q 623 25 671 0 q 546 99 576 50 q 516 220 516 148 q 546 342 517 294 q 621 414 574 390 q 720 438 667 438 q 819 414 772 438 q 896 342 866 390 q 926 224 926 295 q 895 99 924 149 q 821 25 867 50 q 722 0 774 0 m 721 200 q 746 220 734 200 q 758 281 757 241 q 746 331 758 315 q 721 348 734 348 q 696 331 707 348 q 684 281 684 315 q 696 220 686 241 q 721 200 707 200 m 239 537 q 141 562 189 537 q 64 636 94 587 q 34 758 34 685 q 64 879 35 831 q 139 951 93 927 q 238 975 186 975 q 337 951 290 975 q 414 880 384 927 q 444 761 444 832 q 413 636 441 686 q 338 562 385 587 q 239 537 292 537 m 239 737 q 263 758 252 737 q 275 818 275 778 q 264 868 275 852 q 239 885 253 885 q 214 868 225 885 q 202 818 202 851 q 214 757 203 777 q 239 737 224 737 z "},"&":{"ha":941,"x_min":34,"x_max":907,"o":"m 364 324 q 435 340 404 324 q 325 438 378 387 q 302 384 302 412 q 317 342 302 361 q 364 324 332 324 m 351 642 q 449 763 449 713 q 426 805 449 790 q 376 819 403 819 q 332 806 351 819 q 313 764 313 793 q 351 642 313 705 m 748 -24 q 703 -9 721 -24 q 684 40 684 6 q 681 99 684 79 q 665 118 677 118 q 625 96 651 118 q 506 33 570 54 q 377 12 442 12 q 250 32 311 12 q 140 93 189 53 q 63 190 92 132 q 34 322 34 248 l 35 349 q 165 551 45 478 q 186 579 186 564 q 176 604 186 591 q 95 792 95 716 q 139 897 99 855 q 242 959 179 939 q 376 980 306 980 q 501 961 441 980 q 599 905 561 943 q 641 811 637 868 q 588 710 641 770 q 454 579 536 650 q 438 563 444 570 q 432 547 432 555 q 522 447 432 527 q 538 537 538 492 l 538 543 q 564 581 538 568 q 625 593 589 593 q 698 579 661 593 q 761 535 735 565 q 786 456 786 505 q 756 286 782 357 q 873 202 839 245 q 907 120 907 159 q 881 47 907 80 q 818 -5 855 14 q 748 -24 781 -24 z "},"'":{"ha":208,"x_min":34,"x_max":174,"o":"m 106 663 q 76 673 91 663 q 54 710 61 684 q 34 910 35 793 q 56 955 34 940 q 104 969 77 969 q 152 955 130 969 q 174 910 174 940 q 161 847 172 875 q 151 812 155 830 q 146 770 146 793 q 154 710 146 745 l 155 703 q 140 674 155 686 q 106 663 125 663 z "},"(":{"ha":425,"x_min":34,"x_max":391,"o":"m 353 -155 l 351 -154 q 174 -15 245 -112 q 69 214 104 82 q 34 485 34 345 q 69 756 34 625 q 175 985 104 888 q 351 1124 245 1082 l 353 1125 q 377 1110 363 1125 q 391 1077 391 1095 q 387 1061 391 1069 q 300 801 330 960 q 271 470 271 642 q 299 154 271 304 q 387 -91 328 3 q 391 -107 391 -99 q 377 -140 391 -125 q 353 -155 363 -155 z "},")":{"ha":425,"x_min":34,"x_max":391,"o":"m 72 -155 q 48 -140 62 -155 q 34 -107 34 -125 q 39 -91 34 -99 q 126 154 98 3 q 155 470 155 304 q 125 801 155 642 q 39 1061 96 960 q 34 1077 34 1069 q 48 1110 34 1095 q 72 1125 62 1125 l 75 1124 q 251 985 180 1082 q 356 756 321 888 q 391 485 391 625 q 356 214 391 345 q 251 -15 321 82 q 75 -154 180 -112 l 72 -155 z "},"*":{"ha":437,"x_min":34,"x_max":403,"o":"m 315 600 q 290 611 301 600 q 254 655 272 631 q 218 699 241 671 q 184 656 195 671 q 146 611 165 631 q 121 600 135 600 q 77 620 98 600 q 56 662 56 640 q 68 686 56 675 q 117 724 90 705 q 157 752 132 734 q 109 771 126 765 q 52 795 78 782 q 34 825 34 806 q 51 870 34 848 q 90 892 68 892 q 108 886 99 892 q 157 852 132 871 l 175 838 q 170 874 172 860 q 165 902 167 888 q 163 935 163 916 q 180 962 163 953 q 218 972 197 972 q 256 962 239 972 q 274 935 274 953 q 272 902 273 916 q 267 873 270 888 q 262 838 264 859 l 276 850 q 328 886 302 870 q 346 892 337 892 q 385 870 368 892 q 403 825 403 848 q 384 795 403 806 q 329 772 359 783 q 279 752 311 765 q 321 722 306 732 q 369 686 347 704 q 380 662 380 675 q 359 621 380 641 q 315 600 338 600 z "},"+":{"ha":672,"x_min":34,"x_max":638,"o":"m 340 183 q 291 190 315 183 q 253 210 268 196 q 237 245 237 223 l 237 418 q 85 407 162 414 l 81 407 q 46 430 58 407 q 34 481 34 453 q 49 537 34 512 q 96 563 64 563 l 237 563 l 237 725 q 253 760 237 747 q 291 780 268 774 q 340 787 315 787 q 405 774 376 787 q 434 740 434 762 l 434 736 q 420 563 424 650 l 576 563 q 623 537 608 563 q 638 481 638 512 q 626 430 638 453 q 591 407 614 407 l 587 407 q 420 418 503 416 q 434 234 423 326 l 434 230 q 405 195 434 208 q 340 183 376 183 z "},",":{"ha":281,"x_min":34,"x_max":247,"o":"m 165 -151 q 122 -139 142 -151 q 102 -113 102 -128 q 117 -85 102 -105 q 136 -51 127 -69 q 146 -16 146 -32 q 132 -1 146 -3 q 62 31 90 3 q 34 99 34 60 q 64 169 34 140 q 138 198 95 198 q 204 177 181 198 q 237 121 228 155 q 247 47 247 86 q 224 -107 247 -26 q 201 -141 218 -131 q 165 -151 184 -151 z "},"-":{"ha":671,"x_min":34,"x_max":637,"o":"m 590 326 l 587 326 q 336 338 460 338 q 85 326 211 338 l 81 326 q 46 349 58 326 q 34 400 34 372 q 49 456 34 430 q 96 481 64 481 l 576 481 q 623 456 608 481 q 637 400 637 430 q 625 349 637 372 q 590 326 613 326 z "},"­":{"ha":671,"x_min":34,"x_max":637,"o":"m 590 326 l 587 326 q 336 338 460 338 q 85 326 211 338 l 81 326 q 46 349 58 326 q 34 400 34 372 q 49 456 34 430 q 96 481 64 481 l 576 481 q 623 456 608 481 q 637 400 637 430 q 625 349 637 372 q 590 326 613 326 z "},".":{"ha":276,"x_min":34,"x_max":242,"o":"m 138 -1 q 64 28 95 -1 q 34 99 34 58 q 64 169 34 140 q 138 198 95 198 q 212 169 181 198 q 242 99 242 140 q 212 28 242 58 q 138 -1 181 -1 z "},"/":{"ha":381,"x_min":34,"x_max":347,"o":"m 119 -9 q 62 2 90 -9 q 34 31 34 13 l 35 35 q 132 487 91 248 q 194 937 174 726 q 213 962 197 954 q 253 970 230 970 q 316 956 285 970 q 347 919 347 942 q 345 909 347 914 q 242 479 295 762 q 179 25 189 197 q 160 -1 178 7 q 119 -9 142 -9 z "},":":{"ha":344,"x_min":68,"x_max":276,"o":"m 172 -1 q 98 28 129 -1 q 68 99 68 58 q 98 169 68 140 q 172 198 129 198 q 245 169 215 198 q 276 99 276 140 q 245 28 276 58 q 172 -1 215 -1 m 172 490 q 98 519 129 490 q 68 590 68 549 q 98 660 68 631 q 172 689 129 689 q 245 660 215 689 q 276 590 276 631 q 245 519 276 549 q 172 490 215 490 z "},";":{"ha":349,"x_min":68,"x_max":281,"o":"m 199 -151 q 156 -139 176 -151 q 136 -113 136 -128 q 151 -85 136 -106 q 170 -51 161 -70 q 180 -16 180 -33 q 165 -1 180 -3 q 96 31 124 3 q 68 99 68 60 q 98 169 68 140 q 172 198 129 198 q 239 177 215 198 q 272 121 262 155 q 281 47 281 86 q 259 -107 281 -25 q 236 -141 252 -131 q 199 -151 219 -151 m 172 490 q 98 519 129 490 q 68 590 68 549 q 98 660 68 631 q 172 689 129 689 q 246 660 216 689 q 277 590 277 631 q 246 519 277 549 q 172 490 216 490 z "},"<":{"ha":569,"x_min":34,"x_max":535,"o":"m 465 199 q 450 203 458 199 q 67 382 269 315 q 42 414 50 389 q 34 467 34 439 q 39 506 34 488 q 53 530 43 524 l 426 764 q 449 771 437 771 q 489 753 470 771 q 519 708 508 734 q 531 660 531 682 q 513 623 531 635 q 245 469 372 555 l 507 349 q 535 300 535 335 q 513 233 535 267 q 465 199 490 199 z "},"=":{"ha":610,"x_min":34,"x_max":576,"o":"m 534 505 l 530 505 q 305 517 417 517 q 80 505 193 517 l 77 505 q 45 528 56 505 q 34 580 34 551 q 47 635 34 610 q 90 661 61 661 l 521 661 q 563 635 549 661 q 576 580 576 610 q 565 528 576 551 q 534 505 554 505 m 534 309 l 530 309 q 305 321 417 321 q 80 309 193 321 l 77 309 q 45 332 56 309 q 34 384 34 355 q 47 439 34 414 q 90 465 61 465 l 521 465 q 563 439 549 465 q 576 384 576 414 q 565 332 576 355 q 534 309 554 309 z "},">":{"ha":569,"x_min":34,"x_max":535,"o":"m 104 199 q 56 233 79 199 q 34 300 34 267 q 62 349 34 335 l 323 469 q 56 623 197 555 q 38 660 38 635 q 50 708 38 682 q 80 753 61 734 q 120 771 99 771 q 143 764 132 771 l 516 530 q 530 506 526 524 q 535 467 535 488 q 527 414 535 439 q 502 382 519 389 q 119 203 300 315 q 104 199 111 199 z "},"?":{"ha":766,"x_min":34,"x_max":732,"o":"m 332 248 q 278 254 300 248 q 254 275 256 260 q 247 366 247 326 q 260 468 247 429 q 294 531 273 507 q 336 576 314 556 q 373 614 356 594 q 401 664 390 635 q 412 738 412 692 q 398 775 412 762 q 349 789 385 789 q 314 773 328 789 q 299 727 299 758 q 308 677 299 705 q 312 653 312 664 q 290 604 312 624 q 233 574 267 584 q 161 564 198 564 q 100 572 129 564 q 52 598 71 581 q 34 644 34 616 q 66 789 34 728 q 152 891 98 851 q 272 950 205 931 q 406 970 338 970 q 548 945 487 970 q 649 881 608 921 q 711 791 690 840 q 732 693 732 743 q 711 598 732 643 q 645 524 689 554 q 612 504 631 515 q 555 470 585 489 q 506 428 526 450 q 485 380 485 405 q 504 339 485 360 q 515 316 515 327 q 485 280 515 296 q 412 256 455 265 q 332 248 370 248 m 376 -1 q 261 30 309 -1 q 214 103 214 60 q 261 177 214 146 q 376 208 309 208 q 491 177 444 208 q 538 103 538 146 q 491 30 538 60 q 376 -1 444 -1 z "},"@":{"ha":1042,"x_min":34,"x_max":1008,"o":"m 498 12 q 298 52 385 12 q 152 159 211 92 q 64 311 94 227 q 34 484 34 395 q 79 694 34 603 q 198 846 123 785 q 365 939 273 907 q 553 970 458 970 q 722 944 641 970 q 867 867 803 918 q 970 741 932 816 q 1008 570 1008 667 l 1007 549 q 968 379 1002 447 q 883 273 934 312 q 775 217 832 233 q 669 201 718 201 q 585 214 618 201 q 552 244 552 227 l 557 291 q 470 223 517 244 q 378 201 423 201 q 292 247 332 201 q 253 349 253 293 q 267 406 253 378 q 311 457 280 434 q 392 495 341 480 q 488 538 445 508 q 535 631 532 568 q 511 670 535 668 q 481 647 496 670 q 460 571 466 623 q 434 539 456 550 q 381 529 411 529 q 308 546 341 529 q 272 594 274 562 q 309 696 272 654 q 402 760 346 738 q 517 782 459 782 q 651 761 591 782 q 747 692 711 740 q 783 564 783 644 l 781 491 q 789 300 781 399 q 854 405 831 341 q 876 541 876 469 q 849 697 876 629 q 775 811 822 765 q 670 880 729 857 q 545 904 610 903 q 358 854 449 904 q 209 707 267 804 q 147 469 151 610 q 180 302 147 380 q 278 173 212 223 q 444 118 344 123 l 460 117 q 682 182 570 117 q 688 183 685 183 q 722 162 703 183 q 742 113 742 140 q 704 58 742 80 q 498 12 621 12 m 510 419 q 541 430 524 419 q 572 469 557 441 l 574 513 l 543 494 q 501 465 518 478 q 483 439 484 452 q 491 425 483 431 q 510 419 498 419 z "},"A":{"ha":894,"x_min":-5,"x_max":880,"o":"m 437 451 q 455 461 448 451 q 463 493 463 472 l 463 506 q 437 629 448 629 q 413 505 426 629 l 412 492 q 420 461 412 472 q 437 451 428 451 m 678 0 q 566 16 616 0 q 510 60 517 33 q 488 224 498 137 q 471 261 485 250 q 441 272 458 272 q 406 261 422 272 q 387 233 390 250 q 365 60 378 140 q 309 16 358 33 q 197 0 260 0 q 102 12 149 0 q 25 48 56 23 q -5 113 -5 73 q 2 150 -5 130 q 116 506 65 334 q 208 892 167 677 q 286 957 220 935 q 431 978 351 978 q 585 956 515 978 q 667 892 655 934 q 761 499 712 667 q 873 150 810 332 q 880 113 880 130 q 850 48 880 73 q 773 12 820 23 q 678 0 727 0 z "},"B":{"ha":863,"x_min":45,"x_max":829,"o":"m 387 668 q 398 669 392 668 q 459 701 439 681 q 479 741 479 720 q 455 784 479 764 q 383 812 432 804 q 365 795 368 812 q 362 741 362 777 q 366 688 362 707 q 387 668 370 668 m 489 0 q 389 3 442 0 q 274 7 335 6 q 202 0 239 0 q 130 7 164 0 q 75 26 96 14 q 53 58 53 39 l 53 60 q 69 404 69 233 q 45 886 69 627 l 45 890 q 73 932 45 913 q 141 960 100 950 q 227 970 183 970 q 290 963 260 970 q 412 970 355 970 q 678 912 586 970 q 770 752 770 855 l 770 749 q 667 588 770 640 q 789 471 749 544 q 829 317 829 397 q 808 201 829 258 q 743 99 786 144 q 637 27 701 54 q 489 0 573 0 m 393 347 l 398 347 q 466 380 444 358 q 489 426 489 401 q 464 475 489 452 q 388 511 439 498 l 385 511 q 365 486 372 511 q 358 430 358 460 q 367 373 358 399 q 393 347 375 347 z "},"C":{"ha":885,"x_min":15,"x_max":867,"o":"m 450 -10 q 261 33 342 -10 q 125 146 180 75 q 43 307 71 218 q 15 490 15 397 q 42 669 15 582 q 124 825 69 755 q 261 936 178 895 q 456 977 345 977 q 617 946 542 977 q 740 862 693 916 q 787 739 787 809 q 762 672 787 701 q 702 625 738 642 q 631 608 665 608 q 574 626 598 608 q 546 684 550 644 q 518 764 541 739 q 466 789 496 789 q 403 765 428 789 q 366 702 378 741 q 353 619 353 663 q 371 514 353 566 q 421 429 388 463 q 505 395 455 395 q 605 462 566 395 q 648 479 617 479 q 714 467 677 479 q 786 430 751 454 q 844 372 821 406 q 867 298 867 339 q 845 223 867 263 q 730 87 795 139 q 592 13 665 36 q 450 -10 519 -10 z "},"D":{"ha":882,"x_min":45,"x_max":848,"o":"m 389 357 q 416 369 400 357 q 477 448 456 401 q 498 548 498 496 q 472 656 498 603 q 394 745 447 709 q 377 752 384 752 q 362 727 362 752 l 362 405 q 368 373 362 389 q 389 357 374 357 m 342 -6 q 205 1 271 -6 q 96 21 138 7 q 53 58 53 35 l 53 60 q 68 403 68 233 q 45 886 68 620 l 45 891 q 293 970 45 970 l 342 969 q 620 892 507 966 q 790 704 732 819 q 848 465 848 589 q 793 238 848 346 q 626 64 739 131 q 342 -6 514 -3 z "},"E":{"ha":777,"x_min":45,"x_max":749,"o":"m 412 -2 q 334 -1 372 -2 l 268 0 l 216 -1 q 145 3 184 -1 q 80 19 107 7 q 53 56 53 31 l 53 60 q 68 403 68 233 q 45 886 68 616 l 45 890 q 123 953 45 932 q 248 969 184 969 l 521 970 q 619 959 580 970 q 677 918 658 947 q 696 830 696 888 q 687 765 696 795 q 659 715 678 734 q 609 696 640 696 q 559 709 587 696 q 410 753 517 730 q 382 757 391 757 q 365 745 368 757 q 362 697 362 733 q 368 634 362 645 q 404 624 374 624 q 502 637 458 624 l 510 638 q 535 615 528 638 q 543 564 543 593 q 534 500 543 530 q 509 470 525 470 l 505 471 q 401 484 459 484 q 368 476 373 484 q 362 419 362 468 q 366 370 362 385 q 388 355 370 355 q 440 363 408 355 q 501 384 473 372 q 540 406 530 395 q 610 446 576 446 q 681 405 649 446 q 730 302 712 363 q 749 178 749 240 l 748 155 q 691 52 741 86 q 566 8 642 18 q 412 -2 490 -2 z "},"F":{"ha":710,"x_min":45,"x_max":711,"o":"m 256 0 q 158 9 205 0 q 82 36 111 18 q 52 80 52 54 l 52 83 q 68 420 68 256 q 45 886 68 625 l 45 890 q 74 932 45 915 q 148 960 104 950 q 236 969 192 969 l 271 968 q 334 968 299 968 q 441 969 388 968 l 535 970 q 634 959 595 970 q 692 917 673 947 q 711 829 711 886 q 702 765 711 795 q 673 715 692 734 q 623 696 654 696 q 574 709 602 696 q 419 754 532 732 q 395 757 406 757 q 378 749 384 757 q 372 720 372 742 q 373 694 372 709 q 382 646 376 661 q 399 628 388 631 q 429 625 410 625 q 460 628 447 625 q 484 633 473 630 q 509 638 496 636 q 535 615 527 638 q 543 564 543 593 q 533 500 543 530 q 509 470 524 470 l 505 471 q 399 484 460 484 q 427 311 414 391 q 447 188 439 240 q 454 113 454 136 q 428 50 454 75 q 357 13 402 25 q 256 0 313 0 z "},"G":{"ha":852,"x_min":17,"x_max":817,"o":"m 403 -7 q 239 35 311 -7 q 118 148 167 77 q 43 308 68 219 q 17 489 17 396 q 43 668 17 581 q 123 824 69 755 q 260 935 177 894 q 456 977 342 977 q 619 946 543 977 q 741 862 694 916 q 788 739 788 809 q 770 690 788 709 q 725 660 753 670 q 667 650 696 650 q 595 666 628 650 q 553 714 563 682 q 520 774 542 755 q 472 793 498 793 q 384 731 413 789 q 354 600 354 673 q 388 453 354 519 q 488 383 421 387 q 539 401 519 383 q 563 451 560 419 q 530 481 563 481 q 466 468 506 481 l 460 467 q 436 491 446 467 q 427 541 427 514 q 437 589 427 568 q 469 612 447 610 l 521 614 l 575 613 l 653 614 q 722 606 693 614 q 766 572 751 598 q 782 495 781 547 q 776 391 782 443 q 770 286 770 339 q 802 119 770 194 q 817 65 817 87 q 797 22 817 36 q 750 4 777 8 q 697 0 722 0 q 635 17 663 0 q 602 65 607 33 q 507 11 558 28 q 403 -7 456 -7 z "},"H":{"ha":899,"x_min":45,"x_max":848,"o":"m 681 -1 q 599 6 638 -1 q 535 26 560 13 q 511 58 511 39 l 511 60 q 522 198 519 140 q 526 334 525 257 q 521 371 526 360 q 498 385 515 382 q 443 387 480 387 q 379 380 395 387 q 363 337 363 372 q 386 96 368 210 q 390 67 389 81 q 366 28 390 43 q 303 6 341 14 q 223 -1 264 -1 q 141 6 180 -1 q 78 26 102 13 q 53 58 53 39 l 53 60 q 68 403 68 233 q 45 886 68 620 l 45 890 q 70 933 45 916 q 134 960 95 951 q 214 970 172 970 q 289 961 254 970 q 348 932 325 951 q 370 884 370 913 l 370 878 q 357 622 359 761 q 369 593 357 602 q 399 583 380 585 q 444 581 418 581 q 490 583 474 581 q 514 594 507 585 q 522 626 522 604 l 522 632 q 507 850 516 745 q 503 890 503 886 q 528 933 503 916 q 591 960 553 951 q 671 970 630 970 q 747 961 711 970 q 805 932 783 951 q 828 884 828 913 l 828 878 q 815 562 815 726 q 847 73 815 326 l 848 67 q 823 28 848 43 q 761 6 799 14 q 681 -1 722 -1 z "},"I":{"ha":443,"x_min":48,"x_max":388,"o":"m 220 -1 q 139 6 178 -1 q 76 26 100 13 q 51 58 51 39 l 51 60 q 68 429 68 245 q 48 886 68 661 l 48 890 q 73 933 48 915 q 136 960 98 951 q 217 970 175 970 q 292 961 256 970 q 350 932 328 951 q 372 884 372 913 l 372 878 q 357 542 357 718 q 387 73 357 315 l 388 67 q 363 28 388 43 q 301 6 339 14 q 220 -1 262 -1 z "},"J":{"ha":770,"x_min":19,"x_max":716,"o":"m 357 0 q 197 18 273 0 q 73 71 121 37 q 20 155 24 105 q 19 180 19 167 q 37 303 19 241 q 87 405 56 364 q 157 446 118 446 q 228 406 191 446 q 300 369 262 369 q 351 389 327 369 q 391 448 376 409 q 406 544 406 487 q 407 616 406 583 q 408 667 408 644 q 399 734 408 710 q 355 759 389 759 q 208 709 311 759 q 159 696 180 696 q 110 714 130 696 q 81 762 91 733 q 71 823 71 791 q 159 941 71 902 q 355 975 235 975 q 510 961 435 975 q 634 924 585 947 q 682 874 682 901 q 688 558 682 672 q 715 246 694 444 l 716 225 q 685 123 716 165 q 603 53 654 80 q 488 13 551 26 q 357 0 424 0 z "},"K":{"ha":841,"x_min":48,"x_max":836,"o":"m 220 -1 q 139 6 178 -1 q 76 26 100 13 q 51 58 51 39 l 51 60 q 68 429 68 245 q 48 886 68 661 l 48 890 q 73 933 48 915 q 136 960 98 951 q 217 970 175 970 q 292 961 256 970 q 350 932 328 951 q 372 884 372 913 q 368 812 371 846 q 362 709 363 768 q 374 677 362 677 q 416 717 387 677 q 511 894 498 822 q 548 929 517 918 q 620 941 580 941 q 712 924 670 941 q 758 870 754 906 q 543 582 758 807 q 666 512 622 563 q 732 396 710 461 q 766 268 753 330 q 788 183 777 220 q 818 126 799 146 q 836 90 836 107 q 800 44 836 64 q 710 13 764 24 q 604 1 656 1 q 514 14 552 1 q 472 55 476 27 q 468 142 469 94 q 460 273 467 208 q 434 382 454 338 q 410 412 425 398 q 382 425 395 425 q 364 393 364 425 l 364 388 q 387 73 374 179 l 388 67 q 363 28 388 43 q 301 6 339 14 q 220 -1 262 -1 z "},"L":{"ha":795,"x_min":48,"x_max":773,"o":"m 252 -1 q 159 5 205 -1 q 82 24 113 11 q 51 58 51 37 l 51 60 q 68 429 68 245 q 48 886 68 661 l 48 890 q 73 933 48 915 q 136 960 98 951 q 217 970 175 970 q 292 961 256 970 q 350 932 328 951 q 372 884 372 913 l 372 878 q 357 536 357 715 q 359 421 357 479 q 425 349 363 349 q 483 360 452 349 q 535 385 513 372 q 564 406 557 399 q 635 446 602 446 q 705 405 674 446 q 755 303 736 364 q 773 180 773 241 q 772 155 773 167 q 740 71 768 102 q 665 25 711 40 q 564 6 620 10 q 452 1 509 1 l 364 2 q 305 1 332 2 q 252 -1 279 -1 z "},"M":{"ha":1034,"x_min":48,"x_max":979,"o":"m 811 -1 q 730 6 769 -1 q 666 26 691 13 q 642 58 642 39 q 650 140 642 67 q 669 387 667 262 q 666 435 669 420 q 656 450 662 450 q 629 383 643 450 q 608 221 614 291 q 602 160 605 180 q 569 135 597 144 q 506 126 540 126 q 447 134 473 126 q 417 160 421 142 q 412 219 414 180 q 392 385 408 290 q 364 450 378 450 q 351 393 353 450 q 376 150 356 270 l 388 67 q 363 28 388 43 q 301 6 339 14 q 220 -1 262 -1 q 139 6 178 -1 q 76 26 100 13 q 51 58 51 39 l 51 60 q 68 425 68 244 q 48 886 68 631 l 48 890 q 73 933 48 916 q 136 960 98 951 q 216 969 175 969 q 296 959 258 969 q 355 928 333 949 q 473 739 399 880 q 511 694 494 694 q 529 706 519 694 q 549 741 538 718 q 655 925 624 884 q 715 961 675 949 q 801 972 755 972 q 879 963 842 972 q 940 933 916 954 q 964 884 964 913 l 964 878 q 949 537 949 715 q 978 73 949 312 l 979 67 q 954 28 979 43 q 891 6 930 14 q 811 -1 853 -1 z "},"N":{"ha":941,"x_min":48,"x_max":886,"o":"m 714 -1 q 606 12 654 -1 q 551 48 557 24 q 498 201 540 106 q 374 432 395 432 q 361 386 361 432 q 387 73 366 224 l 388 67 q 363 28 388 43 q 301 6 339 14 q 220 -1 262 -1 q 139 6 178 -1 q 76 26 100 13 q 51 58 51 39 l 51 60 q 68 429 68 245 q 48 886 68 661 l 48 890 q 71 933 48 916 q 131 959 94 950 q 207 968 167 968 q 310 949 262 968 q 372 893 358 931 q 465 729 395 833 q 529 628 496 682 q 548 611 541 611 q 558 619 555 611 q 562 640 562 627 q 547 886 556 766 l 547 890 q 571 933 547 915 q 635 960 596 951 q 715 970 673 970 q 790 961 755 970 q 848 932 826 951 q 871 884 871 913 l 871 878 q 856 542 856 718 q 886 73 856 315 l 886 67 q 861 28 886 43 q 796 6 836 14 q 714 -1 757 -1 z "},"O":{"ha":885,"x_min":18,"x_max":843,"o":"m 432 -9 q 280 22 354 -9 q 147 116 206 54 q 53 271 88 178 q 18 487 18 363 q 83 767 20 656 q 235 923 142 871 q 429 975 328 975 q 581 945 507 975 q 713 854 654 915 q 808 704 772 794 q 843 494 843 614 q 777 203 840 318 q 625 44 717 97 q 432 -9 532 -9 m 429 440 q 480 486 458 440 q 504 621 502 532 q 481 734 504 696 q 430 772 458 772 q 379 734 402 772 q 356 622 356 696 q 380 485 358 530 q 429 440 401 440 z "},"P":{"ha":820,"x_min":48,"x_max":797,"o":"m 220 -1 q 139 6 178 -1 q 76 26 100 13 q 51 58 51 39 l 51 60 q 68 429 68 245 q 48 886 68 661 l 48 890 q 73 933 48 915 q 136 960 98 951 q 216 969 175 969 q 283 962 251 969 q 395 970 344 970 q 563 940 488 970 q 689 861 637 910 q 769 750 741 811 q 797 627 797 689 q 756 490 797 555 q 631 384 716 425 q 410 336 545 342 q 374 329 383 336 q 365 302 365 323 q 387 73 371 183 l 388 67 q 363 28 388 43 q 301 6 339 14 q 220 -1 262 -1 m 362 604 q 387 612 370 604 q 425 644 412 624 q 438 686 438 664 q 425 732 438 709 q 387 771 412 754 q 366 780 374 780 q 356 771 358 780 q 351 682 351 751 l 352 629 q 354 610 353 616 q 362 604 355 604 z "},"Q":{"ha":896,"x_min":18,"x_max":864,"o":"m 684 -162 q 642 -148 661 -162 q 538 6 593 -105 q 431 -9 486 -9 q 280 22 354 -9 q 147 116 206 54 q 53 271 88 178 q 18 487 18 364 q 83 767 19 656 q 235 923 142 871 q 429 975 328 975 q 581 945 507 975 q 713 854 654 915 q 807 704 772 794 q 842 494 842 614 q 714 116 838 250 q 829 56 771 75 q 864 9 864 43 q 835 -64 864 -24 q 764 -133 806 -104 q 684 -162 722 -162 m 429 440 q 480 486 458 440 q 504 621 502 532 q 481 734 504 696 q 430 772 458 772 q 379 734 402 772 q 356 622 356 696 q 380 485 358 530 q 429 440 401 440 z "},"R":{"ha":853,"x_min":47,"x_max":827,"o":"m 361 577 q 389 592 369 577 q 425 632 414 609 q 437 680 437 654 q 405 757 437 721 q 370 781 380 781 q 357 768 360 781 q 354 735 355 755 q 351 640 351 688 l 351 605 q 353 585 352 592 q 361 577 355 577 m 220 -1 q 139 6 178 -1 q 75 26 100 13 q 50 58 50 39 l 50 60 q 68 427 68 245 q 47 886 68 633 l 47 890 q 72 933 47 915 q 136 960 97 951 q 216 969 174 969 q 283 962 250 969 q 395 970 342 970 q 567 942 493 970 q 691 869 641 915 q 767 767 742 823 q 793 652 793 711 q 760 529 793 588 q 661 430 728 470 q 751 327 724 387 q 793 210 779 267 q 819 133 805 165 q 827 102 827 117 q 794 47 827 70 q 712 12 761 24 q 614 1 663 1 q 518 16 559 1 q 473 61 477 31 q 469 140 471 98 q 465 221 468 181 q 453 293 462 260 q 427 345 444 326 q 378 365 409 365 q 361 363 370 365 q 387 73 368 220 l 387 67 q 363 28 387 43 q 300 6 338 14 q 220 -1 262 -1 z "},"S":{"ha":866,"x_min":11,"x_max":838,"o":"m 413 -5 q 236 23 312 -5 q 111 96 161 51 q 36 194 61 140 q 11 299 11 248 q 33 389 11 348 q 216 479 81 479 q 260 462 250 479 q 306 415 279 429 q 358 401 332 401 q 418 417 392 401 q 444 452 444 433 q 399 506 441 492 q 298 524 358 519 q 194 539 245 528 q 105 583 142 551 q 61 680 68 614 l 60 701 q 93 816 60 766 q 180 902 125 867 q 303 955 235 937 q 444 973 372 973 q 565 959 506 973 q 670 917 623 945 q 746 845 718 889 q 774 740 774 801 l 774 730 q 722 664 770 686 q 620 641 673 641 q 546 655 578 641 q 511 699 515 669 q 494 778 507 755 q 465 802 481 802 q 421 781 439 802 q 404 732 404 761 q 429 670 404 702 q 516 618 455 638 q 589 597 552 607 q 681 572 637 587 q 760 531 724 557 q 817 462 795 506 q 838 349 838 418 q 809 222 837 284 q 726 108 781 159 q 593 26 672 57 q 413 -5 515 -5 z "},"T":{"ha":871,"x_min":3,"x_max":858,"o":"m 433 -1 q 352 6 391 -1 q 289 26 313 13 q 264 58 264 39 l 264 60 q 281 404 281 240 q 273 667 281 535 q 245 703 270 703 q 207 690 229 703 q 166 660 185 677 q 135 630 146 642 q 94 608 114 608 q 48 638 68 608 q 15 713 27 667 q 3 807 3 759 q 14 886 3 849 q 50 947 25 924 q 115 970 74 970 l 125 970 q 431 958 281 958 q 736 970 580 958 l 746 970 q 811 947 787 970 q 847 886 836 924 q 858 807 858 849 q 846 713 858 759 q 813 638 833 667 q 766 608 792 608 q 736 621 753 608 q 701 652 719 634 q 656 690 679 673 q 610 707 633 707 q 574 652 577 707 q 570 509 570 581 q 600 73 570 305 l 601 67 q 576 28 601 43 q 514 6 552 14 q 433 -1 475 -1 z "},"U":{"ha":871,"x_min":41,"x_max":814,"o":"m 660 -1 q 555 14 602 -1 q 503 56 508 28 q 416 12 460 23 q 329 0 372 0 q 191 48 252 0 q 95 181 130 97 q 60 371 60 264 q 41 886 60 633 l 41 890 q 63 930 41 913 q 122 955 86 947 q 197 964 157 964 q 278 954 239 964 q 342 923 317 943 q 368 871 368 903 q 363 794 366 839 q 352 557 352 658 l 352 529 q 357 465 352 492 q 378 422 362 437 q 426 407 393 407 q 480 428 464 407 q 497 509 497 450 q 479 736 497 569 q 465 890 466 859 q 491 933 465 915 q 556 960 516 951 q 640 970 596 970 q 717 961 680 970 q 777 932 754 951 q 800 884 800 913 l 800 878 q 787 541 787 717 q 814 73 787 314 l 814 67 q 791 29 814 44 q 734 6 769 14 q 660 -1 699 -1 z "},"V":{"ha":878,"x_min":-2,"x_max":872,"o":"m 435 0 q 291 20 357 0 q 211 78 226 39 q 115 429 154 272 q 5 820 71 619 q -2 857 -2 840 q 28 922 -2 897 q 105 958 58 947 q 200 970 151 970 q 312 954 262 970 q 368 909 361 937 q 409 650 390 773 q 434 595 420 595 q 460 650 450 595 l 502 909 q 558 954 509 937 q 670 970 608 970 q 765 958 719 970 q 842 922 812 947 q 872 857 872 897 q 865 820 872 840 q 755 431 800 620 q 659 78 716 273 q 578 20 644 39 q 435 0 513 0 z "},"W":{"ha":1292,"x_min":-3,"x_max":1286,"o":"m 916 1 q 775 32 843 1 q 689 121 707 63 q 671 189 677 168 q 638 258 651 258 q 616 223 627 258 q 590 133 608 199 q 499 38 571 73 q 352 3 427 3 q 263 21 302 3 q 211 78 224 39 q 115 431 153 273 q 4 820 70 620 q -3 857 -3 840 q 27 922 -3 897 q 104 958 58 947 q 199 970 151 970 q 311 954 262 970 q 368 909 361 937 q 401 634 386 785 q 433 534 412 534 q 453 560 444 534 q 467 626 462 585 l 471 667 q 502 909 485 799 q 549 939 507 929 q 642 948 591 948 q 734 939 692 948 q 781 909 777 929 q 814 642 800 788 q 829 569 820 594 q 849 544 838 544 q 868 570 859 544 q 884 649 878 595 q 916 909 902 819 q 972 954 922 937 q 1084 970 1021 970 q 1179 958 1133 970 q 1256 922 1225 947 q 1286 857 1286 897 q 1279 820 1286 840 q 1168 431 1213 620 q 1072 78 1130 273 q 1015 20 1059 39 q 916 1 971 1 z "},"X":{"ha":957,"x_min":14,"x_max":940,"o":"m 704 0 q 628 36 655 0 q 511 187 572 112 q 477 214 491 214 q 460 205 469 214 q 324 34 443 188 q 250 0 297 0 q 150 29 203 0 q 60 96 98 58 q 14 162 22 134 q 233 442 86 262 q 250 465 244 456 q 256 481 256 473 q 248 500 256 490 q 224 530 241 511 q 52 739 130 640 q 20 818 20 781 q 49 888 20 857 q 125 941 78 920 q 229 970 172 962 q 261 972 245 972 q 327 947 311 972 q 431 799 366 884 q 455 769 446 779 q 473 759 465 759 q 489 769 480 759 q 513 798 498 779 q 621 949 579 885 q 683 973 635 973 q 720 970 700 973 q 822 939 775 960 q 897 885 868 917 q 926 815 926 854 q 892 735 926 778 q 702 502 710 514 q 693 480 693 490 q 699 465 693 473 q 714 446 704 457 l 730 427 q 940 158 869 259 q 894 93 932 130 q 804 28 856 56 q 704 0 751 0 z "},"Y":{"ha":822,"x_min":-12,"x_max":831,"o":"m 410 -1 q 329 6 368 -1 q 266 26 290 13 q 241 58 241 39 l 241 60 q 259 418 259 248 q 15 753 124 597 q -12 828 -12 795 q 12 891 -12 864 q 73 937 36 918 q 151 964 110 955 q 228 974 193 974 q 279 966 258 974 q 304 944 300 959 q 410 675 357 675 q 515 944 462 675 q 539 966 518 959 q 591 974 560 974 q 667 964 626 974 q 746 937 709 955 q 807 891 783 918 q 831 828 831 864 q 804 753 831 795 q 581 446 703 610 l 549 404 q 577 73 555 250 l 578 67 q 553 28 578 43 q 491 6 529 14 q 410 -1 452 -1 z "},"Z":{"ha":857,"x_min":27,"x_max":820,"o":"m 212 0 l 197 0 q 75 34 120 0 q 29 123 29 67 q 57 217 29 165 q 187 447 113 319 q 350 745 350 728 q 330 762 350 762 q 199 714 288 762 q 159 690 168 697 q 119 673 138 673 q 72 697 93 673 q 39 759 52 722 q 27 836 27 797 q 38 901 27 871 q 74 951 49 932 q 139 970 98 970 q 201 968 172 969 q 334 964 259 964 q 475 968 417 964 l 549 970 q 622 963 583 970 q 695 939 661 955 q 751 897 729 922 q 772 835 772 871 q 747 755 772 800 q 638 587 696 671 q 532 420 581 503 q 511 371 511 386 q 527 359 511 359 q 576 370 543 359 q 690 446 641 390 q 724 464 707 464 q 772 425 751 464 q 807 328 794 387 q 820 206 820 269 q 809 106 820 153 q 772 30 798 59 q 705 1 747 1 l 694 1 q 486 5 645 5 q 212 0 346 5 z "},"[":{"ha":543,"x_min":34,"x_max":509,"o":"m 336 -155 q 134 -132 210 -155 q 34 -18 34 -100 l 34 990 q 134 1103 34 1071 q 335 1126 209 1126 q 425 1124 385 1126 l 466 1123 q 499 1098 489 1122 q 509 1044 509 1074 q 499 984 509 1012 q 474 957 490 957 l 469 958 q 414 966 441 966 q 329 939 366 966 q 288 857 292 912 q 281 486 281 676 q 288 115 281 295 q 329 32 292 59 q 414 5 366 5 q 469 14 441 5 l 474 14 q 499 -13 490 14 q 509 -73 509 -41 q 499 -126 509 -102 q 466 -152 489 -151 l 425 -153 q 336 -155 385 -155 z "},"\\":{"ha":381,"x_min":34,"x_max":347,"o":"m 262 -9 q 221 -1 239 -9 q 202 25 203 7 q 139 479 193 197 q 36 909 86 762 q 34 919 34 914 q 65 956 34 942 q 128 970 96 970 q 168 962 151 970 q 187 937 184 954 q 249 487 208 726 q 347 35 290 248 l 347 31 q 319 2 347 13 q 262 -9 292 -9 z "},"]":{"ha":543,"x_min":34,"x_max":509,"o":"m 207 -155 q 118 -153 158 -155 l 77 -152 q 44 -126 54 -151 q 34 -73 34 -102 q 43 -13 34 -41 q 68 14 53 14 l 73 14 q 129 5 101 5 q 214 32 177 5 q 254 115 250 59 q 261 486 261 295 q 254 857 261 676 q 214 939 250 912 q 129 966 177 966 q 73 958 101 966 l 68 957 q 43 984 53 957 q 34 1044 34 1012 q 44 1098 34 1074 q 77 1123 54 1122 l 118 1124 q 208 1126 158 1126 q 408 1103 334 1126 q 509 990 509 1071 l 509 -18 q 408 -132 509 -100 q 207 -155 333 -155 z "},"^":{"ha":522,"x_min":34,"x_max":488,"o":"m 132 503 q 87 512 110 503 q 50 537 65 521 q 34 576 34 554 q 37 595 34 585 q 104 762 76 701 q 172 929 133 823 q 203 960 180 950 q 254 970 227 970 q 300 962 279 970 q 326 939 321 954 q 484 591 371 804 q 488 574 488 583 q 456 528 488 549 q 392 507 425 507 q 335 543 350 507 q 262 701 293 643 l 250 726 q 181 532 207 623 q 163 510 176 517 q 132 503 149 503 z "},"_":{"ha":671,"x_min":34,"x_max":637,"o":"m 590 -155 l 587 -155 q 336 -142 460 -142 q 84 -155 211 -142 l 81 -155 q 46 -132 58 -155 q 34 -80 34 -109 q 49 -24 34 -50 q 96 1 64 1 l 576 1 q 623 -24 608 1 q 637 -80 637 -50 q 625 -132 637 -109 q 590 -155 613 -155 z "},"`":{"ha":324,"x_min":34,"x_max":290,"o":"m 236 882 q 218 887 227 882 q 130 951 178 910 q 34 1061 34 1035 q 67 1113 34 1088 q 130 1138 100 1138 q 160 1125 149 1138 q 205 1062 180 1097 q 288 949 244 1003 q 290 939 290 945 q 274 903 290 924 q 236 882 258 882 z "},"a":{"ha":859,"x_min":19,"x_max":823,"o":"m 246 -2 q 90 50 156 -2 q 19 186 24 101 l 19 190 q 42 272 19 231 q 252 408 93 361 q 382 467 334 431 q 446 595 446 514 q 435 637 446 622 q 410 652 425 652 q 370 620 390 652 q 343 514 349 587 q 308 470 340 484 q 235 456 276 456 q 133 478 181 456 q 80 545 85 501 l 80 555 q 109 663 80 616 q 187 743 138 710 q 294 792 235 775 q 413 809 353 809 q 683 738 583 809 q 794 490 794 658 q 823 73 794 304 l 823 67 q 799 28 823 43 q 736 6 774 14 q 656 -1 698 -1 q 575 6 614 -1 q 511 26 536 13 q 486 58 486 39 l 492 123 q 374 28 439 58 q 246 -2 309 -2 m 420 302 q 463 317 440 302 q 504 371 486 333 q 505 434 504 404 l 463 406 q 405 367 429 385 q 381 330 381 348 q 393 310 382 318 q 420 302 404 302 z "},"b":{"ha":854,"x_min":52,"x_max":828,"o":"m 224 -1 q 143 6 182 -1 q 79 26 104 13 q 54 58 54 39 l 54 60 q 73 427 73 245 q 52 886 73 633 l 52 890 q 76 933 52 915 q 140 960 101 951 q 220 970 178 970 q 296 961 260 970 q 354 932 332 951 q 376 884 376 913 l 376 878 q 364 688 368 786 q 513 719 445 719 q 646 688 587 719 q 745 604 705 656 q 807 486 785 551 q 828 352 828 420 q 807 222 828 286 q 742 110 786 159 q 631 30 699 60 q 470 0 563 0 q 300 5 394 0 q 224 -1 264 -1 m 381 253 q 418 274 393 253 q 450 320 439 292 q 460 380 460 349 q 444 460 460 421 q 395 526 427 500 q 365 544 374 544 q 357 534 358 544 q 355 453 355 525 q 361 293 355 374 q 367 264 363 275 q 381 253 371 253 z "},"c":{"ha":835,"x_min":27,"x_max":825,"o":"m 441 0 l 418 1 q 203 69 290 9 q 72 220 116 129 q 27 410 27 311 q 53 555 27 484 q 132 682 79 625 q 263 771 184 738 q 449 804 342 804 q 589 782 524 804 q 693 719 654 759 q 733 625 733 678 q 695 553 732 575 q 623 532 662 532 q 565 545 591 532 q 532 585 538 559 q 467 648 515 648 l 463 648 q 404 629 428 648 q 369 580 380 610 q 357 516 357 550 q 371 445 357 479 q 415 388 385 410 q 494 363 447 363 q 549 377 520 363 q 597 418 578 391 q 641 437 612 437 q 719 413 675 437 q 794 348 762 388 q 825 258 825 307 q 800 182 825 221 q 693 76 753 116 q 569 18 633 36 q 441 0 504 0 z "},"d":{"ha":895,"x_min":28,"x_max":842,"o":"m 674 -1 q 589 7 629 -1 q 559 9 577 9 q 467 5 521 9 q 386 0 418 0 q 225 30 293 0 q 114 110 157 60 q 50 222 71 159 q 28 352 28 286 q 50 486 28 420 q 111 604 71 551 q 210 688 152 657 q 344 720 269 720 q 527 673 426 720 q 513 878 522 779 l 512 885 q 534 933 512 914 q 592 961 557 951 q 667 970 628 970 q 748 960 709 970 q 812 933 787 951 q 837 890 837 915 l 837 886 q 821 469 821 680 q 842 60 821 267 l 842 58 q 818 26 842 39 q 755 6 793 13 q 674 -1 716 -1 m 509 250 q 533 259 527 250 q 541 288 540 267 q 543 412 543 351 l 543 510 q 539 541 543 530 q 525 551 536 551 q 490 541 513 551 q 419 474 444 519 q 395 380 395 428 q 419 296 395 332 q 490 252 442 259 q 509 250 501 250 z "},"e":{"ha":838,"x_min":27,"x_max":830,"o":"m 500 595 q 518 604 518 595 l 518 606 q 496 636 516 626 q 450 646 475 646 q 401 636 423 646 q 375 605 378 625 q 393 595 375 595 l 500 595 m 439 0 q 258 35 335 0 q 130 128 182 70 q 53 260 79 186 q 27 410 27 333 q 53 555 27 484 q 129 683 78 627 q 258 773 180 740 q 441 807 336 807 q 665 733 585 807 q 717 660 701 700 q 734 583 734 621 q 703 492 734 528 q 625 458 675 458 l 389 458 q 359 444 360 458 q 380 388 359 413 q 432 346 401 362 q 492 330 463 330 q 549 345 519 330 q 596 390 578 361 q 655 416 612 416 q 732 398 691 416 q 801 347 772 379 q 830 271 830 314 q 808 201 830 239 q 637 47 737 94 q 439 0 538 0 z "},"f":{"ha":649,"x_min":56,"x_max":680,"o":"m 233 -1 q 148 9 189 -1 q 81 38 107 20 q 56 79 56 56 l 56 83 q 67 341 67 221 q 65 474 67 411 q 64 583 64 531 q 74 748 64 675 q 116 872 84 821 q 213 950 149 923 q 385 977 277 977 q 503 970 438 977 q 602 953 562 964 q 660 914 641 942 q 680 829 680 886 q 669 760 680 792 q 639 714 659 732 q 591 696 620 696 q 542 709 570 696 q 456 730 498 730 q 396 712 421 730 q 371 651 371 694 l 372 619 q 375 600 372 606 q 397 594 378 594 q 505 607 460 594 l 512 608 q 538 585 530 608 q 547 534 547 562 q 537 470 547 500 q 512 440 528 440 l 508 441 q 442 454 467 454 q 400 436 412 454 q 388 385 388 418 q 390 353 388 370 q 405 219 398 271 q 415 113 415 152 q 389 48 415 73 q 320 11 362 23 q 233 -1 279 -1 z "},"g":{"ha":861,"x_min":27,"x_max":808,"o":"m 441 -179 l 422 -179 q 249 -157 319 -179 q 137 -97 179 -134 q 76 -16 95 -60 q 58 73 58 28 q 92 190 58 139 q 173 240 126 240 q 220 224 196 240 q 276 203 239 212 q 354 195 313 195 q 421 204 389 195 q 474 235 454 213 q 495 295 495 257 q 492 326 495 312 q 479 339 490 339 q 460 330 473 339 q 280 266 372 266 q 108 336 180 266 q 27 529 31 410 q 58 663 27 600 q 149 767 90 726 q 292 807 208 807 q 473 761 372 807 q 542 798 498 786 q 634 810 586 810 q 718 801 678 810 q 783 775 758 792 q 808 734 808 758 l 808 730 q 791 294 791 520 q 793 168 791 217 l 794 119 q 764 -12 794 43 q 682 -104 733 -67 q 569 -159 631 -140 q 441 -179 506 -178 m 376 503 q 480 551 422 503 q 475 581 478 568 l 473 595 q 416 608 442 608 q 352 586 376 608 q 328 541 328 563 q 341 513 329 524 q 376 503 353 503 z "},"h":{"ha":835,"x_min":52,"x_max":792,"o":"m 625 -1 q 544 6 583 -1 q 480 26 505 13 q 456 58 456 39 l 456 60 q 473 475 473 231 q 459 525 473 508 q 427 541 445 541 q 384 514 404 541 q 363 430 363 487 q 391 73 363 282 l 391 67 q 367 28 391 43 q 304 6 342 14 q 224 -1 266 -1 q 143 6 182 -1 q 79 26 104 13 q 54 58 54 39 l 54 60 q 73 427 73 245 q 52 886 73 633 l 52 890 q 76 933 52 915 q 140 960 101 951 q 220 970 178 970 q 296 961 260 970 q 354 932 332 951 q 376 884 376 913 l 376 878 q 363 668 367 776 q 453 758 401 728 q 557 787 505 787 q 664 755 614 787 q 746 657 715 722 q 778 494 778 592 q 776 450 778 473 q 773 367 773 411 q 779 203 773 286 q 791 73 785 121 l 792 67 q 768 28 792 43 q 705 6 743 14 q 625 -1 667 -1 z "},"i":{"ha":421,"x_min":43,"x_max":370,"o":"m 206 779 q 91 809 138 779 q 43 882 43 840 q 91 956 43 926 q 206 987 138 987 q 321 956 273 987 q 368 882 368 926 q 321 809 368 840 q 206 779 273 779 m 214 -1 q 139 6 175 -1 q 80 26 103 13 q 57 58 57 39 l 57 60 q 69 323 69 193 q 54 669 69 496 l 54 673 q 77 716 54 699 q 136 743 100 734 q 211 753 172 753 q 281 744 248 753 q 335 715 314 734 q 356 667 356 696 l 356 661 q 347 440 347 551 q 370 73 347 258 l 370 67 q 347 28 370 43 q 289 6 325 14 q 214 -1 254 -1 z "},"j":{"ha":648,"x_min":-7,"x_max":595,"o":"m 180 -179 q 71 -149 113 -179 q 11 -70 30 -118 q -7 29 -7 -22 q 8 124 -7 79 q 50 198 23 170 q 111 227 76 227 q 162 216 128 227 q 213 204 195 204 q 250 223 235 204 q 264 297 264 242 q 255 551 264 484 q 245 606 251 583 q 239 648 239 637 q 263 702 239 681 q 325 733 287 724 q 406 743 363 743 q 496 732 452 743 q 567 701 539 722 q 595 653 595 681 l 595 648 q 577 266 577 462 q 578 172 577 212 l 579 120 q 527 -47 579 19 q 384 -146 474 -114 q 180 -179 293 -179 m 408 779 q 293 809 341 779 q 245 882 245 840 q 293 956 245 926 q 408 987 341 987 q 523 956 475 987 q 570 882 570 926 q 523 809 570 840 q 408 779 475 779 z "},"k":{"ha":829,"x_min":52,"x_max":819,"o":"m 224 -1 q 143 6 182 -1 q 80 26 104 13 q 55 58 55 39 l 55 60 q 73 429 73 245 q 52 886 73 661 l 52 890 q 77 933 52 915 q 140 960 102 951 q 221 970 179 970 q 296 961 260 970 q 354 932 332 951 q 376 884 376 913 l 376 878 q 363 646 366 770 q 374 611 363 612 q 402 640 383 611 q 463 779 448 709 q 499 810 468 799 q 573 821 531 821 q 652 810 612 821 q 718 780 691 800 q 744 726 744 759 q 740 703 744 715 q 680 632 729 673 q 566 548 631 591 q 674 446 624 505 q 763 299 725 388 q 819 73 800 210 l 819 67 q 798 30 819 44 q 743 9 777 16 q 672 2 709 2 q 594 9 631 2 q 532 30 556 16 q 508 63 508 44 l 509 75 q 510 108 510 87 q 501 207 510 150 q 467 322 492 263 q 396 431 442 381 q 364 406 378 417 q 391 73 370 241 l 392 67 q 368 28 392 43 q 305 6 343 14 q 224 -1 267 -1 z "},"l":{"ha":440,"x_min":52,"x_max":391,"o":"m 224 -1 q 143 6 182 -1 q 79 26 104 13 q 54 58 54 39 l 54 60 q 73 427 73 245 q 52 886 73 633 l 52 890 q 76 933 52 915 q 140 960 101 951 q 220 970 178 970 q 296 961 260 970 q 354 932 332 951 q 376 884 376 913 l 376 878 q 361 541 361 716 q 391 73 361 314 l 391 67 q 367 28 391 43 q 304 6 342 14 q 224 -1 266 -1 z "},"m":{"ha":1213,"x_min":49,"x_max":1173,"o":"m 1009 -1 q 929 6 968 -1 q 867 26 891 13 q 843 58 843 39 l 843 60 q 854 243 852 149 q 856 426 856 336 l 856 493 q 842 544 856 527 q 810 561 827 561 q 770 537 789 561 q 751 468 751 514 q 757 257 751 378 q 771 73 763 137 l 772 67 q 748 28 772 43 q 686 6 724 14 q 608 -1 648 -1 q 528 6 566 -1 q 466 26 490 13 q 441 58 441 39 l 441 60 q 452 243 450 149 q 454 426 454 336 l 454 493 q 439 543 454 526 q 404 560 423 560 q 367 541 384 560 q 350 480 350 521 l 350 446 q 378 73 350 286 l 379 67 q 355 28 379 43 q 293 6 331 14 q 215 -1 256 -1 q 135 6 174 -1 q 73 26 97 13 q 49 58 49 39 l 49 60 q 70 411 70 258 q 54 724 70 550 l 54 728 q 78 771 54 753 q 139 799 102 789 q 216 808 176 808 q 287 799 253 808 q 343 771 321 790 q 364 722 364 752 q 364 711 364 713 q 363 704 363 709 q 441 769 397 748 q 530 791 484 791 q 644 753 590 791 q 728 644 698 716 q 818 754 763 718 q 930 791 872 791 q 1038 758 987 791 q 1121 662 1089 726 q 1154 506 1154 598 q 1152 460 1154 484 q 1150 397 1150 432 q 1158 217 1150 310 q 1173 73 1166 124 l 1173 67 q 1149 28 1173 43 q 1087 6 1125 14 q 1009 -1 1050 -1 z "},"n":{"ha":825,"x_min":47,"x_max":785,"o":"m 618 -1 q 537 6 576 -1 q 473 26 498 13 q 448 58 448 39 l 448 60 q 459 243 457 149 q 461 426 461 336 l 461 493 q 445 543 461 526 q 410 560 429 560 q 373 541 389 560 q 355 480 356 521 l 355 454 q 384 73 355 290 l 385 67 q 360 28 385 43 q 297 6 336 14 q 217 -1 259 -1 q 136 6 175 -1 q 72 26 97 13 q 47 58 47 39 l 47 60 q 69 411 69 258 q 54 724 69 550 l 54 728 q 78 771 54 753 q 139 799 102 789 q 217 808 177 808 q 291 799 256 808 q 347 771 326 790 q 369 722 369 751 l 368 704 q 448 769 404 747 q 538 791 492 791 q 648 758 595 791 q 733 661 700 725 q 766 505 766 597 q 764 458 766 482 q 762 395 762 429 q 770 216 762 308 q 785 73 778 123 l 785 67 q 761 28 785 43 q 698 6 736 14 q 618 -1 660 -1 z "},"o":{"ha":820,"x_min":31,"x_max":790,"o":"m 412 -9 q 273 17 341 -9 q 150 94 205 43 q 63 222 96 146 q 31 401 31 299 q 91 634 33 542 q 231 763 146 720 q 410 806 317 806 q 549 781 481 806 q 671 706 617 756 q 758 582 726 656 q 790 408 790 507 q 729 167 788 262 q 590 35 675 79 q 412 -9 505 -9 m 410 363 q 457 401 436 363 q 479 513 477 439 q 457 607 479 576 q 411 638 436 638 q 364 607 385 638 q 342 514 342 576 q 365 401 345 438 q 410 363 385 363 z "},"p":{"ha":862,"x_min":53,"x_max":839,"o":"m 429 424 q 465 439 450 424 q 486 478 479 454 q 492 526 492 501 q 482 579 492 555 q 452 603 471 603 q 365 515 415 603 l 363 455 q 429 424 402 424 m 226 -163 q 144 -156 183 -163 q 80 -136 105 -149 q 56 -104 56 -123 l 56 -102 q 74 264 74 83 q 53 724 74 471 l 53 727 q 78 770 53 752 q 141 798 102 788 q 221 807 180 807 q 316 791 273 807 q 374 743 359 776 q 548 809 461 809 q 664 777 611 809 q 756 693 718 745 q 817 578 795 642 q 839 452 839 515 l 839 438 q 816 332 837 388 q 758 227 795 276 q 667 145 720 177 q 546 113 614 113 q 368 170 461 113 q 392 -90 376 41 l 393 -96 q 368 -134 393 -119 q 306 -156 344 -149 q 226 -163 267 -163 z "},"q":{"ha":896,"x_min":27,"x_max":850,"o":"m 683 -163 q 602 -156 641 -163 q 538 -136 563 -149 q 513 -104 513 -123 l 513 -102 q 531 211 530 55 q 279 102 392 102 q 170 132 217 102 q 91 212 123 162 q 43 326 60 262 q 27 454 27 389 q 44 583 27 520 q 93 696 60 646 q 177 777 126 747 q 294 807 227 807 q 512 739 392 807 q 572 789 523 771 q 679 806 621 806 q 754 798 719 806 q 812 770 790 789 q 835 722 835 751 l 835 715 q 820 380 820 555 q 850 -90 820 153 l 850 -96 q 826 -134 850 -119 q 763 -156 802 -149 q 683 -163 725 -163 m 425 420 q 525 501 465 420 l 522 562 q 460 587 486 587 q 419 571 435 587 q 394 531 402 555 q 385 484 385 507 q 395 439 385 458 q 425 420 406 420 z "},"r":{"ha":813,"x_min":47,"x_max":800,"o":"m 217 -1 q 136 6 175 -1 q 72 26 97 13 q 47 58 47 39 l 47 60 q 69 411 69 258 q 54 724 69 550 l 54 728 q 78 771 54 753 q 139 799 102 789 q 217 808 177 808 q 291 799 256 808 q 347 771 326 790 q 369 722 369 751 l 368 701 q 453 779 405 750 q 555 807 502 807 q 680 766 625 805 q 767 668 734 727 q 800 551 800 609 q 770 464 799 499 q 701 410 742 428 q 619 392 659 392 q 559 406 585 392 q 525 450 533 420 q 519 481 522 465 q 507 533 517 511 q 461 556 497 555 q 414 538 438 556 q 372 482 389 520 q 355 383 355 444 q 363 243 355 317 q 384 73 371 168 l 385 67 q 360 28 385 43 q 297 6 336 14 q 217 -1 259 -1 z "},"s":{"ha":762,"x_min":22,"x_max":739,"o":"m 359 -5 q 212 19 275 -5 q 106 82 149 43 q 43 168 64 121 q 22 259 22 214 q 41 336 22 301 q 95 392 59 371 q 186 413 132 413 l 195 413 q 228 398 220 412 q 269 354 245 367 q 313 342 292 342 q 353 352 337 342 q 370 376 370 363 l 370 378 q 333 421 366 411 q 254 435 300 432 q 172 448 212 439 q 102 483 131 457 q 67 563 73 509 l 66 583 q 94 682 66 640 q 169 754 122 725 q 273 797 215 783 q 390 812 330 812 q 531 789 465 812 q 640 721 598 766 q 682 606 682 675 l 682 599 q 634 546 678 564 q 538 528 589 528 q 461 541 494 528 q 425 579 428 553 q 391 667 418 667 q 364 642 376 667 q 352 585 352 616 q 361 540 352 562 q 391 504 370 518 q 448 490 412 490 l 467 490 q 567 486 519 490 q 654 464 616 481 q 716 407 693 446 q 739 296 739 367 q 648 90 739 175 q 530 21 602 47 q 359 -5 458 -5 z "},"t":{"ha":695,"x_min":4,"x_max":677,"o":"m 397 0 q 219 45 275 0 q 146 176 163 90 q 132 367 132 255 q 134 549 132 436 q 45 537 84 548 l 37 536 q 12 558 20 536 q 4 610 4 581 q 13 673 4 644 q 38 703 22 703 l 42 703 q 134 690 81 691 q 123 893 133 787 l 123 897 q 149 939 123 921 q 216 967 175 957 q 300 977 256 977 q 388 965 346 977 q 456 928 429 954 q 483 863 483 903 q 479 823 483 844 q 470 774 475 801 q 455 690 463 739 q 558 703 514 690 l 562 703 q 587 673 578 703 q 596 610 596 644 q 588 558 596 581 q 563 536 581 536 l 555 537 q 441 550 506 550 q 438 447 438 504 q 475 398 438 398 q 530 414 494 398 q 553 420 541 420 q 638 356 598 420 q 677 214 677 292 q 617 67 677 125 q 397 0 546 0 z "},"u":{"ha":832,"x_min":37,"x_max":787,"o":"m 620 -1 q 539 6 578 -1 q 475 26 500 13 q 450 58 450 39 l 454 96 q 373 24 418 48 q 281 0 328 0 q 172 36 224 0 q 89 140 121 73 q 56 300 56 207 q 58 347 56 323 q 60 412 60 376 q 52 590 60 498 q 37 734 44 682 l 37 739 q 61 777 37 762 q 124 800 85 792 q 203 807 162 807 q 285 800 246 807 q 349 780 324 793 q 374 748 374 766 l 374 745 q 363 595 365 660 q 361 455 361 531 l 361 393 q 376 341 361 358 q 412 323 392 323 q 453 346 433 323 q 472 411 472 368 q 456 724 472 551 l 456 728 q 480 771 456 753 q 542 798 505 789 q 621 808 580 808 q 694 799 659 808 q 751 771 729 790 q 772 722 772 751 l 772 715 q 757 444 757 568 q 787 73 757 285 l 787 67 q 763 28 787 43 q 700 6 739 14 q 620 -1 662 -1 z "},"v":{"ha":871,"x_min":-5,"x_max":869,"o":"m 429 1 q 287 17 351 1 q 208 66 222 34 q 112 359 151 228 q 1 683 67 517 q -5 713 -5 700 q 25 767 -5 747 q 101 798 55 788 q 197 807 148 807 q 309 793 259 807 q 365 757 358 780 q 393 567 381 670 l 403 497 q 432 404 416 404 q 461 498 448 404 l 465 530 q 499 757 480 654 q 555 793 506 780 q 667 807 604 807 q 762 798 715 807 q 839 767 808 788 q 869 713 869 747 q 862 683 869 700 q 751 359 797 516 q 656 66 713 227 q 574 17 641 33 q 429 1 507 1 z "},"w":{"ha":1026,"x_min":39,"x_max":984,"o":"m 735 1 q 649 25 691 1 q 573 100 607 49 q 519 234 540 152 q 475 103 507 155 q 397 27 443 52 q 303 2 352 2 q 186 37 243 2 q 93 139 130 73 q 57 300 57 205 l 58 332 q 60 404 60 366 q 53 587 60 492 q 39 733 45 681 l 39 739 q 62 778 39 762 q 119 800 84 793 q 193 807 154 807 q 268 800 232 807 q 327 780 304 793 q 350 747 350 766 l 350 745 q 340 661 345 683 q 339 650 340 655 q 338 617 338 644 l 338 564 q 355 507 338 528 q 390 486 371 486 q 423 506 408 486 q 446 649 446 538 q 442 697 446 672 q 437 738 437 722 q 463 777 437 764 q 521 790 490 790 q 575 778 551 790 q 599 739 599 765 q 594 696 598 720 q 590 650 590 672 q 613 506 590 538 q 644 486 627 486 q 679 507 663 486 q 694 564 694 528 l 694 617 q 694 640 694 632 q 694 651 694 647 q 692 662 693 655 q 689 686 691 668 q 683 745 687 705 l 683 747 q 705 780 683 766 q 763 800 728 793 q 836 807 798 807 q 907 800 873 807 q 963 778 941 793 q 984 739 984 762 l 984 733 q 970 589 978 682 q 963 409 963 496 q 966 332 963 368 l 967 302 q 933 144 967 212 q 846 39 899 77 q 735 1 793 1 z "},"x":{"ha":857,"x_min":12,"x_max":847,"o":"m 224 0 q 134 24 181 0 q 53 79 87 48 q 12 134 18 111 q 210 370 77 219 l 214 374 q 226 388 222 382 q 230 399 230 394 q 214 425 230 409 q 45 612 122 524 q 16 678 16 648 q 43 736 16 711 q 112 780 69 762 q 205 804 154 798 q 235 806 220 806 q 294 786 280 806 q 391 660 330 732 l 406 641 q 425 622 418 622 q 446 642 433 622 l 457 656 q 559 787 520 732 q 615 807 576 807 q 648 804 631 807 q 741 778 699 796 q 808 734 783 760 q 834 676 834 708 q 804 610 834 645 q 633 419 640 426 q 619 400 619 407 q 632 382 619 393 l 645 368 q 847 131 780 219 q 805 77 840 107 q 724 24 771 47 q 633 1 677 1 q 566 30 590 1 q 466 148 518 89 l 452 164 q 429 185 437 185 q 408 165 421 185 l 392 146 q 292 28 340 87 q 224 0 267 0 z "},"y":{"ha":852,"x_min":39,"x_max":800,"o":"m 433 -179 l 414 -179 q 242 -157 311 -179 q 131 -99 172 -135 q 71 -19 89 -62 q 52 67 52 24 q 84 179 52 131 q 161 227 117 227 q 211 208 185 227 q 312 174 258 174 q 433 223 378 174 q 494 363 488 272 l 494 383 q 488 415 494 415 q 457 374 479 415 q 371 280 420 313 q 269 248 321 248 q 148 279 196 248 q 75 361 99 311 q 51 469 51 412 l 52 492 q 54 544 54 518 q 43 701 54 605 l 39 741 q 61 780 39 765 q 191 808 103 808 q 299 794 250 808 q 349 756 349 780 q 348 712 349 746 q 345 639 347 678 q 344 576 344 600 q 358 517 344 537 q 392 496 373 496 q 433 526 414 496 q 452 617 452 555 q 445 692 452 650 q 444 709 444 701 q 470 766 444 744 q 538 799 496 789 q 625 810 580 810 q 709 801 669 810 q 774 774 749 791 q 800 734 800 758 l 800 730 q 783 292 783 554 q 785 132 783 205 l 785 119 q 755 -12 785 43 q 674 -104 724 -67 q 561 -159 623 -140 q 433 -179 498 -178 z "},"z":{"ha":786,"x_min":17,"x_max":760,"o":"m 245 0 q 90 37 146 0 q 34 128 34 73 q 56 197 34 161 q 176 387 109 284 q 299 578 238 481 q 317 621 317 607 q 298 637 317 637 l 295 637 q 239 624 273 637 q 177 595 205 610 q 141 574 149 581 q 102 559 121 559 q 59 580 79 559 q 28 631 40 600 q 17 696 17 663 q 27 750 17 724 q 61 791 38 775 q 121 806 83 806 l 170 805 q 288 802 221 802 q 486 805 331 802 q 553 800 514 805 q 628 781 591 794 q 689 746 665 768 q 713 692 713 724 q 690 628 713 664 q 611 514 647 563 q 530 400 574 465 q 507 348 507 364 q 531 330 507 330 q 571 338 548 330 q 612 355 593 346 q 637 370 631 365 q 670 386 654 386 q 715 354 695 386 q 748 272 736 321 q 760 172 760 223 q 749 89 760 127 q 715 25 739 50 q 652 1 691 1 q 632 1 642 1 q 538 3 600 3 q 388 2 467 3 q 245 0 309 0 z "},"{":{"ha":602,"x_min":37,"x_max":568,"o":"m 528 -155 l 374 -155 q 269 -125 307 -155 q 213 -48 231 -96 q 189 58 195 -1 q 183 176 184 116 q 178 270 182 225 q 164 351 175 315 q 132 407 154 386 q 70 427 109 427 q 45 446 54 427 q 37 486 37 464 q 45 525 37 507 q 69 543 53 543 l 75 543 q 133 563 112 543 q 163 617 154 583 q 176 695 173 652 q 179 787 178 739 q 184 907 180 848 q 207 1016 189 966 q 264 1095 225 1065 q 374 1124 304 1124 l 528 1125 q 557 1100 547 1125 q 568 1048 568 1075 q 561 1013 568 1028 q 538 997 554 997 q 513 1002 525 998 q 443 1014 472 1014 q 395 989 410 1014 q 378 899 379 964 q 385 793 378 851 q 393 669 393 730 q 381 572 393 617 q 336 497 369 526 q 325 489 329 492 q 321 486 321 487 q 325 481 321 484 q 334 474 329 479 q 380 399 368 445 q 393 300 393 354 q 385 178 393 240 q 378 71 378 119 q 395 -19 379 6 q 443 -43 410 -43 q 513 -32 472 -43 q 538 -27 534 -27 q 561 -42 554 -27 q 568 -78 568 -58 q 557 -130 568 -104 q 528 -155 547 -155 z "},"|":{"ha":761,"x_min":305,"x_max":456,"o":"m 378 -155 q 328 -144 351 -155 q 305 -111 305 -134 l 305 -106 q 314 128 311 -38 q 317 484 317 294 q 314 839 317 673 q 305 1074 311 1005 l 305 1078 q 329 1113 305 1101 q 380 1124 352 1124 q 432 1113 409 1124 q 456 1078 456 1101 l 456 1074 q 447 839 450 1005 q 444 484 444 673 q 447 128 444 294 q 456 -106 450 -38 l 456 -111 q 443 -138 456 -129 q 411 -151 429 -148 q 378 -155 393 -155 z "},"}":{"ha":602,"x_min":34,"x_max":565,"o":"m 228 -155 l 74 -155 q 45 -130 56 -155 q 34 -78 34 -104 q 41 -42 34 -58 q 64 -27 48 -27 q 89 -32 68 -27 q 159 -43 130 -43 q 206 -21 189 -43 q 224 71 223 1 q 217 178 224 119 q 210 300 210 240 q 222 399 210 354 q 268 474 234 445 q 277 481 273 479 q 281 486 281 484 q 277 489 281 487 q 267 497 273 492 q 221 572 233 526 q 210 669 210 617 q 217 793 210 730 q 224 899 224 851 q 206 991 223 969 q 159 1014 189 1014 q 88 1002 130 1014 q 64 997 77 998 q 41 1013 48 997 q 34 1048 34 1028 q 45 1100 34 1075 q 74 1125 56 1125 l 228 1124 q 338 1095 298 1124 q 395 1016 377 1065 q 418 907 413 966 q 423 787 422 848 q 427 695 424 739 q 439 617 429 652 q 469 563 448 583 q 527 543 490 543 l 533 543 q 557 525 549 543 q 565 486 565 507 q 557 446 565 464 q 532 427 549 427 q 471 407 493 427 q 438 351 448 386 q 424 270 427 315 q 419 176 420 225 q 413 58 418 116 q 390 -48 408 -1 q 334 -125 372 -96 q 228 -155 296 -155 z "},"~":{"ha":585,"x_min":34,"x_max":551,"o":"m 108 368 l 105 368 q 51 388 67 369 q 34 435 34 407 q 54 506 34 469 q 107 569 74 543 q 179 595 140 595 q 230 583 203 595 q 284 556 257 571 q 335 531 311 542 q 379 520 359 520 q 431 579 420 520 q 444 597 434 591 q 467 602 454 602 q 486 600 476 602 q 535 569 519 592 q 551 515 551 545 q 533 448 551 482 q 487 391 516 414 q 418 368 457 368 q 381 377 404 368 q 332 399 359 387 q 269 427 300 414 q 212 439 237 439 q 169 393 172 439 q 149 375 168 382 q 108 368 131 368 z "},"¡":{"ha":393,"x_min":34,"x_max":359,"o":"m 197 441 q 81 472 129 441 q 34 546 34 503 q 81 619 34 589 q 197 650 129 650 q 311 619 264 650 q 359 546 359 589 q 311 472 359 503 q 197 441 264 441 m 197 -319 q 121 -312 157 -319 q 63 -292 85 -304 q 40 -260 40 -279 l 40 -257 q 58 61 58 -94 q 49 332 58 193 l 49 335 q 72 379 49 361 q 131 406 95 397 q 205 416 167 416 q 275 407 242 416 q 330 378 309 397 q 351 329 351 359 l 351 323 q 339 31 339 177 q 353 -245 339 -104 l 353 -250 q 330 -289 353 -274 q 272 -311 307 -304 q 197 -319 236 -319 z "},"¢":{"ha":865,"x_min":34,"x_max":831,"o":"m 430 -173 q 377 -163 401 -173 q 352 -137 352 -154 l 353 -134 q 376 5 364 -72 q 187 84 263 24 q 73 232 111 145 q 34 410 34 318 q 60 555 34 484 q 138 682 85 625 q 269 771 190 738 q 456 804 349 804 q 462 942 460 881 q 483 970 463 961 q 528 979 503 979 q 588 966 559 979 q 616 932 616 954 q 614 924 616 928 q 586 785 602 877 q 697 721 654 763 q 739 624 739 680 q 701 553 738 575 q 629 532 668 532 q 571 545 597 532 q 538 585 545 559 q 469 648 524 647 q 411 629 435 648 q 375 580 387 610 q 363 515 363 549 q 377 445 363 479 q 421 388 391 410 q 500 363 453 363 q 555 377 526 363 q 604 418 585 391 q 647 437 618 437 q 725 413 682 437 q 800 348 768 388 q 831 258 831 307 q 806 182 831 221 q 664 55 745 98 q 500 3 584 12 q 497 -104 497 -60 l 498 -135 q 477 -164 498 -155 q 430 -173 456 -173 z "},"£":{"ha":886,"x_min":34,"x_max":852,"o":"m 451 -10 q 280 -7 346 -10 q 183 11 214 -3 q 152 60 152 26 q 200 195 152 98 q 256 383 256 306 q 255 409 256 396 q 79 396 163 405 q 45 420 57 396 q 34 471 34 444 q 43 510 34 492 q 73 527 52 527 l 210 527 q 142 726 142 641 q 244 908 142 840 q 469 970 337 970 q 697 905 603 970 q 800 703 800 832 q 778 656 800 678 q 723 620 755 634 q 660 606 690 606 q 611 622 631 606 q 591 672 591 637 q 570 747 591 721 q 522 774 549 774 q 481 755 501 774 q 450 696 462 737 q 431 548 431 629 q 431 527 431 537 l 617 527 q 648 506 638 527 q 657 461 657 486 q 649 419 657 438 q 624 401 641 401 q 446 411 542 410 q 572 275 481 275 q 684 320 618 275 q 755 349 724 349 q 810 321 788 349 q 842 250 831 293 q 852 159 852 206 q 851 123 852 140 q 451 -10 836 -10 z "},"¤":{"ha":545,"x_min":34,"x_max":511,"o":"m 458 230 q 440 238 448 230 l 365 317 q 273 292 321 292 q 180 317 224 292 l 106 238 q 88 230 98 230 q 52 251 69 230 q 34 290 34 271 q 41 306 34 299 q 120 377 77 336 q 94 485 94 419 q 121 592 94 549 q 41 664 77 633 q 34 680 34 671 q 52 719 34 699 q 88 740 69 740 q 106 732 98 740 l 181 652 q 274 677 225 677 q 365 653 321 677 l 440 732 q 458 740 448 740 q 494 719 476 740 q 511 680 511 699 q 505 664 511 671 q 425 591 469 633 q 452 490 450 551 l 452 478 q 426 377 452 418 q 505 306 469 336 q 511 290 511 299 q 494 251 511 271 q 458 230 476 230 m 273 372 q 295 387 285 372 q 305 433 305 401 q 294 485 304 467 q 273 502 284 502 q 251 485 261 502 q 241 430 241 467 q 251 387 241 401 q 273 372 260 372 z "},"¥":{"ha":911,"x_min":34,"x_max":878,"o":"m 457 -5 q 313 22 362 -5 q 288 56 288 35 q 298 183 294 121 q 196 174 245 180 q 162 198 174 174 q 151 248 151 222 q 160 288 151 271 q 190 305 169 305 l 304 305 l 304 347 q 196 338 249 343 q 162 361 174 338 q 151 412 151 385 q 160 451 151 434 q 190 469 169 469 l 264 469 q 61 749 153 618 q 34 824 34 791 q 119 932 34 890 q 274 970 195 970 q 326 962 304 970 q 350 940 347 955 q 456 671 404 671 q 562 940 509 671 q 586 962 565 955 q 637 970 607 970 q 793 932 717 970 q 878 824 878 890 q 850 749 878 791 q 659 486 764 625 l 646 469 l 733 469 q 764 448 754 469 q 774 403 774 427 q 766 361 774 380 q 742 342 758 342 q 598 352 673 350 q 601 305 599 329 l 733 305 q 764 284 754 305 q 774 239 774 264 q 766 198 774 216 q 742 179 758 179 q 610 188 679 186 q 625 63 616 127 q 600 24 625 39 q 537 2 576 9 q 457 -5 499 -5 z "},"¦":{"ha":218,"x_min":34,"x_max":184,"o":"m 106 485 q 57 490 79 485 q 34 504 34 494 l 34 506 q 43 607 40 535 q 46 760 46 678 q 43 912 46 841 q 34 1013 40 983 l 34 1015 q 57 1030 34 1025 q 109 1035 81 1035 q 161 1030 138 1035 q 184 1015 184 1025 l 184 1013 q 175 912 178 983 q 172 760 172 841 q 175 607 172 678 q 184 506 178 535 l 184 504 q 171 492 184 496 q 140 486 158 488 q 106 485 121 485 m 106 -284 q 57 -280 79 -284 q 34 -265 34 -275 l 34 -263 q 43 -163 40 -234 q 46 -9 46 -92 q 43 143 46 72 q 34 244 40 214 l 34 245 q 57 261 34 256 q 109 266 81 266 q 161 261 138 266 q 184 245 184 256 l 184 244 q 175 143 178 214 q 172 -9 172 72 q 175 -163 172 -92 q 184 -263 178 -234 l 184 -265 q 171 -277 184 -273 q 140 -283 158 -281 q 106 -284 121 -284 z "},"§":{"ha":833,"x_min":34,"x_max":799,"o":"m 391 -155 q 234 -130 301 -155 q 122 -66 167 -106 q 56 21 78 -26 q 34 115 34 68 q 53 194 34 157 q 112 252 73 231 q 209 274 151 274 l 220 274 q 255 259 246 273 q 295 217 272 229 q 342 204 318 204 q 394 219 372 204 q 417 250 417 233 l 417 251 q 377 298 414 286 q 287 313 340 309 q 195 328 241 317 q 117 366 149 338 q 79 452 85 394 l 78 471 q 151 624 78 560 q 111 711 117 652 l 111 730 q 139 831 111 787 q 216 907 168 876 q 325 954 264 938 q 450 970 386 970 q 559 958 506 970 q 652 920 611 945 q 743 764 743 865 q 696 696 743 718 q 606 676 653 676 q 541 689 568 676 q 510 728 513 701 q 494 797 506 777 q 469 818 483 818 q 430 800 446 818 q 414 757 414 782 q 437 702 414 730 q 515 656 460 673 q 578 638 546 646 q 660 615 621 629 q 730 579 699 602 q 780 517 762 556 q 799 416 799 479 q 747 258 798 334 q 766 159 766 220 q 740 43 766 100 q 666 -56 714 -12 q 549 -127 618 -100 q 391 -155 479 -155 m 376 463 q 428 478 406 465 q 450 509 450 492 q 429 547 449 534 q 378 565 409 559 q 342 548 355 562 q 329 517 329 534 q 340 488 329 503 q 376 463 351 473 z "},"¨":{"ha":469,"x_min":34,"x_max":435,"o":"m 129 882 q 64 904 94 882 q 34 971 35 926 q 48 1021 34 1001 q 84 1051 62 1041 q 130 1061 106 1061 q 194 1039 165 1061 q 224 970 224 1017 q 211 921 224 941 q 175 892 197 902 q 129 882 153 882 m 338 882 q 274 904 303 882 q 243 971 244 926 q 257 1021 243 1001 q 293 1051 271 1041 q 340 1061 315 1061 q 403 1040 374 1061 q 435 970 434 1016 q 421 922 435 941 q 385 892 407 902 q 338 882 363 882 z "},"©":{"ha":1028,"x_min":34,"x_max":995,"o":"m 514 14 q 334 48 422 14 q 174 151 245 83 q 69 308 104 221 q 34 485 34 394 q 69 662 34 576 q 174 819 104 749 q 334 922 245 887 q 514 956 422 956 q 694 922 606 956 q 853 818 782 887 q 959 662 924 749 q 995 485 995 576 q 959 308 995 395 q 853 152 924 221 q 694 48 782 83 q 514 14 606 14 m 520 168 q 398 195 450 168 q 311 269 346 222 q 258 372 275 315 q 240 490 240 429 q 257 605 240 549 q 310 705 275 661 q 398 776 345 749 q 524 802 452 802 q 628 783 579 802 q 707 729 677 764 q 737 650 737 694 q 721 606 737 625 q 682 576 705 587 q 637 566 659 566 q 600 577 615 566 q 582 614 585 589 q 565 665 578 648 q 530 682 551 682 q 490 666 506 682 q 466 626 474 651 q 458 572 458 601 q 469 505 458 538 q 502 450 480 471 q 555 428 524 428 q 620 471 595 429 q 648 483 627 483 q 705 468 672 483 q 764 427 739 453 q 789 366 789 401 q 774 317 789 343 q 701 231 743 264 q 612 182 659 197 q 520 168 565 168 m 514 100 q 663 129 590 100 q 793 213 735 157 q 880 340 851 270 q 909 485 909 411 q 880 629 909 559 q 793 756 851 700 q 663 842 735 813 q 514 870 590 870 q 366 842 438 870 q 235 756 293 813 q 149 629 177 700 q 120 485 120 559 q 149 340 120 411 q 235 213 177 270 q 366 129 293 157 q 514 100 438 100 z "},"ª":{"ha":598,"x_min":34,"x_max":564,"o":"m 184 548 q 81 579 124 548 q 34 661 37 610 l 34 663 q 70 736 34 701 q 187 794 106 772 q 247 814 218 802 q 296 849 276 827 q 315 906 315 871 q 292 941 315 939 q 266 922 279 941 q 248 858 252 902 q 224 831 245 840 q 176 823 203 823 q 108 837 141 823 q 74 882 75 851 q 107 965 74 931 q 191 1017 140 999 q 294 1035 241 1035 q 420 1017 363 1035 q 511 956 477 998 q 545 843 545 914 q 564 593 545 732 l 564 590 q 530 558 564 568 q 454 549 496 549 q 377 558 412 549 q 342 585 342 568 l 347 623 q 268 566 311 584 q 184 548 225 548 m 299 730 q 327 740 312 730 q 354 772 342 749 q 355 810 354 791 l 327 793 q 289 769 304 781 q 273 748 273 758 q 281 735 273 741 q 299 730 288 730 m 427 236 l 425 236 q 299 248 361 248 q 174 236 237 248 l 172 236 q 155 259 161 236 q 149 311 149 282 q 156 366 149 340 q 179 392 163 392 l 419 392 q 443 367 435 392 q 450 311 450 341 q 444 259 450 282 q 427 236 438 236 z "},"«":{"ha":756,"x_min":34,"x_max":722,"o":"m 275 230 q 246 243 258 230 q 87 410 143 366 q 34 498 34 454 q 66 564 34 530 q 109 602 85 582 q 242 726 149 633 q 276 740 257 740 q 332 720 303 740 q 380 671 361 699 q 400 621 400 643 q 389 595 400 605 q 307 534 337 555 q 267 504 283 517 q 236 473 250 490 l 349 361 q 365 322 365 343 q 334 259 365 289 q 275 230 304 230 m 597 230 q 568 243 581 230 q 409 410 465 366 q 356 498 356 454 q 388 564 356 530 q 431 602 407 582 q 564 726 471 633 q 599 740 580 740 q 654 720 625 740 q 703 671 683 699 q 722 621 722 643 q 711 595 722 605 q 630 534 659 555 q 589 504 606 517 q 558 473 572 490 l 671 361 q 687 322 687 343 q 656 259 687 289 q 597 230 626 230 z "},"¬":{"ha":576,"x_min":34,"x_max":542,"o":"m 460 291 q 409 303 432 291 q 386 338 386 315 l 386 342 q 397 523 395 433 q 289 527 340 527 q 85 515 200 527 l 82 515 q 46 540 59 515 q 34 596 34 566 q 48 653 34 627 q 92 679 62 679 l 96 679 q 340 668 233 668 q 438 671 390 668 l 458 671 q 515 659 498 671 q 537 618 533 646 q 542 545 542 591 l 542 353 q 516 306 542 321 q 460 291 490 291 z "},"®":{"ha":1028,"x_min":34,"x_max":995,"o":"m 513 14 q 333 48 421 14 q 175 152 245 83 q 69 308 104 221 q 34 485 34 394 q 69 662 34 576 q 175 818 104 749 q 333 922 245 887 q 513 956 421 956 q 694 922 606 956 q 853 819 782 887 q 959 662 924 749 q 995 485 995 576 q 959 308 995 395 q 853 151 924 221 q 694 48 782 83 q 513 14 606 14 m 486 544 q 505 554 490 544 q 526 578 519 564 q 534 608 534 593 q 513 658 534 635 q 491 673 498 673 q 484 665 486 673 q 481 644 482 656 q 479 574 479 612 q 480 549 479 553 q 486 544 481 544 m 646 178 q 585 187 611 178 q 557 216 559 197 l 554 264 q 550 333 553 300 q 535 388 547 366 q 497 409 523 409 l 486 408 q 502 224 490 317 l 502 220 q 469 188 502 198 q 397 178 436 178 q 322 187 356 178 q 289 214 289 197 l 289 216 q 300 448 300 333 q 287 740 300 596 l 287 742 q 321 779 287 766 q 394 792 355 792 q 436 788 416 792 q 507 793 475 793 q 646 763 590 793 q 731 687 702 733 q 760 591 760 641 q 739 513 760 551 q 676 450 718 475 q 733 385 715 423 q 760 311 751 347 q 777 262 767 283 q 781 243 781 252 q 761 207 781 222 q 709 185 740 193 q 646 178 677 178 m 513 100 q 662 129 589 100 q 792 213 734 157 q 879 340 850 270 q 908 485 908 411 q 879 629 908 559 q 792 756 850 700 q 662 842 734 813 q 513 870 589 870 q 366 842 438 870 q 235 756 293 813 q 148 629 176 700 q 119 485 119 559 q 148 340 119 411 q 235 213 176 270 q 366 129 293 157 q 513 100 438 100 z "},"¯":{"ha":671,"x_min":34,"x_max":637,"o":"m 590 715 l 587 716 q 336 728 460 728 q 85 716 211 728 l 81 715 q 46 739 58 715 q 34 791 34 762 q 49 846 34 821 q 96 872 64 872 l 576 872 q 623 846 608 872 q 637 791 637 821 q 625 739 637 762 q 590 715 613 715 z "},"°":{"ha":477,"x_min":34,"x_max":444,"o":"m 239 537 q 141 562 189 537 q 64 636 94 587 q 34 758 34 685 q 64 879 35 831 q 139 951 93 927 q 238 975 186 975 q 337 951 290 975 q 414 880 384 927 q 444 761 444 832 q 413 636 441 686 q 338 562 385 587 q 239 537 292 537 m 239 737 q 263 758 252 737 q 275 818 275 778 q 264 868 275 852 q 239 885 253 885 q 214 868 225 885 q 202 818 202 851 q 214 757 203 777 q 239 737 224 737 z "},"±":{"ha":672,"x_min":34,"x_max":638,"o":"m 340 183 q 291 190 315 183 q 253 210 268 196 q 237 245 237 223 l 237 418 q 85 407 162 414 l 81 407 q 46 430 58 407 q 34 481 34 453 q 49 537 34 512 q 96 563 64 563 l 237 563 l 237 725 q 253 760 237 747 q 291 780 268 774 q 340 787 315 787 q 405 774 376 787 q 434 740 434 762 l 434 736 q 420 563 424 650 l 576 563 q 623 537 608 563 q 638 481 638 512 q 626 430 638 453 q 591 407 614 407 l 587 407 q 420 418 503 416 q 434 234 423 326 l 434 230 q 405 195 434 208 q 340 183 376 183 m 590 0 l 587 0 q 336 12 460 12 q 85 0 211 12 l 81 0 q 46 23 58 0 q 34 75 34 46 q 49 131 34 105 q 96 156 64 156 l 576 156 q 623 131 608 156 q 637 75 637 105 q 625 23 637 46 q 590 0 613 0 z "},"²":{"ha":467,"x_min":34,"x_max":433,"o":"m 204 798 q 230 852 230 825 q 227 864 230 861 q 212 866 224 866 q 202 863 205 866 q 199 847 199 859 q 203 830 199 840 q 207 812 207 821 q 204 798 207 804 m 201 483 q 121 490 160 483 q 58 511 83 496 q 34 549 34 526 q 102 713 34 648 q 170 770 125 735 q 114 758 144 758 q 77 764 96 758 q 46 780 58 769 q 34 807 34 791 q 100 933 34 888 q 241 975 161 975 q 327 960 286 975 q 394 917 368 945 q 421 849 421 889 q 335 726 417 767 q 271 697 301 708 q 224 673 229 681 q 321 705 274 673 q 359 718 342 718 q 402 695 386 718 q 426 640 418 672 q 433 580 433 608 q 432 562 433 571 q 393 519 429 536 q 305 492 357 501 q 201 483 252 483 z "},"³":{"ha":461,"x_min":34,"x_max":427,"o":"m 211 669 q 236 676 225 669 q 246 699 246 683 q 231 722 246 716 q 191 728 215 728 q 141 723 172 728 q 187 692 187 718 l 186 686 q 208 669 186 669 l 211 669 m 233 482 q 139 502 184 482 q 64 562 94 522 q 34 661 34 602 l 35 675 q 71 710 39 697 q 132 724 102 724 l 134 724 q 119 734 124 725 q 113 755 113 745 q 123 787 113 770 q 155 806 134 804 q 216 818 176 808 q 264 835 264 829 q 235 837 264 837 q 181 831 209 837 q 140 817 153 826 q 97 801 116 801 q 62 815 76 801 q 41 851 48 830 q 34 891 34 872 q 36 911 34 901 q 106 954 44 937 q 235 970 168 970 q 411 873 411 970 q 387 825 411 845 q 317 780 356 800 q 397 727 370 761 q 427 650 427 692 q 398 558 426 595 q 325 502 370 521 q 233 482 281 482 z "},"´":{"ha":324,"x_min":34,"x_max":290,"o":"m 88 882 q 50 903 66 882 q 34 939 34 924 q 37 949 34 945 q 119 1062 80 1003 q 164 1125 144 1097 q 194 1138 176 1138 q 257 1113 224 1138 q 290 1061 290 1088 q 195 951 290 1036 q 106 887 146 910 q 88 882 97 882 z "},"µ":{"ha":819,"x_min":34,"x_max":785,"o":"m 212 -216 q 130 -209 170 -216 q 66 -189 91 -202 q 41 -157 41 -176 l 41 -155 q 60 261 60 39 q 35 734 60 513 l 34 739 q 58 778 34 763 q 121 800 83 792 q 201 807 159 807 q 282 800 243 807 q 346 780 321 793 q 371 748 371 766 l 371 745 q 360 567 362 659 q 358 388 358 476 q 376 324 358 347 q 414 301 393 301 q 452 325 435 301 q 469 399 468 349 l 469 414 q 454 724 469 551 l 454 728 q 478 771 454 753 q 539 799 502 789 q 618 808 577 808 q 691 799 656 808 q 747 771 726 790 q 769 722 769 752 l 769 715 q 754 446 754 569 q 784 73 754 286 l 785 67 q 760 28 785 43 q 697 6 736 14 q 617 -1 659 -1 q 536 6 575 -1 q 472 26 497 13 q 448 58 448 39 l 451 96 q 359 19 411 43 q 378 -143 367 -52 l 378 -149 q 354 -187 378 -172 q 292 -209 330 -201 q 212 -216 254 -216 z "},"¶":{"ha":1223,"x_min":34,"x_max":1189,"o":"m 901 1 q 842 8 870 1 q 795 30 813 15 q 777 68 777 44 l 777 73 q 799 543 799 316 q 789 854 799 705 l 732 852 q 719 428 719 643 q 732 62 719 246 l 732 59 q 692 16 732 31 q 605 1 652 1 q 545 8 574 1 q 499 30 517 15 q 481 68 481 44 l 481 73 q 498 330 493 203 q 327 277 408 277 q 203 309 257 277 q 112 393 149 342 q 54 503 74 445 q 34 615 35 562 q 72 781 34 699 q 174 917 109 863 q 323 972 239 970 l 465 973 q 806 971 633 973 q 1149 970 979 970 q 1179 949 1170 970 q 1189 904 1189 928 q 1181 862 1189 881 q 1158 844 1173 844 q 1125 846 1143 844 q 1029 852 1087 850 q 1015 427 1015 642 q 1029 62 1015 245 l 1029 59 q 989 16 1029 31 q 901 1 949 1 z "},"·":{"ha":345,"x_min":34,"x_max":212,"o":"m 123 400 q 60 425 86 400 q 34 485 34 450 q 60 545 34 520 q 123 570 86 570 q 185 545 159 570 q 212 485 212 520 q 185 425 212 450 q 123 400 159 400 z "},"∙":{"ha":345,"x_min":34,"x_max":212,"o":"m 123 400 q 60 425 86 400 q 34 485 34 450 q 60 545 34 520 q 123 570 86 570 q 185 545 159 570 q 212 485 212 520 q 185 425 212 450 q 123 400 159 400 z "},"¸":{"ha":334,"x_min":34,"x_max":300,"o":"m 165 -241 q 85 -231 113 -241 q 45 -205 57 -221 q 34 -174 34 -190 q 48 -133 34 -151 q 73 -115 62 -115 l 77 -115 q 113 -125 98 -125 q 138 -118 129 -125 q 147 -103 147 -111 q 136 -88 147 -95 q 101 -81 125 -81 l 78 -82 q 60 -79 66 -82 q 53 -65 53 -75 q 57 -47 53 -58 q 102 35 67 -22 l 111 50 q 132 65 117 60 q 162 71 146 71 q 196 64 181 71 q 210 47 210 58 q 205 34 210 41 q 195 18 201 27 q 170 -26 170 -16 q 176 -32 170 -32 l 182 -32 q 249 -44 223 -32 q 288 -77 275 -56 q 300 -120 300 -97 q 283 -176 300 -149 q 236 -222 267 -204 q 165 -241 206 -241 z "},"¹":{"ha":383,"x_min":34,"x_max":349,"o":"m 252 484 q 189 494 218 484 q 161 524 161 505 q 169 689 169 607 q 166 786 169 724 q 147 762 159 776 q 100 740 122 740 q 65 753 80 740 q 42 786 50 767 q 34 823 34 806 q 45 856 34 840 q 79 874 56 872 q 112 887 100 876 q 131 914 123 898 q 156 948 140 932 q 241 972 180 972 q 287 968 261 972 q 331 954 313 964 q 349 925 349 944 l 349 530 q 334 504 349 514 q 296 489 319 494 q 252 484 274 484 z "},"º":{"ha":525,"x_min":34,"x_max":491,"o":"m 263 481 q 154 509 207 481 q 68 593 102 538 q 34 730 34 649 q 70 869 35 814 q 155 948 103 922 q 262 975 207 975 q 371 948 318 975 q 457 866 424 920 q 491 733 491 812 q 454 589 490 647 q 369 508 420 535 q 263 481 318 481 m 262 718 q 278 736 271 718 q 287 794 286 753 q 279 842 287 829 q 262 856 271 856 q 246 842 254 856 q 238 795 238 829 q 247 735 239 753 q 262 718 254 718 z "},"»":{"ha":756,"x_min":34,"x_max":722,"o":"m 159 230 q 100 259 130 230 q 69 322 69 289 q 85 361 69 343 l 198 473 q 167 504 184 490 q 126 534 151 517 q 45 595 97 555 q 34 621 34 605 q 54 671 34 643 q 102 720 73 699 q 158 740 131 740 q 192 726 177 740 q 325 602 286 633 q 368 564 349 582 q 400 498 400 530 q 347 410 400 454 q 188 243 291 366 q 159 230 176 230 m 481 230 q 422 259 452 230 q 391 322 391 289 q 408 361 391 343 l 520 473 q 490 504 506 490 q 449 534 473 517 q 368 595 419 555 q 356 621 356 605 q 376 671 356 643 q 425 720 396 699 q 480 740 453 740 q 514 726 499 740 q 647 602 608 633 q 690 564 671 582 q 722 498 722 530 q 669 410 722 454 q 510 243 613 366 q 481 230 498 230 z "},"¼":{"ha":996,"x_min":68,"x_max":928,"o":"m 286 484 q 223 494 252 484 q 195 524 195 505 q 203 689 203 607 q 200 786 203 724 q 181 762 193 776 q 134 740 156 740 q 99 753 114 740 q 76 786 84 767 q 68 823 68 806 q 79 856 68 840 q 113 874 90 872 q 145 887 134 876 q 165 914 157 898 q 190 948 174 932 q 275 972 214 972 q 321 968 295 972 q 365 954 347 964 q 383 925 383 944 l 383 530 q 368 504 383 514 q 330 489 353 494 q 286 484 308 484 m 375 7 q 302 28 337 7 q 278 59 278 43 q 279 66 278 63 q 449 496 369 267 q 583 930 528 725 q 627 955 590 955 q 646 954 636 955 q 704 931 677 947 q 731 893 731 914 l 730 888 q 727 878 730 884 q 556 471 654 741 q 420 33 458 201 q 375 7 414 7 m 759 300 l 759 335 l 760 389 q 733 311 739 321 l 727 300 l 759 300 m 831 0 q 767 10 795 0 q 739 40 739 20 q 746 153 743 84 q 748 157 746 155 l 747 157 q 628 157 745 157 q 560 195 580 157 q 552 224 552 211 q 557 248 552 236 q 621 369 595 316 q 650 450 646 422 q 670 476 653 467 q 703 484 686 484 q 737 479 720 484 q 759 471 753 475 q 792 481 767 476 q 842 487 817 487 q 882 482 863 487 q 915 467 901 477 q 928 441 928 457 l 928 46 q 912 20 928 31 q 874 5 897 9 q 831 0 852 0 z "},"½":{"ha":1046,"x_min":68,"x_max":979,"o":"m 286 484 q 223 494 252 484 q 195 524 195 505 q 203 689 203 607 q 200 786 203 724 q 181 762 193 776 q 134 740 156 740 q 99 753 114 740 q 76 786 84 767 q 68 823 68 806 q 79 856 68 840 q 113 874 90 872 q 145 887 134 876 q 165 914 157 898 q 190 948 174 932 q 275 972 214 972 q 321 968 295 972 q 365 954 347 964 q 383 925 383 944 l 383 530 q 368 504 383 514 q 330 489 353 494 q 286 484 308 484 m 375 7 q 302 28 337 7 q 278 59 278 43 q 279 66 278 63 q 449 496 369 267 q 583 930 528 725 q 627 955 590 955 q 646 954 636 955 q 704 931 677 947 q 731 893 731 914 l 730 888 q 727 878 730 884 q 556 471 654 741 q 420 33 458 201 q 375 7 414 7 m 750 315 q 776 370 776 342 q 773 381 776 378 q 758 383 770 383 q 748 379 751 383 q 745 364 745 376 q 749 347 745 357 q 753 329 753 338 q 750 315 753 321 m 747 0 q 667 7 706 0 q 604 28 629 14 q 580 66 580 43 q 648 229 580 165 q 716 286 671 252 q 660 275 690 275 q 623 281 642 275 q 592 297 604 286 q 580 324 580 308 q 646 450 580 404 q 787 492 707 492 q 872 477 831 492 q 940 434 913 462 q 967 366 967 406 q 881 243 963 284 q 817 214 847 225 q 770 190 774 198 q 867 222 820 191 q 905 235 888 235 q 948 212 932 235 q 971 157 964 189 q 979 97 979 125 q 978 79 979 88 q 939 36 975 53 q 851 9 903 18 q 747 0 798 0 z "},"¾":{"ha":1005,"x_min":68,"x_max":937,"o":"m 245 669 q 270 676 259 669 q 280 699 280 683 q 264 722 280 716 q 225 728 249 728 q 175 723 206 728 q 221 692 221 718 l 220 686 q 241 669 220 669 l 245 669 m 267 482 q 173 502 218 482 q 98 562 127 522 q 68 661 68 602 l 68 675 q 104 710 73 697 q 165 724 136 724 l 168 724 q 153 734 158 725 q 146 755 146 745 q 157 787 146 770 q 189 806 168 804 q 250 818 210 808 q 298 835 298 829 q 269 837 298 837 q 215 831 243 837 q 174 817 187 826 q 131 801 150 801 q 96 815 110 801 q 75 851 82 830 q 68 891 68 872 q 70 911 68 901 q 140 954 78 937 q 269 970 201 970 q 445 873 445 970 q 420 825 445 845 q 351 780 390 800 q 431 727 404 761 q 461 650 461 692 q 432 558 460 595 q 359 502 404 521 q 267 482 315 482 m 405 7 q 332 28 367 7 q 308 59 308 43 q 309 66 308 63 q 478 496 399 267 q 612 930 558 725 q 656 955 620 955 q 675 954 666 955 q 734 931 707 947 q 761 893 761 914 l 760 888 q 757 878 760 884 q 586 471 684 741 q 450 33 488 201 q 405 7 444 7 m 768 300 l 768 335 l 770 389 q 743 311 748 321 l 736 300 l 768 300 m 840 0 q 777 10 805 0 q 748 40 748 20 q 755 153 753 84 q 758 157 755 155 l 756 157 q 637 157 755 157 q 570 195 589 157 q 562 224 562 211 q 567 248 562 236 q 630 369 604 316 q 660 450 656 422 q 679 476 663 467 q 713 484 696 484 q 746 479 730 484 q 768 471 763 475 q 802 481 777 476 q 852 487 827 487 q 891 482 872 487 q 924 467 911 477 q 937 441 937 457 l 937 46 q 922 20 937 31 q 884 5 906 9 q 840 0 862 0 z "},"¿":{"ha":766,"x_min":34,"x_max":732,"o":"m 360 -321 q 219 -296 279 -321 q 117 -232 158 -272 q 55 -143 76 -192 q 34 -44 34 -94 q 56 51 34 6 q 121 125 77 95 q 155 145 135 134 q 211 179 182 160 q 261 221 240 199 q 281 268 281 243 q 262 310 281 288 q 252 333 252 322 q 281 369 252 353 q 354 393 311 384 q 435 401 397 401 q 488 395 467 401 q 513 374 510 389 q 519 283 519 323 q 506 181 519 220 q 473 118 493 142 q 430 73 452 93 q 393 35 410 55 q 366 -15 376 14 q 355 -89 355 -44 q 368 -126 355 -113 q 417 -140 382 -140 q 453 -124 438 -140 q 467 -78 467 -109 q 458 -28 467 -56 q 454 -4 454 -16 q 477 45 454 25 q 534 75 499 64 q 605 85 568 85 q 667 77 637 85 q 714 50 696 68 q 732 5 732 33 q 700 -140 732 -79 q 614 -242 668 -202 q 494 -301 561 -282 q 360 -321 428 -321 m 390 441 q 275 472 323 441 q 228 546 228 503 q 275 619 228 589 q 390 650 323 650 q 505 619 458 650 q 553 546 553 589 q 505 472 553 503 q 390 441 458 441 z "},"À":{"ha":894,"x_min":-5,"x_max":880,"o":"m 437 451 q 455 461 448 451 q 463 493 463 472 l 463 506 q 437 629 448 629 q 413 505 426 629 l 412 492 q 420 461 412 472 q 437 451 428 451 m 678 0 q 566 16 616 0 q 510 60 517 33 q 488 224 498 137 q 471 261 485 250 q 441 272 458 272 q 406 261 422 272 q 387 233 390 250 q 365 60 378 140 q 309 16 358 33 q 197 0 260 0 q 102 12 149 0 q 25 48 56 23 q -5 113 -5 73 q 2 150 -5 130 q 116 506 65 334 q 208 892 167 677 q 286 957 220 935 q 431 978 351 978 q 585 956 515 978 q 667 892 655 934 q 761 499 712 667 q 873 150 810 332 q 880 113 880 130 q 850 48 880 73 q 773 12 820 23 q 678 0 727 0 m 464 1045 q 446 1050 455 1045 q 358 1114 406 1073 q 262 1224 262 1198 q 295 1276 262 1251 q 358 1301 328 1301 q 388 1288 376 1301 q 433 1225 408 1260 q 515 1112 472 1166 q 518 1102 518 1108 q 502 1066 518 1087 q 464 1045 486 1045 z "},"Á":{"ha":894,"x_min":-5,"x_max":880,"o":"m 437 451 q 455 461 448 451 q 463 493 463 472 l 463 506 q 437 629 448 629 q 413 505 426 629 l 412 492 q 420 461 412 472 q 437 451 428 451 m 678 0 q 566 16 616 0 q 510 60 517 33 q 488 224 498 137 q 471 261 485 250 q 441 272 458 272 q 406 261 422 272 q 387 233 390 250 q 365 60 378 140 q 309 16 358 33 q 197 0 260 0 q 102 12 149 0 q 25 48 56 23 q -5 113 -5 73 q 2 150 -5 130 q 116 506 65 334 q 208 892 167 677 q 286 957 220 935 q 431 978 351 978 q 585 956 515 978 q 667 892 655 934 q 761 499 712 667 q 873 150 810 332 q 880 113 880 130 q 850 48 880 73 q 773 12 820 23 q 678 0 727 0 m 401 1045 q 363 1066 379 1045 q 347 1102 347 1087 q 350 1112 347 1108 q 433 1225 393 1166 q 477 1288 457 1260 q 507 1301 489 1301 q 570 1276 537 1301 q 604 1223 604 1251 q 508 1114 604 1198 q 419 1050 460 1073 q 401 1045 410 1045 z "},"Â":{"ha":894,"x_min":-5,"x_max":880,"o":"m 437 451 q 455 461 448 451 q 463 493 463 472 l 463 506 q 437 629 448 629 q 413 505 426 629 l 412 492 q 420 461 412 472 q 437 451 428 451 m 678 0 q 566 16 616 0 q 510 60 517 33 q 488 224 498 137 q 471 261 485 250 q 441 272 458 272 q 406 261 422 272 q 387 233 390 250 q 365 60 378 140 q 309 16 358 33 q 197 0 260 0 q 102 12 149 0 q 25 48 56 23 q -5 113 -5 73 q 2 150 -5 130 q 116 506 65 334 q 208 892 167 677 q 286 957 220 935 q 431 978 351 978 q 585 956 515 978 q 667 892 655 934 q 761 499 712 667 q 873 150 810 332 q 880 113 880 130 q 850 48 880 73 q 773 12 820 23 q 678 0 727 0 m 523 1045 q 481 1065 491 1045 q 452 1143 468 1097 l 433 1192 l 419 1155 q 385 1065 400 1101 q 342 1045 374 1045 q 280 1063 312 1045 q 248 1107 248 1081 q 253 1124 248 1115 q 324 1229 281 1175 q 398 1316 366 1282 q 432 1329 412 1329 q 466 1316 452 1329 q 541 1229 498 1282 q 613 1124 584 1175 q 618 1107 618 1115 q 586 1063 618 1082 q 523 1045 553 1045 z "},"Ã":{"ha":894,"x_min":-5,"x_max":880,"o":"m 437 451 q 455 461 448 451 q 463 493 463 472 l 463 506 q 437 629 448 629 q 413 505 426 629 l 412 492 q 420 461 412 472 q 437 451 428 451 m 678 0 q 566 16 616 0 q 510 60 517 33 q 488 224 498 137 q 471 261 485 250 q 441 272 458 272 q 406 261 422 272 q 387 233 390 250 q 365 60 378 140 q 309 16 358 33 q 197 0 260 0 q 102 12 149 0 q 25 48 56 23 q -5 113 -5 73 q 2 150 -5 130 q 116 506 65 334 q 208 892 167 677 q 286 957 220 935 q 431 978 351 978 q 585 956 515 978 q 667 892 655 934 q 761 499 712 667 q 873 150 810 332 q 880 113 880 130 q 850 48 880 73 q 773 12 820 23 q 678 0 727 0 m 290 1045 l 287 1045 q 244 1061 258 1046 q 231 1097 231 1076 q 247 1153 231 1124 q 288 1202 262 1181 q 345 1222 314 1222 q 384 1213 363 1222 q 425 1192 404 1204 q 465 1172 446 1181 q 500 1164 484 1164 q 541 1210 532 1164 q 569 1228 545 1228 q 583 1226 576 1228 q 622 1201 610 1219 q 633 1160 633 1183 q 620 1108 633 1135 q 584 1064 607 1082 q 530 1046 560 1046 q 502 1053 519 1046 q 464 1069 484 1060 q 414 1091 439 1081 q 370 1101 389 1101 q 336 1065 338 1101 q 321 1051 335 1057 q 290 1045 308 1045 z "},"Ä":{"ha":894,"x_min":-5,"x_max":880,"o":"m 437 451 q 455 461 448 451 q 463 493 463 472 l 463 506 q 437 629 448 629 q 413 505 426 629 l 412 492 q 420 461 412 472 q 437 451 428 451 m 678 0 q 566 16 616 0 q 510 60 517 33 q 488 224 498 137 q 471 261 485 250 q 441 272 458 272 q 406 261 422 272 q 387 233 390 250 q 365 60 378 140 q 309 16 358 33 q 197 0 260 0 q 102 12 149 0 q 25 48 56 23 q -5 113 -5 73 q 2 150 -5 130 q 116 506 65 334 q 208 892 167 677 q 286 957 220 935 q 431 978 351 978 q 585 956 515 978 q 667 892 655 934 q 761 499 712 667 q 873 150 810 332 q 880 113 880 130 q 850 48 880 73 q 773 12 820 23 q 678 0 727 0 m 327 1045 q 262 1067 292 1045 q 232 1134 233 1089 q 246 1184 232 1164 q 282 1214 260 1204 q 328 1224 304 1224 q 392 1202 363 1224 q 422 1133 422 1179 q 409 1084 422 1103 q 373 1055 395 1065 q 327 1045 351 1045 m 536 1045 q 472 1067 501 1045 q 441 1134 442 1089 q 455 1184 441 1164 q 491 1214 469 1204 q 538 1224 513 1224 q 601 1202 572 1224 q 633 1133 632 1179 q 619 1084 633 1104 q 583 1055 605 1065 q 536 1045 561 1045 z "},"Å":{"ha":894,"x_min":-5,"x_max":880,"o":"m 437 451 q 455 461 448 451 q 463 493 463 472 l 463 506 q 437 629 448 629 q 413 505 426 629 l 412 492 q 420 461 412 472 q 437 451 428 451 m 678 0 q 566 16 616 0 q 510 60 517 33 q 488 224 498 137 q 471 261 485 250 q 441 272 458 272 q 406 261 422 272 q 387 233 390 250 q 365 60 378 140 q 309 16 358 33 q 197 0 260 0 q 102 12 149 0 q 25 48 56 23 q -5 113 -5 73 q 2 150 -5 130 q 116 506 65 334 q 208 892 167 677 q 286 957 220 935 q 431 978 351 978 q 585 956 515 978 q 667 892 655 934 q 761 499 712 667 q 873 150 810 332 q 880 113 880 130 q 850 48 880 73 q 773 12 820 23 q 678 0 727 0 m 432 1045 q 346 1078 385 1045 q 304 1177 307 1111 l 304 1183 q 323 1259 304 1228 q 371 1306 342 1291 q 433 1322 401 1322 q 519 1289 480 1322 q 562 1181 560 1252 q 543 1105 562 1135 q 494 1060 524 1076 q 432 1045 465 1045 m 433 1103 q 454 1116 445 1103 q 464 1155 464 1129 q 454 1207 464 1190 q 433 1225 444 1225 q 412 1208 421 1225 q 402 1156 402 1191 q 412 1116 402 1129 q 433 1103 422 1103 z "},"Æ":{"ha":1259,"x_min":-5,"x_max":1232,"o":"m 437 451 q 455 461 448 451 q 463 493 463 472 l 463 506 q 437 629 448 629 q 413 505 426 629 l 412 492 q 420 461 412 472 q 437 451 428 451 m 895 -2 q 817 -1 854 -2 q 725 0 782 0 l 690 0 q 602 7 621 0 q 510 60 519 22 q 488 224 498 137 q 441 272 482 272 q 406 261 422 272 q 387 233 390 250 q 365 60 378 140 q 309 16 358 33 q 197 0 260 0 q 102 12 149 0 q 25 48 56 23 q -5 113 -5 73 q 2 150 -5 130 q 116 506 65 334 q 208 892 167 677 q 286 957 220 935 q 431 978 351 978 q 600 951 532 978 q 731 969 661 969 l 1004 970 q 1102 959 1063 970 q 1160 918 1141 947 q 1180 830 1180 888 q 1170 765 1179 795 q 1142 715 1161 734 q 1092 696 1123 696 q 1042 709 1070 696 q 892 753 1000 730 q 865 757 875 757 q 848 745 850 757 q 845 692 845 733 q 851 634 845 645 q 887 624 857 624 q 985 637 941 624 l 993 638 q 1026 564 1026 638 q 1017 500 1026 530 q 992 470 1008 470 l 988 471 q 884 484 942 484 q 850 476 856 484 q 845 431 845 468 q 849 370 845 385 q 871 355 853 355 q 923 363 891 355 q 984 384 956 372 q 1023 406 1013 395 q 1093 446 1059 446 q 1163 405 1132 446 q 1213 302 1195 363 q 1232 178 1232 240 l 1231 155 q 1174 52 1224 86 q 1049 8 1124 18 q 895 -2 973 -2 z "},"Ç":{"ha":885,"x_min":15,"x_max":867,"o":"m 484 -241 q 404 -231 432 -241 q 364 -205 376 -221 q 353 -174 353 -190 q 367 -133 353 -151 q 391 -115 380 -115 l 395 -115 q 432 -125 416 -125 q 457 -118 448 -125 q 466 -103 466 -111 q 455 -88 466 -95 q 420 -81 444 -81 l 397 -82 q 372 -65 372 -82 q 396 -7 372 -50 q 261 33 321 1 q 125 146 180 75 q 43 307 71 218 q 15 490 15 397 q 42 669 15 582 q 124 825 69 755 q 261 936 178 895 q 456 977 345 977 q 617 946 542 977 q 740 862 693 916 q 787 739 787 809 q 762 672 787 701 q 702 625 738 642 q 631 608 665 608 q 574 626 598 608 q 546 684 550 644 q 518 764 541 739 q 466 789 496 789 q 403 765 428 789 q 366 702 378 741 q 353 619 353 663 q 371 514 353 566 q 421 429 388 463 q 505 395 455 395 q 605 462 566 395 q 648 479 617 479 q 714 467 677 479 q 786 430 751 454 q 844 372 821 406 q 867 298 867 339 q 845 223 867 263 q 730 87 795 139 q 496 -7 627 6 q 488 -26 488 -20 q 495 -32 488 -32 q 568 -44 542 -32 q 618 -120 618 -68 q 602 -176 618 -149 q 555 -222 585 -204 q 484 -241 525 -241 z "},"È":{"ha":777,"x_min":45,"x_max":749,"o":"m 412 -2 q 334 -1 372 -2 l 268 0 l 216 -1 q 145 3 184 -1 q 80 19 107 7 q 53 56 53 31 l 53 60 q 68 403 68 233 q 45 886 68 616 l 45 890 q 123 953 45 932 q 248 969 184 969 l 521 970 q 619 959 580 970 q 677 918 658 947 q 696 830 696 888 q 687 765 696 795 q 659 715 678 734 q 609 696 640 696 q 559 709 587 696 q 410 753 517 730 q 382 757 391 757 q 365 745 368 757 q 362 697 362 733 q 368 634 362 645 q 404 624 374 624 q 502 637 458 624 l 510 638 q 535 615 528 638 q 543 564 543 593 q 534 500 543 530 q 509 470 525 470 l 505 471 q 401 484 459 484 q 368 476 373 484 q 362 419 362 468 q 366 370 362 385 q 388 355 370 355 q 440 363 408 355 q 501 384 473 372 q 540 406 530 395 q 610 446 576 446 q 681 405 649 446 q 730 302 712 363 q 749 178 749 240 l 748 155 q 691 52 741 86 q 566 8 642 18 q 412 -2 490 -2 m 428 1045 q 410 1050 419 1045 q 322 1114 370 1073 q 226 1224 226 1198 q 259 1276 226 1251 q 322 1301 292 1301 q 352 1288 340 1301 q 397 1225 372 1260 q 479 1112 436 1166 q 482 1102 482 1108 q 466 1066 482 1087 q 428 1045 450 1045 z "},"É":{"ha":777,"x_min":45,"x_max":749,"o":"m 412 -2 q 334 -1 372 -2 l 268 0 l 216 -1 q 145 3 184 -1 q 80 19 107 7 q 53 56 53 31 l 53 60 q 68 403 68 233 q 45 886 68 616 l 45 890 q 123 953 45 932 q 248 969 184 969 l 521 970 q 619 959 580 970 q 677 918 658 947 q 696 830 696 888 q 687 765 696 795 q 659 715 678 734 q 609 696 640 696 q 559 709 587 696 q 410 753 517 730 q 382 757 391 757 q 365 745 368 757 q 362 697 362 733 q 368 634 362 645 q 404 624 374 624 q 502 637 458 624 l 510 638 q 535 615 528 638 q 543 564 543 593 q 534 500 543 530 q 509 470 525 470 l 505 471 q 401 484 459 484 q 368 476 373 484 q 362 419 362 468 q 366 370 362 385 q 388 355 370 355 q 440 363 408 355 q 501 384 473 372 q 540 406 530 395 q 610 446 576 446 q 681 405 649 446 q 730 302 712 363 q 749 178 749 240 l 748 155 q 691 52 741 86 q 566 8 642 18 q 412 -2 490 -2 m 366 1045 q 327 1066 343 1045 q 311 1102 311 1087 q 314 1112 311 1108 q 397 1225 357 1166 q 441 1288 421 1260 q 471 1301 453 1301 q 534 1276 501 1301 q 568 1223 568 1251 q 472 1114 568 1198 q 383 1050 424 1073 q 366 1045 374 1045 z "},"Ê":{"ha":777,"x_min":45,"x_max":749,"o":"m 412 -2 q 334 -1 372 -2 l 268 0 l 216 -1 q 145 3 184 -1 q 80 19 107 7 q 53 56 53 31 l 53 60 q 68 403 68 233 q 45 886 68 616 l 45 890 q 123 953 45 932 q 248 969 184 969 l 521 970 q 619 959 580 970 q 677 918 658 947 q 696 830 696 888 q 687 765 696 795 q 659 715 678 734 q 609 696 640 696 q 559 709 587 696 q 410 753 517 730 q 382 757 391 757 q 365 745 368 757 q 362 697 362 733 q 368 634 362 645 q 404 624 374 624 q 502 637 458 624 l 510 638 q 535 615 528 638 q 543 564 543 593 q 534 500 543 530 q 509 470 525 470 l 505 471 q 401 484 459 484 q 368 476 373 484 q 362 419 362 468 q 366 370 362 385 q 388 355 370 355 q 440 363 408 355 q 501 384 473 372 q 540 406 530 395 q 610 446 576 446 q 681 405 649 446 q 730 302 712 363 q 749 178 749 240 l 748 155 q 691 52 741 86 q 566 8 642 18 q 412 -2 490 -2 m 487 1045 q 446 1065 455 1045 q 416 1143 432 1097 l 397 1192 l 383 1155 q 349 1065 364 1101 q 307 1045 338 1045 q 244 1063 276 1045 q 212 1107 212 1081 q 217 1124 212 1115 q 288 1229 245 1175 q 362 1316 330 1282 q 396 1329 376 1329 q 430 1316 416 1329 q 505 1229 462 1282 q 577 1124 548 1175 q 582 1107 582 1115 q 550 1063 582 1082 q 487 1045 517 1045 z "},"Ë":{"ha":777,"x_min":45,"x_max":749,"o":"m 412 -2 q 334 -1 372 -2 l 268 0 l 216 -1 q 145 3 184 -1 q 80 19 107 7 q 53 56 53 31 l 53 60 q 68 403 68 233 q 45 886 68 616 l 45 890 q 123 953 45 932 q 248 969 184 969 l 521 970 q 619 959 580 970 q 677 918 658 947 q 696 830 696 888 q 687 765 696 795 q 659 715 678 734 q 609 696 640 696 q 559 709 587 696 q 410 753 517 730 q 382 757 391 757 q 365 745 368 757 q 362 697 362 733 q 368 634 362 645 q 404 624 374 624 q 502 637 458 624 l 510 638 q 535 615 528 638 q 543 564 543 593 q 534 500 543 530 q 509 470 525 470 l 505 471 q 401 484 459 484 q 368 476 373 484 q 362 419 362 468 q 366 370 362 385 q 388 355 370 355 q 440 363 408 355 q 501 384 473 372 q 540 406 530 395 q 610 446 576 446 q 681 405 649 446 q 730 302 712 363 q 749 178 749 240 l 748 155 q 691 52 741 86 q 566 8 642 18 q 412 -2 490 -2 m 291 1045 q 226 1067 256 1045 q 196 1134 197 1089 q 210 1184 196 1164 q 246 1214 224 1204 q 292 1224 268 1224 q 356 1202 327 1224 q 387 1133 386 1179 q 373 1084 387 1103 q 337 1055 359 1065 q 291 1045 315 1045 m 500 1045 q 436 1067 465 1045 q 406 1134 406 1089 q 419 1184 406 1164 q 455 1214 433 1204 q 502 1224 477 1224 q 565 1202 536 1224 q 597 1133 596 1179 q 583 1084 597 1104 q 547 1055 569 1065 q 500 1045 525 1045 z "},"Ì":{"ha":443,"x_min":47,"x_max":388,"o":"m 220 -1 q 139 6 178 -1 q 76 26 100 13 q 51 58 51 39 l 51 60 q 68 429 68 245 q 48 886 68 661 l 48 890 q 73 933 48 915 q 136 960 98 951 q 217 970 175 970 q 292 961 256 970 q 350 932 328 951 q 372 884 372 913 l 372 878 q 357 542 357 718 q 387 73 357 315 l 388 67 q 363 28 388 43 q 301 6 339 14 q 220 -1 262 -1 m 249 1045 q 231 1050 240 1045 q 143 1114 191 1073 q 47 1224 47 1198 q 80 1276 47 1251 q 143 1301 113 1301 q 173 1288 161 1301 q 218 1225 193 1260 q 300 1112 257 1166 q 303 1102 303 1108 q 287 1066 303 1087 q 249 1045 271 1045 z "},"Í":{"ha":443,"x_min":48,"x_max":389,"o":"m 220 -1 q 139 6 178 -1 q 76 26 100 13 q 51 58 51 39 l 51 60 q 68 429 68 245 q 48 886 68 661 l 48 890 q 73 933 48 915 q 136 960 98 951 q 217 970 175 970 q 292 961 256 970 q 350 932 328 951 q 372 884 372 913 l 372 878 q 357 542 357 718 q 387 73 357 315 l 388 67 q 363 28 388 43 q 301 6 339 14 q 220 -1 262 -1 m 186 1045 q 148 1066 164 1045 q 132 1102 132 1087 q 135 1112 132 1108 q 218 1225 178 1166 q 262 1288 242 1260 q 292 1301 274 1301 q 355 1276 322 1301 q 389 1223 389 1251 q 293 1114 389 1198 q 204 1050 245 1073 q 186 1045 195 1045 z "},"Î":{"ha":443,"x_min":33,"x_max":403,"o":"m 220 -1 q 139 6 178 -1 q 76 26 100 13 q 51 58 51 39 l 51 60 q 68 429 68 245 q 48 886 68 661 l 48 890 q 73 933 48 915 q 136 960 98 951 q 217 970 175 970 q 292 961 256 970 q 350 932 328 951 q 372 884 372 913 l 372 878 q 357 542 357 718 q 387 73 357 315 l 388 67 q 363 28 388 43 q 301 6 339 14 q 220 -1 262 -1 m 308 1045 q 267 1065 276 1045 q 237 1143 253 1097 l 218 1192 l 204 1155 q 170 1065 185 1101 q 127 1045 159 1045 q 65 1063 97 1045 q 33 1107 33 1081 q 38 1124 33 1115 q 109 1229 66 1175 q 183 1316 151 1282 q 217 1329 197 1329 q 251 1316 237 1329 q 326 1229 283 1282 q 398 1124 369 1175 q 403 1107 403 1115 q 371 1063 403 1082 q 308 1045 338 1045 z "},"Ï":{"ha":443,"x_min":17,"x_max":418,"o":"m 220 -1 q 139 6 178 -1 q 76 26 100 13 q 51 58 51 39 l 51 60 q 68 429 68 245 q 48 886 68 661 l 48 890 q 73 933 48 915 q 136 960 98 951 q 217 970 175 970 q 292 961 256 970 q 350 932 328 951 q 372 884 372 913 l 372 878 q 357 542 357 718 q 387 73 357 315 l 388 67 q 363 28 388 43 q 301 6 339 14 q 220 -1 262 -1 m 112 1045 q 47 1067 77 1045 q 17 1134 18 1089 q 31 1184 17 1164 q 67 1214 45 1204 q 113 1224 89 1224 q 177 1202 148 1224 q 208 1133 207 1179 q 194 1084 208 1103 q 158 1055 180 1065 q 112 1045 136 1045 m 321 1045 q 257 1067 286 1045 q 227 1134 227 1089 q 240 1184 227 1164 q 276 1214 254 1204 q 323 1224 298 1224 q 386 1202 357 1224 q 418 1133 417 1179 q 404 1084 418 1104 q 368 1055 390 1065 q 321 1045 346 1045 z "},"Ð":{"ha":882,"x_min":-148,"x_max":848,"o":"m 342 -6 q 96 22 180 -6 q 53 60 53 35 q 68 403 68 233 q 68 484 68 444 q -98 473 -14 481 q -136 496 -123 473 q -148 547 -148 519 q -133 603 -148 578 q -86 629 -118 629 l 63 629 q 45 886 56 758 l 45 891 q 293 970 45 970 l 342 969 q 620 892 507 966 q 790 704 732 819 q 848 465 848 589 q 793 238 848 346 q 626 64 739 131 q 342 -6 514 -3 m 389 357 q 416 369 400 357 q 477 448 456 401 q 498 548 498 496 q 472 656 498 603 q 394 745 447 709 q 377 752 384 752 q 362 727 362 752 l 362 629 l 394 629 q 441 603 426 629 q 456 548 456 578 q 444 496 456 519 q 405 473 431 473 l 362 477 l 362 405 q 368 373 362 389 q 389 357 374 357 z "},"Ñ":{"ha":941,"x_min":48,"x_max":886,"o":"m 714 -1 q 606 12 654 -1 q 551 48 557 24 q 498 201 540 106 q 374 432 395 432 q 361 386 361 432 q 387 73 366 224 l 388 67 q 363 28 388 43 q 301 6 339 14 q 220 -1 262 -1 q 139 6 178 -1 q 76 26 100 13 q 51 58 51 39 l 51 60 q 68 429 68 245 q 48 886 68 661 l 48 890 q 71 933 48 916 q 131 959 94 950 q 207 968 167 968 q 310 949 262 968 q 372 893 358 931 q 465 729 395 833 q 529 628 496 682 q 548 611 541 611 q 558 619 555 611 q 562 640 562 627 q 547 886 556 766 l 547 890 q 571 933 547 915 q 635 960 596 951 q 715 970 673 970 q 790 961 755 970 q 848 932 826 951 q 871 884 871 913 l 871 878 q 856 542 856 718 q 886 73 856 315 l 886 67 q 861 28 886 43 q 796 6 836 14 q 714 -1 757 -1 m 324 1045 l 321 1045 q 279 1061 292 1046 q 266 1097 266 1076 q 281 1153 266 1124 q 323 1202 297 1181 q 379 1222 349 1222 q 418 1213 397 1222 q 460 1192 439 1204 q 500 1172 481 1181 q 534 1164 519 1164 q 575 1210 566 1164 q 604 1228 579 1228 q 618 1226 610 1228 q 656 1201 644 1219 q 668 1160 668 1183 q 655 1108 668 1135 q 618 1064 642 1082 q 565 1046 595 1046 q 536 1053 554 1046 q 498 1069 519 1060 q 449 1091 473 1081 q 405 1101 424 1101 q 371 1065 373 1101 q 356 1051 370 1057 q 324 1045 342 1045 z "},"Ò":{"ha":885,"x_min":18,"x_max":843,"o":"m 432 -9 q 280 22 354 -9 q 147 116 206 54 q 53 271 88 178 q 18 487 18 363 q 83 767 20 656 q 235 923 142 871 q 429 975 328 975 q 581 945 507 975 q 713 854 654 915 q 808 704 772 794 q 843 494 843 614 q 777 203 840 318 q 625 44 717 97 q 432 -9 532 -9 m 429 440 q 480 486 458 440 q 504 621 502 532 q 481 734 504 696 q 430 772 458 772 q 379 734 402 772 q 356 622 356 696 q 380 485 358 530 q 429 440 401 440 m 460 1045 q 443 1050 452 1045 q 355 1114 402 1073 q 258 1224 258 1198 q 292 1276 258 1251 q 355 1301 325 1301 q 385 1288 373 1301 q 429 1225 405 1260 q 512 1112 469 1166 q 515 1102 515 1108 q 499 1066 515 1087 q 460 1045 483 1045 z "},"Ó":{"ha":885,"x_min":18,"x_max":843,"o":"m 432 -9 q 280 22 354 -9 q 147 116 206 54 q 53 271 88 178 q 18 487 18 363 q 83 767 20 656 q 235 923 142 871 q 429 975 328 975 q 581 945 507 975 q 713 854 654 915 q 808 704 772 794 q 843 494 843 614 q 777 203 840 318 q 625 44 717 97 q 432 -9 532 -9 m 429 440 q 480 486 458 440 q 504 621 502 532 q 481 734 504 696 q 430 772 458 772 q 379 734 402 772 q 356 622 356 696 q 380 485 358 530 q 429 440 401 440 m 398 1045 q 360 1066 376 1045 q 344 1102 344 1087 q 347 1112 344 1108 q 429 1225 390 1166 q 474 1288 454 1260 q 504 1301 486 1301 q 567 1276 534 1301 q 600 1223 600 1251 q 505 1114 600 1198 q 416 1050 456 1073 q 398 1045 407 1045 z "},"Ô":{"ha":885,"x_min":18,"x_max":843,"o":"m 432 -9 q 280 22 354 -9 q 147 116 206 54 q 53 271 88 178 q 18 487 18 363 q 83 767 20 656 q 235 923 142 871 q 429 975 328 975 q 581 945 507 975 q 713 854 654 915 q 808 704 772 794 q 843 494 843 614 q 777 203 840 318 q 625 44 717 97 q 432 -9 532 -9 m 429 440 q 480 486 458 440 q 504 621 502 532 q 481 734 504 696 q 430 772 458 772 q 379 734 402 772 q 356 622 356 696 q 380 485 358 530 q 429 440 401 440 m 519 1045 q 478 1065 488 1045 q 448 1143 465 1097 l 429 1192 l 416 1155 q 381 1065 397 1101 q 339 1045 371 1045 q 277 1063 309 1045 q 245 1107 245 1081 q 250 1124 245 1115 q 320 1229 278 1175 q 395 1316 363 1282 q 429 1329 409 1329 q 463 1316 448 1329 q 537 1229 494 1282 q 610 1124 581 1175 q 614 1107 614 1115 q 582 1063 614 1082 q 519 1045 550 1045 z "},"Õ":{"ha":885,"x_min":18,"x_max":843,"o":"m 432 -9 q 280 22 354 -9 q 147 116 206 54 q 53 271 88 178 q 18 487 18 363 q 83 767 20 656 q 235 923 142 871 q 429 975 328 975 q 581 945 507 975 q 713 854 654 915 q 808 704 772 794 q 843 494 843 614 q 777 203 840 318 q 625 44 717 97 q 432 -9 532 -9 m 429 440 q 480 486 458 440 q 504 621 502 532 q 481 734 504 696 q 430 772 458 772 q 379 734 402 772 q 356 622 356 696 q 380 485 358 530 q 429 440 401 440 m 286 1045 l 283 1045 q 241 1061 254 1046 q 228 1097 228 1076 q 243 1153 228 1124 q 285 1202 259 1181 q 341 1222 311 1222 q 380 1213 359 1222 q 422 1192 401 1204 q 462 1172 443 1181 q 496 1164 481 1164 q 537 1210 528 1164 q 566 1228 541 1228 q 580 1226 572 1228 q 618 1201 606 1219 q 630 1160 630 1183 q 617 1108 630 1135 q 580 1064 604 1082 q 527 1046 557 1046 q 498 1053 516 1046 q 460 1069 481 1060 q 411 1091 435 1081 q 367 1101 386 1101 q 333 1065 335 1101 q 318 1051 332 1057 q 286 1045 304 1045 z "},"Ö":{"ha":885,"x_min":18,"x_max":843,"o":"m 432 -9 q 280 22 354 -9 q 147 116 206 54 q 53 271 88 178 q 18 487 18 363 q 83 767 20 656 q 235 923 142 871 q 429 975 328 975 q 581 945 507 975 q 713 854 654 915 q 808 704 772 794 q 843 494 843 614 q 777 203 840 318 q 625 44 717 97 q 432 -9 532 -9 m 429 440 q 480 486 458 440 q 504 621 502 532 q 481 734 504 696 q 430 772 458 772 q 379 734 402 772 q 356 622 356 696 q 380 485 358 530 q 429 440 401 440 m 323 1045 q 259 1067 288 1045 q 229 1134 229 1089 q 242 1184 229 1164 q 278 1214 256 1204 q 324 1224 300 1224 q 389 1202 359 1224 q 419 1133 418 1179 q 405 1084 419 1103 q 369 1055 391 1065 q 323 1045 347 1045 m 533 1045 q 468 1067 498 1045 q 438 1134 439 1089 q 452 1184 438 1164 q 488 1214 466 1204 q 534 1224 510 1224 q 597 1202 569 1224 q 629 1133 629 1179 q 615 1084 629 1104 q 579 1055 602 1065 q 533 1045 557 1045 z "},"×":{"ha":579,"x_min":34,"x_max":545,"o":"m 154 229 q 103 249 131 229 q 54 297 75 269 q 34 353 34 326 q 47 387 34 372 l 170 509 q 54 610 114 561 q 41 639 41 622 q 71 699 41 668 q 134 729 100 729 q 172 713 155 729 l 273 612 l 387 727 q 421 741 402 741 q 477 720 448 741 q 526 672 506 700 q 545 621 545 644 q 534 595 545 606 q 401 484 465 542 l 512 373 q 528 334 528 355 q 498 272 528 301 q 438 242 467 242 q 410 255 422 242 q 299 381 356 320 q 179 241 236 314 q 154 229 169 229 z "},"Ø":{"ha":882,"x_min":18,"x_max":843,"o":"m 337 -92 q 279 -80 307 -92 q 251 -52 251 -69 l 252 -47 q 271 26 262 -11 q 142 121 199 59 q 51 275 85 184 q 18 488 18 367 q 83 767 19 656 q 235 923 142 871 q 429 975 328 975 l 451 975 l 456 1026 q 475 1050 458 1043 q 514 1058 492 1058 q 578 1044 547 1058 q 609 1007 609 1030 q 607 997 609 1002 q 589 941 599 973 q 718 849 661 909 q 809 701 775 789 q 843 494 843 612 q 777 204 840 318 q 625 44 717 97 q 433 -9 532 -9 q 399 -7 416 -9 q 397 -57 397 -44 q 378 -83 395 -75 q 337 -92 360 -92 m 429 440 q 480 486 458 440 q 504 621 502 532 q 481 734 504 696 q 430 772 458 772 q 379 734 402 772 q 356 622 356 696 q 380 485 358 530 q 429 440 401 440 z "},"Ù":{"ha":871,"x_min":41,"x_max":814,"o":"m 660 -1 q 555 14 602 -1 q 503 56 508 28 q 416 12 460 23 q 329 0 372 0 q 191 48 252 0 q 95 181 130 97 q 60 371 60 264 q 41 886 60 633 l 41 890 q 63 930 41 913 q 122 955 86 947 q 197 964 157 964 q 278 954 239 964 q 342 923 317 943 q 368 871 368 903 q 363 794 366 839 q 352 557 352 658 l 352 529 q 357 465 352 492 q 378 422 362 437 q 426 407 393 407 q 480 428 464 407 q 497 509 497 450 q 479 736 497 569 q 465 890 466 859 q 491 933 465 915 q 556 960 516 951 q 640 970 596 970 q 717 961 680 970 q 777 932 754 951 q 800 884 800 913 l 800 878 q 787 541 787 717 q 814 73 787 314 l 814 67 q 791 29 814 44 q 734 6 769 14 q 660 -1 699 -1 m 458 1045 q 441 1050 450 1045 q 353 1114 400 1073 q 256 1224 256 1198 q 290 1276 256 1251 q 353 1301 323 1301 q 382 1288 371 1301 q 427 1225 403 1260 q 510 1112 467 1166 q 513 1102 513 1108 q 497 1066 513 1087 q 458 1045 481 1045 z "},"Ú":{"ha":871,"x_min":41,"x_max":814,"o":"m 660 -1 q 555 14 602 -1 q 503 56 508 28 q 416 12 460 23 q 329 0 372 0 q 191 48 252 0 q 95 181 130 97 q 60 371 60 264 q 41 886 60 633 l 41 890 q 63 930 41 913 q 122 955 86 947 q 197 964 157 964 q 278 954 239 964 q 342 923 317 943 q 368 871 368 903 q 363 794 366 839 q 352 557 352 658 l 352 529 q 357 465 352 492 q 378 422 362 437 q 426 407 393 407 q 480 428 464 407 q 497 509 497 450 q 479 736 497 569 q 465 890 466 859 q 491 933 465 915 q 556 960 516 951 q 640 970 596 970 q 717 961 680 970 q 777 932 754 951 q 800 884 800 913 l 800 878 q 787 541 787 717 q 814 73 787 314 l 814 67 q 791 29 814 44 q 734 6 769 14 q 660 -1 699 -1 m 396 1045 q 358 1066 374 1045 q 342 1102 342 1087 q 345 1112 342 1108 q 427 1225 388 1166 q 472 1288 452 1260 q 502 1301 484 1301 q 565 1276 532 1301 q 598 1223 598 1251 q 503 1114 598 1198 q 414 1050 454 1073 q 396 1045 405 1045 z "},"Û":{"ha":871,"x_min":41,"x_max":814,"o":"m 660 -1 q 555 14 602 -1 q 503 56 508 28 q 416 12 460 23 q 329 0 372 0 q 191 48 252 0 q 95 181 130 97 q 60 371 60 264 q 41 886 60 633 l 41 890 q 63 930 41 913 q 122 955 86 947 q 197 964 157 964 q 278 954 239 964 q 342 923 317 943 q 368 871 368 903 q 363 794 366 839 q 352 557 352 658 l 352 529 q 357 465 352 492 q 378 422 362 437 q 426 407 393 407 q 480 428 464 407 q 497 509 497 450 q 479 736 497 569 q 465 890 466 859 q 491 933 465 915 q 556 960 516 951 q 640 970 596 970 q 717 961 680 970 q 777 932 754 951 q 800 884 800 913 l 800 878 q 787 541 787 717 q 814 73 787 314 l 814 67 q 791 29 814 44 q 734 6 769 14 q 660 -1 699 -1 m 517 1045 q 476 1065 486 1045 q 446 1143 463 1097 l 427 1192 l 414 1155 q 379 1065 395 1101 q 337 1045 369 1045 q 275 1063 307 1045 q 243 1107 243 1081 q 248 1124 243 1115 q 318 1229 276 1175 q 393 1316 361 1282 q 427 1329 407 1329 q 460 1316 446 1329 q 535 1229 492 1282 q 608 1124 578 1175 q 612 1107 612 1115 q 580 1063 612 1082 q 517 1045 548 1045 z "},"Ü":{"ha":871,"x_min":41,"x_max":814,"o":"m 660 -1 q 555 14 602 -1 q 503 56 508 28 q 416 12 460 23 q 329 0 372 0 q 191 48 252 0 q 95 181 130 97 q 60 371 60 264 q 41 886 60 633 l 41 890 q 63 930 41 913 q 122 955 86 947 q 197 964 157 964 q 278 954 239 964 q 342 923 317 943 q 368 871 368 903 q 363 794 366 839 q 352 557 352 658 l 352 529 q 357 465 352 492 q 378 422 362 437 q 426 407 393 407 q 480 428 464 407 q 497 509 497 450 q 479 736 497 569 q 465 890 466 859 q 491 933 465 915 q 556 960 516 951 q 640 970 596 970 q 717 961 680 970 q 777 932 754 951 q 800 884 800 913 l 800 878 q 787 541 787 717 q 814 73 787 314 l 814 67 q 791 29 814 44 q 734 6 769 14 q 660 -1 699 -1 m 321 1045 q 257 1067 286 1045 q 227 1134 227 1089 q 240 1184 227 1164 q 276 1214 254 1204 q 322 1224 298 1224 q 387 1202 357 1224 q 417 1133 416 1179 q 403 1084 417 1103 q 367 1055 389 1065 q 321 1045 345 1045 m 531 1045 q 466 1067 496 1045 q 436 1134 437 1089 q 450 1184 436 1164 q 486 1214 464 1204 q 532 1224 508 1224 q 595 1202 567 1224 q 627 1133 627 1179 q 613 1084 627 1104 q 577 1055 600 1065 q 531 1045 555 1045 z "},"Ý":{"ha":822,"x_min":-12,"x_max":831,"o":"m 410 -1 q 329 6 368 -1 q 266 26 290 13 q 241 58 241 39 l 241 60 q 259 418 259 248 q 15 753 124 597 q -12 828 -12 795 q 12 891 -12 864 q 73 937 36 918 q 151 964 110 955 q 228 974 193 974 q 279 966 258 974 q 304 944 300 959 q 410 675 357 675 q 515 944 462 675 q 539 966 518 959 q 591 974 560 974 q 667 964 626 974 q 746 937 709 955 q 807 891 783 918 q 831 828 831 864 q 804 753 831 795 q 581 446 703 610 l 549 404 q 577 73 555 250 l 578 67 q 553 28 578 43 q 491 6 529 14 q 410 -1 452 -1 m 378 1045 q 340 1066 356 1045 q 324 1102 324 1087 q 327 1112 324 1108 q 410 1225 370 1166 q 454 1288 434 1260 q 484 1301 466 1301 q 547 1276 514 1301 q 581 1223 581 1251 q 485 1114 581 1198 q 396 1050 437 1073 q 378 1045 387 1045 z "},"Þ":{"ha":812,"x_min":44,"x_max":792,"o":"m 219 -1 q 138 6 177 -1 q 74 26 99 13 q 50 58 50 39 l 50 60 q 66 474 66 248 q 44 1061 66 790 l 44 1064 q 69 1107 44 1089 q 132 1135 94 1125 q 213 1144 171 1144 q 288 1135 252 1144 q 346 1107 323 1126 q 368 1059 368 1088 l 368 1052 q 360 925 363 995 l 395 926 q 567 896 492 926 q 691 818 641 867 q 767 709 741 770 q 792 587 792 649 q 770 477 792 530 q 705 383 749 425 q 595 317 661 341 q 438 292 528 292 l 366 293 q 386 73 373 172 l 387 67 q 362 28 387 43 q 299 6 338 14 q 219 -1 261 -1 m 355 559 q 417 594 397 570 q 437 645 437 618 q 416 701 437 674 q 355 743 395 728 l 355 652 l 355 559 z "},"ß":{"ha":892,"x_min":44,"x_max":869,"o":"m 204 -1 q 127 6 164 -1 q 67 26 91 13 q 44 58 44 39 l 44 60 q 60 430 60 243 q 70 709 62 569 q 127 852 77 793 q 253 940 177 910 q 406 970 328 970 q 516 959 458 970 q 625 925 574 947 q 707 867 675 902 q 739 784 739 832 q 727 711 739 743 q 703 655 715 680 q 689 625 694 639 q 683 599 683 611 q 708 560 683 578 q 830 429 791 505 q 869 275 869 353 q 838 141 869 203 q 747 40 806 79 q 606 1 688 1 q 493 24 539 1 q 417 83 446 47 q 374 164 388 120 q 361 251 361 208 q 385 357 361 312 q 452 402 410 402 q 480 397 465 402 q 605 366 564 366 q 640 374 629 366 q 651 396 651 382 q 598 472 651 427 q 457 543 545 517 q 429 569 440 548 q 418 613 418 591 q 435 651 418 641 q 471 684 450 660 q 511 734 493 709 q 528 769 528 760 q 499 845 528 817 q 433 873 469 873 q 382 857 407 873 q 342 806 358 841 q 327 715 327 771 q 336 393 327 567 q 361 73 345 218 l 362 67 q 339 28 362 43 q 280 6 316 14 q 204 -1 244 -1 z "},"à":{"ha":859,"x_min":19,"x_max":823,"o":"m 246 -2 q 90 50 156 -2 q 19 186 24 101 l 19 190 q 42 272 19 231 q 252 408 93 361 q 382 467 334 431 q 446 595 446 514 q 435 637 446 622 q 410 652 425 652 q 370 620 390 652 q 343 514 349 587 q 308 470 340 484 q 235 456 276 456 q 133 478 181 456 q 80 545 85 501 l 80 555 q 109 663 80 616 q 187 743 138 710 q 294 792 235 775 q 413 809 353 809 q 683 738 583 809 q 794 490 794 658 q 823 73 794 304 l 823 67 q 799 28 823 43 q 736 6 774 14 q 656 -1 698 -1 q 575 6 614 -1 q 511 26 536 13 q 486 58 486 39 l 492 123 q 374 28 439 58 q 246 -2 309 -2 m 420 302 q 463 317 440 302 q 504 371 486 333 q 505 434 504 404 l 463 406 q 405 367 429 385 q 381 330 381 348 q 393 310 382 318 q 420 302 404 302 m 458 882 q 440 887 449 882 q 352 951 399 910 q 256 1061 256 1035 q 289 1113 256 1088 q 352 1138 322 1138 q 382 1125 370 1138 q 427 1062 402 1097 q 509 949 466 1003 q 512 939 512 945 q 496 903 512 924 q 458 882 480 882 z "},"á":{"ha":859,"x_min":19,"x_max":823,"o":"m 246 -2 q 90 50 156 -2 q 19 186 24 101 l 19 190 q 42 272 19 231 q 252 408 93 361 q 382 467 334 431 q 446 595 446 514 q 435 637 446 622 q 410 652 425 652 q 370 620 390 652 q 343 514 349 587 q 308 470 340 484 q 235 456 276 456 q 133 478 181 456 q 80 545 85 501 l 80 555 q 109 663 80 616 q 187 743 138 710 q 294 792 235 775 q 413 809 353 809 q 683 738 583 809 q 794 490 794 658 q 823 73 794 304 l 823 67 q 799 28 823 43 q 736 6 774 14 q 656 -1 698 -1 q 575 6 614 -1 q 511 26 536 13 q 486 58 486 39 l 492 123 q 374 28 439 58 q 246 -2 309 -2 m 420 302 q 463 317 440 302 q 504 371 486 333 q 505 434 504 404 l 463 406 q 405 367 429 385 q 381 330 381 348 q 393 310 382 318 q 420 302 404 302 m 395 882 q 357 903 373 882 q 341 939 341 924 q 344 949 341 945 q 427 1062 387 1003 q 471 1125 451 1097 q 501 1138 483 1138 q 564 1113 531 1138 q 597 1061 597 1088 q 502 951 597 1036 q 413 887 454 910 q 395 882 404 882 z "},"â":{"ha":859,"x_min":19,"x_max":823,"o":"m 246 -2 q 90 50 156 -2 q 19 186 24 101 l 19 190 q 42 272 19 231 q 252 408 93 361 q 382 467 334 431 q 446 595 446 514 q 435 637 446 622 q 410 652 425 652 q 370 620 390 652 q 343 514 349 587 q 308 470 340 484 q 235 456 276 456 q 133 478 181 456 q 80 545 85 501 l 80 555 q 109 663 80 616 q 187 743 138 710 q 294 792 235 775 q 413 809 353 809 q 683 738 583 809 q 794 490 794 658 q 823 73 794 304 l 823 67 q 799 28 823 43 q 736 6 774 14 q 656 -1 698 -1 q 575 6 614 -1 q 511 26 536 13 q 486 58 486 39 l 492 123 q 374 28 439 58 q 246 -2 309 -2 m 420 302 q 463 317 440 302 q 504 371 486 333 q 505 434 504 404 l 463 406 q 405 367 429 385 q 381 330 381 348 q 393 310 382 318 q 420 302 404 302 m 517 882 q 475 903 485 882 q 446 980 462 934 l 427 1029 l 413 992 q 378 903 394 939 q 336 882 368 882 q 274 900 306 882 q 242 944 242 918 q 247 961 242 952 q 318 1066 275 1013 q 392 1154 360 1120 q 426 1166 406 1166 q 460 1154 446 1166 q 535 1066 492 1120 q 607 961 578 1013 q 612 944 612 952 q 579 901 612 919 q 517 882 547 882 z "},"ã":{"ha":859,"x_min":19,"x_max":823,"o":"m 246 -2 q 90 50 156 -2 q 19 186 24 101 l 19 190 q 42 272 19 231 q 252 408 93 361 q 382 467 334 431 q 446 595 446 514 q 435 637 446 622 q 410 652 425 652 q 370 620 390 652 q 343 514 349 587 q 308 470 340 484 q 235 456 276 456 q 133 478 181 456 q 80 545 85 501 l 80 555 q 109 663 80 616 q 187 743 138 710 q 294 792 235 775 q 413 809 353 809 q 683 738 583 809 q 794 490 794 658 q 823 73 794 304 l 823 67 q 799 28 823 43 q 736 6 774 14 q 656 -1 698 -1 q 575 6 614 -1 q 511 26 536 13 q 486 58 486 39 l 492 123 q 374 28 439 58 q 246 -2 309 -2 m 420 302 q 463 317 440 302 q 504 371 486 333 q 505 434 504 404 l 463 406 q 405 367 429 385 q 381 330 381 348 q 393 310 382 318 q 420 302 404 302 m 283 882 l 281 882 q 238 898 252 884 q 225 935 225 913 q 241 990 225 961 q 282 1039 256 1019 q 338 1059 308 1059 q 377 1050 357 1059 q 419 1029 398 1041 q 459 1009 440 1018 q 494 1001 478 1001 q 534 1047 526 1001 q 563 1065 538 1065 q 577 1063 570 1065 q 615 1039 604 1057 q 627 998 627 1021 q 614 945 627 972 q 577 901 601 919 q 524 883 554 883 q 496 890 513 883 q 458 907 478 897 q 408 928 433 918 q 364 938 383 938 q 330 903 332 938 q 315 888 329 894 q 283 882 302 882 z "},"ä":{"ha":859,"x_min":19,"x_max":823,"o":"m 246 -2 q 90 50 156 -2 q 19 186 24 101 l 19 190 q 42 272 19 231 q 252 408 93 361 q 382 467 334 431 q 446 595 446 514 q 435 637 446 622 q 410 652 425 652 q 370 620 390 652 q 343 514 349 587 q 308 470 340 484 q 235 456 276 456 q 133 478 181 456 q 80 545 85 501 l 80 555 q 109 663 80 616 q 187 743 138 710 q 294 792 235 775 q 413 809 353 809 q 683 738 583 809 q 794 490 794 658 q 823 73 794 304 l 823 67 q 799 28 823 43 q 736 6 774 14 q 656 -1 698 -1 q 575 6 614 -1 q 511 26 536 13 q 486 58 486 39 l 492 123 q 374 28 439 58 q 246 -2 309 -2 m 420 302 q 463 317 440 302 q 504 371 486 333 q 505 434 504 404 l 463 406 q 405 367 429 385 q 381 330 381 348 q 393 310 382 318 q 420 302 404 302 m 321 882 q 256 904 286 882 q 226 971 227 926 q 240 1021 226 1001 q 276 1051 254 1041 q 321 1061 298 1061 q 386 1039 357 1061 q 416 970 416 1017 q 402 921 416 941 q 367 892 389 902 q 321 882 345 882 m 530 882 q 466 904 495 882 q 435 971 436 926 q 449 1021 435 1001 q 485 1051 463 1041 q 532 1061 507 1061 q 595 1040 566 1061 q 627 970 626 1016 q 613 922 627 941 q 577 892 599 902 q 530 882 555 882 z "},"å":{"ha":859,"x_min":19,"x_max":823,"o":"m 246 -2 q 90 50 156 -2 q 19 186 24 101 l 19 190 q 42 272 19 231 q 252 408 93 361 q 382 467 334 431 q 446 595 446 514 q 435 637 446 622 q 410 652 425 652 q 370 620 390 652 q 343 514 349 587 q 308 470 340 484 q 235 456 276 456 q 133 478 181 456 q 80 545 85 501 l 80 555 q 109 663 80 616 q 187 743 138 710 q 294 792 235 775 q 413 809 353 809 q 683 738 583 809 q 794 490 794 658 q 823 73 794 304 l 823 67 q 799 28 823 43 q 736 6 774 14 q 656 -1 698 -1 q 575 6 614 -1 q 511 26 536 13 q 486 58 486 39 l 492 123 q 374 28 439 58 q 246 -2 309 -2 m 420 302 q 463 317 440 302 q 504 371 486 333 q 505 434 504 404 l 463 406 q 405 367 429 385 q 381 330 381 348 q 393 310 382 318 q 420 302 404 302 m 426 882 q 340 915 379 882 q 298 1015 301 948 l 298 1020 q 317 1097 298 1065 q 365 1143 336 1128 q 427 1159 395 1159 q 513 1126 474 1159 q 555 1018 554 1089 q 536 943 555 972 q 488 898 517 913 q 426 882 458 882 m 427 941 q 448 954 439 941 q 458 992 458 966 q 448 1044 458 1027 q 427 1062 438 1062 q 406 1045 415 1062 q 396 994 396 1028 q 406 954 396 966 q 427 941 416 941 z "},"æ":{"ha":1353,"x_min":19,"x_max":1423,"o":"m 420 302 q 463 317 440 302 q 504 371 486 333 q 505 434 504 404 l 463 406 q 405 367 429 385 q 381 331 381 348 q 393 310 382 318 q 420 302 404 302 m 1093 595 q 1110 604 1110 595 q 1089 636 1110 625 q 1042 646 1067 646 q 993 636 1015 646 q 967 605 971 625 q 985 595 967 595 l 1093 595 m 246 -2 q 90 50 156 -2 q 19 186 24 101 q 43 272 19 231 q 252 408 94 362 q 382 467 334 431 q 446 595 446 515 q 435 637 446 622 q 410 652 425 652 q 370 620 390 652 q 343 514 349 587 q 308 470 340 484 q 235 456 276 456 q 133 478 181 456 q 80 545 85 501 q 109 663 80 616 q 294 792 166 755 q 413 809 353 809 q 562 792 492 809 q 731 693 673 765 q 1034 807 844 807 q 1166 786 1111 807 q 1257 733 1222 766 q 1310 660 1293 700 q 1326 583 1326 621 l 1326 573 q 1295 491 1323 524 q 1217 458 1267 458 l 981 458 q 951 444 952 458 q 972 388 951 413 q 1024 346 994 362 q 1084 330 1055 330 q 1141 345 1111 330 q 1188 390 1171 361 q 1248 416 1204 416 q 1324 398 1283 416 q 1394 347 1365 379 q 1423 271 1423 314 q 1400 201 1423 239 q 1230 47 1329 94 q 1031 0 1130 0 q 820 51 906 0 q 799 28 814 38 q 656 -1 751 -1 q 575 6 614 -1 q 511 26 536 13 q 486 58 486 39 l 492 123 q 374 28 439 58 q 246 -2 309 -2 z "},"ç":{"ha":835,"x_min":27,"x_max":825,"o":"m 474 -241 q 394 -231 422 -241 q 355 -205 366 -221 q 343 -174 343 -190 q 357 -133 343 -151 q 382 -115 371 -115 l 386 -115 q 422 -125 407 -125 q 447 -118 438 -125 q 456 -103 456 -111 q 446 -88 456 -95 q 410 -81 435 -81 l 387 -82 q 362 -65 362 -82 q 392 3 362 -50 q 203 69 281 15 q 72 220 116 129 q 27 410 27 311 q 53 555 27 484 q 132 682 79 625 q 263 771 184 738 q 449 804 342 804 q 589 782 524 804 q 693 719 654 759 q 733 625 733 678 q 696 553 733 576 q 623 532 662 532 q 565 545 591 532 q 532 585 538 559 q 467 648 515 648 q 369 581 395 648 q 357 516 357 550 q 371 445 357 479 q 415 388 385 410 q 492 363 445 366 q 549 377 520 363 q 597 418 578 391 q 641 437 612 437 q 719 413 675 437 q 794 348 762 388 q 825 258 825 307 q 800 182 825 221 q 693 76 753 116 q 493 3 604 16 q 479 -26 479 -18 q 486 -32 479 -32 q 559 -44 532 -32 q 609 -120 609 -68 q 592 -176 609 -149 q 546 -222 576 -204 q 474 -241 515 -241 z "},"è":{"ha":838,"x_min":27,"x_max":830,"o":"m 500 595 q 518 604 518 595 l 518 606 q 496 636 516 626 q 450 646 475 646 q 401 636 423 646 q 375 605 378 625 q 393 595 375 595 l 500 595 m 439 0 q 258 35 335 0 q 130 128 182 70 q 53 260 79 186 q 27 410 27 333 q 53 555 27 484 q 129 683 78 627 q 258 773 180 740 q 441 807 336 807 q 665 733 585 807 q 717 660 701 700 q 734 583 734 621 q 703 492 734 528 q 625 458 675 458 l 389 458 q 359 444 360 458 q 380 388 359 413 q 432 346 401 362 q 492 330 463 330 q 549 345 519 330 q 596 390 578 361 q 655 416 612 416 q 732 398 691 416 q 801 347 772 379 q 830 271 830 314 q 808 201 830 239 q 637 47 737 94 q 439 0 538 0 m 468 882 q 450 887 459 882 q 362 951 410 910 q 266 1061 266 1035 q 299 1113 266 1088 q 362 1138 332 1138 q 392 1125 380 1138 q 437 1062 412 1097 q 519 949 476 1003 q 522 939 522 945 q 506 903 522 924 q 468 882 490 882 z "},"é":{"ha":838,"x_min":27,"x_max":830,"o":"m 500 595 q 518 604 518 595 l 518 606 q 496 636 516 626 q 450 646 475 646 q 401 636 423 646 q 375 605 378 625 q 393 595 375 595 l 500 595 m 439 0 q 258 35 335 0 q 130 128 182 70 q 53 260 79 186 q 27 410 27 333 q 53 555 27 484 q 129 683 78 627 q 258 773 180 740 q 441 807 336 807 q 665 733 585 807 q 717 660 701 700 q 734 583 734 621 q 703 492 734 528 q 625 458 675 458 l 389 458 q 359 444 360 458 q 380 388 359 413 q 432 346 401 362 q 492 330 463 330 q 549 345 519 330 q 596 390 578 361 q 655 416 612 416 q 732 398 691 416 q 801 347 772 379 q 830 271 830 314 q 808 201 830 239 q 637 47 737 94 q 439 0 538 0 m 406 882 q 367 903 383 882 q 351 939 351 924 q 354 949 351 945 q 437 1062 397 1003 q 481 1125 461 1097 q 511 1138 493 1138 q 574 1113 541 1138 q 608 1061 608 1088 q 512 951 608 1036 q 423 887 464 910 q 406 882 414 882 z "},"ê":{"ha":838,"x_min":27,"x_max":830,"o":"m 500 595 q 518 604 518 595 l 518 606 q 496 636 516 626 q 450 646 475 646 q 401 636 423 646 q 375 605 378 625 q 393 595 375 595 l 500 595 m 439 0 q 258 35 335 0 q 130 128 182 70 q 53 260 79 186 q 27 410 27 333 q 53 555 27 484 q 129 683 78 627 q 258 773 180 740 q 441 807 336 807 q 665 733 585 807 q 717 660 701 700 q 734 583 734 621 q 703 492 734 528 q 625 458 675 458 l 389 458 q 359 444 360 458 q 380 388 359 413 q 432 346 401 362 q 492 330 463 330 q 549 345 519 330 q 596 390 578 361 q 655 416 612 416 q 732 398 691 416 q 801 347 772 379 q 830 271 830 314 q 808 201 830 239 q 637 47 737 94 q 439 0 538 0 m 527 882 q 486 903 495 882 q 456 980 472 934 l 437 1029 l 423 992 q 389 903 404 939 q 347 882 378 882 q 284 900 316 882 q 252 944 252 918 q 257 961 252 952 q 328 1066 286 1013 q 402 1154 370 1120 q 436 1166 416 1166 q 470 1154 456 1166 q 545 1066 502 1120 q 617 961 588 1013 q 622 944 622 952 q 590 901 622 919 q 527 882 557 882 z "},"ë":{"ha":838,"x_min":27,"x_max":830,"o":"m 500 595 q 518 604 518 595 l 518 606 q 496 636 516 626 q 450 646 475 646 q 401 636 423 646 q 375 605 378 625 q 393 595 375 595 l 500 595 m 439 0 q 258 35 335 0 q 130 128 182 70 q 53 260 79 186 q 27 410 27 333 q 53 555 27 484 q 129 683 78 627 q 258 773 180 740 q 441 807 336 807 q 665 733 585 807 q 717 660 701 700 q 734 583 734 621 q 703 492 734 528 q 625 458 675 458 l 389 458 q 359 444 360 458 q 380 388 359 413 q 432 346 401 362 q 492 330 463 330 q 549 345 519 330 q 596 390 578 361 q 655 416 612 416 q 732 398 691 416 q 801 347 772 379 q 830 271 830 314 q 808 201 830 239 q 637 47 737 94 q 439 0 538 0 m 331 882 q 266 904 296 882 q 236 971 237 926 q 250 1021 236 1001 q 286 1051 264 1041 q 332 1061 308 1061 q 396 1039 367 1061 q 427 970 426 1017 q 413 921 427 941 q 377 892 399 902 q 331 882 355 882 m 541 882 q 476 904 505 882 q 446 971 446 926 q 459 1021 446 1001 q 495 1051 473 1041 q 542 1061 517 1061 q 605 1040 576 1061 q 637 970 636 1016 q 623 922 637 941 q 587 892 609 902 q 541 882 565 882 z "},"ì":{"ha":421,"x_min":38,"x_max":370,"o":"m 214 -1 q 139 6 175 -1 q 80 26 103 13 q 57 58 57 39 l 57 60 q 69 323 69 193 q 54 669 69 496 l 54 673 q 77 716 54 699 q 136 743 100 734 q 211 753 172 753 q 281 744 248 753 q 335 715 314 734 q 356 667 356 696 l 356 661 q 347 440 347 551 q 370 73 347 258 l 370 67 q 347 28 370 43 q 289 6 325 14 q 214 -1 254 -1 m 240 882 q 222 887 231 882 q 134 951 182 910 q 38 1061 38 1035 q 71 1113 38 1088 q 134 1138 104 1138 q 164 1125 153 1138 q 209 1062 184 1097 q 292 949 248 1003 q 294 939 294 945 q 278 903 294 924 q 240 882 262 882 z "},"í":{"ha":421,"x_min":54,"x_max":380,"o":"m 214 -1 q 139 6 175 -1 q 80 26 103 13 q 57 58 57 39 l 57 60 q 69 323 69 193 q 54 669 69 496 l 54 673 q 77 716 54 699 q 136 743 100 734 q 211 753 172 753 q 281 744 248 753 q 335 715 314 734 q 356 667 356 696 l 356 661 q 347 440 347 551 q 370 73 347 258 l 370 67 q 347 28 370 43 q 289 6 325 14 q 214 -1 254 -1 m 178 882 q 139 903 155 882 q 123 939 123 924 q 126 949 123 945 q 209 1062 170 1003 q 254 1125 233 1097 q 283 1138 265 1138 q 347 1113 313 1138 q 380 1061 380 1088 q 284 951 380 1036 q 195 887 236 910 q 178 882 186 882 z "},"î":{"ha":421,"x_min":24,"x_max":394,"o":"m 214 -1 q 139 6 175 -1 q 80 26 103 13 q 57 58 57 39 l 57 60 q 69 323 69 193 q 54 669 69 496 l 54 673 q 77 716 54 699 q 136 743 100 734 q 211 753 172 753 q 281 744 248 753 q 335 715 314 734 q 356 667 356 696 l 356 661 q 347 440 347 551 q 370 73 347 258 l 370 67 q 347 28 370 43 q 289 6 325 14 q 214 -1 254 -1 m 299 882 q 258 903 267 882 q 228 980 244 934 l 209 1029 l 195 992 q 161 903 176 939 q 119 882 151 882 q 56 900 88 882 q 24 944 24 918 q 29 961 24 952 q 100 1066 58 1013 q 174 1154 142 1120 q 208 1166 189 1166 q 242 1154 228 1166 q 317 1066 274 1120 q 389 961 360 1013 q 394 944 394 952 q 362 901 394 919 q 299 882 330 882 z "},"ï":{"ha":421,"x_min":8,"x_max":409,"o":"m 214 -1 q 139 6 175 -1 q 80 26 103 13 q 57 58 57 39 l 57 60 q 69 323 69 193 q 54 669 69 496 l 54 673 q 77 716 54 699 q 136 743 100 734 q 211 753 172 753 q 281 744 248 753 q 335 715 314 734 q 356 667 356 696 l 356 661 q 347 440 347 551 q 370 73 347 258 l 370 67 q 347 28 370 43 q 289 6 325 14 q 214 -1 254 -1 m 103 882 q 38 904 68 882 q 8 971 9 926 q 22 1021 8 1001 q 58 1051 36 1041 q 104 1061 80 1061 q 169 1039 139 1061 q 199 970 198 1017 q 185 921 199 941 q 149 892 171 902 q 103 882 127 882 m 313 882 q 248 904 277 882 q 218 971 218 926 q 232 1021 218 1001 q 268 1051 245 1041 q 314 1061 290 1061 q 377 1040 349 1061 q 409 970 408 1016 q 395 922 409 941 q 359 892 381 902 q 313 882 337 882 z "},"ð":{"ha":941,"x_min":19,"x_max":954,"o":"m 477 -7 q 165 58 284 -7 q 19 319 22 138 q 40 440 19 380 q 100 548 60 500 q 198 624 140 595 q 328 652 255 652 q 514 607 412 652 q 510 719 513 664 q 262 705 355 715 l 259 705 q 228 729 239 705 q 216 780 216 753 q 225 819 216 802 q 256 836 235 836 l 501 836 l 496 884 q 519 933 496 914 q 577 961 542 951 q 652 970 613 970 q 733 960 694 970 q 797 933 772 951 q 822 890 822 915 l 819 836 l 913 836 q 944 815 935 836 q 954 770 954 795 q 946 729 954 747 q 923 710 938 710 l 921 710 q 812 718 876 715 q 806 471 806 595 q 827 60 806 267 q 778 34 827 50 q 648 5 728 18 q 477 -7 568 -7 m 482 249 q 507 251 494 249 q 515 479 515 368 q 420 430 453 471 q 387 342 387 388 q 410 277 387 305 q 482 249 433 249 z "},"ñ":{"ha":825,"x_min":47,"x_max":785,"o":"m 618 -1 q 537 6 576 -1 q 473 26 498 13 q 448 58 448 39 l 448 60 q 459 243 457 149 q 461 426 461 336 l 461 493 q 445 543 461 526 q 410 560 429 560 q 373 541 389 560 q 355 480 356 521 l 355 454 q 384 73 355 290 l 385 67 q 360 28 385 43 q 297 6 336 14 q 217 -1 259 -1 q 136 6 175 -1 q 72 26 97 13 q 47 58 47 39 l 47 60 q 69 411 69 258 q 54 724 69 550 l 54 728 q 78 771 54 753 q 139 799 102 789 q 217 808 177 808 q 291 799 256 808 q 347 771 326 790 q 369 722 369 751 l 368 704 q 448 769 404 747 q 538 791 492 791 q 648 758 595 791 q 733 661 700 725 q 766 505 766 597 q 764 458 766 482 q 762 395 762 429 q 770 216 762 308 q 785 73 778 123 l 785 67 q 761 28 785 43 q 698 6 736 14 q 618 -1 660 -1 m 273 882 l 271 882 q 228 898 241 884 q 215 935 215 913 q 231 990 215 961 q 272 1039 246 1019 q 328 1059 298 1059 q 367 1050 347 1059 q 409 1029 388 1041 q 449 1009 430 1018 q 484 1001 468 1001 q 524 1047 515 1001 q 553 1065 528 1065 q 567 1063 559 1065 q 605 1039 593 1057 q 617 998 617 1021 q 604 945 617 972 q 567 901 591 919 q 514 883 544 883 q 486 890 503 883 q 448 907 468 897 q 398 928 422 918 q 354 938 373 938 q 320 903 322 938 q 305 888 319 894 q 273 882 292 882 z "},"ò":{"ha":820,"x_min":31,"x_max":790,"o":"m 412 -9 q 273 17 341 -9 q 150 94 205 43 q 63 222 96 146 q 31 401 31 299 q 91 634 33 542 q 231 763 146 720 q 410 806 317 806 q 549 781 481 806 q 671 706 617 756 q 758 582 726 656 q 790 408 790 507 q 729 167 788 262 q 590 35 675 79 q 412 -9 505 -9 m 410 363 q 457 401 436 363 q 479 513 477 439 q 457 607 479 576 q 411 638 436 638 q 364 607 385 638 q 342 514 342 576 q 365 401 345 438 q 410 363 385 363 m 442 882 q 425 887 433 882 q 336 951 384 910 q 240 1061 240 1035 q 273 1113 240 1088 q 336 1138 307 1138 q 366 1125 355 1138 q 411 1062 387 1097 q 494 949 450 1003 q 496 939 496 945 q 480 903 496 924 q 442 882 465 882 z "},"ó":{"ha":820,"x_min":31,"x_max":790,"o":"m 412 -9 q 273 17 341 -9 q 150 94 205 43 q 63 222 96 146 q 31 401 31 299 q 91 634 33 542 q 231 763 146 720 q 410 806 317 806 q 549 781 481 806 q 671 706 617 756 q 758 582 726 656 q 790 408 790 507 q 729 167 788 262 q 590 35 675 79 q 412 -9 505 -9 m 410 363 q 457 401 436 363 q 479 513 477 439 q 457 607 479 576 q 411 638 436 638 q 364 607 385 638 q 342 514 342 576 q 365 401 345 438 q 410 363 385 363 m 380 882 q 341 903 357 882 q 326 939 326 924 q 328 949 326 945 q 411 1062 372 1003 q 456 1125 435 1097 q 486 1138 467 1138 q 549 1113 515 1138 q 582 1061 582 1088 q 486 951 582 1036 q 397 887 438 910 q 380 882 389 882 z "},"ô":{"ha":820,"x_min":31,"x_max":790,"o":"m 412 -9 q 273 17 341 -9 q 150 94 205 43 q 63 222 96 146 q 31 401 31 299 q 91 634 33 542 q 231 763 146 720 q 410 806 317 806 q 549 781 481 806 q 671 706 617 756 q 758 582 726 656 q 790 408 790 507 q 729 167 788 262 q 590 35 675 79 q 412 -9 505 -9 m 410 363 q 457 401 436 363 q 479 513 477 439 q 457 607 479 576 q 411 638 436 638 q 364 607 385 638 q 342 514 342 576 q 365 401 345 438 q 410 363 385 363 m 501 882 q 460 903 469 882 q 430 980 446 934 l 411 1029 l 397 992 q 363 903 378 939 q 321 882 353 882 q 258 900 290 882 q 227 944 227 918 q 231 961 227 952 q 302 1066 260 1013 q 376 1154 345 1120 q 410 1166 391 1166 q 444 1154 430 1166 q 519 1066 476 1120 q 591 961 562 1013 q 596 944 596 952 q 564 901 596 919 q 501 882 532 882 z "},"õ":{"ha":820,"x_min":31,"x_max":790,"o":"m 412 -9 q 273 17 341 -9 q 150 94 205 43 q 63 222 96 146 q 31 401 31 299 q 91 634 33 542 q 231 763 146 720 q 410 806 317 806 q 549 781 481 806 q 671 706 617 756 q 758 582 726 656 q 790 408 790 507 q 729 167 788 262 q 590 35 675 79 q 412 -9 505 -9 m 410 363 q 457 401 436 363 q 479 513 477 439 q 457 607 479 576 q 411 638 436 638 q 364 607 385 638 q 342 514 342 576 q 365 401 345 438 q 410 363 385 363 m 268 882 l 265 882 q 223 898 236 884 q 210 935 210 913 q 225 990 210 961 q 267 1039 241 1019 q 323 1059 292 1059 q 362 1050 341 1059 q 404 1029 382 1041 q 444 1009 425 1018 q 478 1001 463 1001 q 519 1047 510 1001 q 547 1065 523 1065 q 562 1063 554 1065 q 600 1039 588 1057 q 612 998 612 1021 q 598 945 612 972 q 562 901 585 919 q 509 883 538 883 q 480 890 498 883 q 442 907 463 897 q 392 928 417 918 q 349 938 368 938 q 315 903 317 938 q 300 888 313 894 q 268 882 286 882 z "},"ö":{"ha":820,"x_min":31,"x_max":790,"o":"m 412 -9 q 273 17 341 -9 q 150 94 205 43 q 63 222 96 146 q 31 401 31 299 q 91 634 33 542 q 231 763 146 720 q 410 806 317 806 q 549 781 481 806 q 671 706 617 756 q 758 582 726 656 q 790 408 790 507 q 729 167 788 262 q 590 35 675 79 q 412 -9 505 -9 m 410 363 q 457 401 436 363 q 479 513 477 439 q 457 607 479 576 q 411 638 436 638 q 364 607 385 638 q 342 514 342 576 q 365 401 345 438 q 410 363 385 363 m 305 882 q 240 904 270 882 q 210 971 211 926 q 224 1021 210 1001 q 260 1051 238 1041 q 306 1061 282 1061 q 371 1039 341 1061 q 401 970 400 1017 q 387 921 401 941 q 351 892 373 902 q 305 882 329 882 m 515 882 q 450 904 479 882 q 420 971 420 926 q 434 1021 420 1001 q 470 1051 448 1041 q 516 1061 492 1061 q 579 1040 551 1061 q 611 970 610 1016 q 597 922 611 941 q 561 892 583 902 q 515 882 539 882 z "},"÷":{"ha":671,"x_min":34,"x_max":637,"o":"m 590 405 l 587 405 q 336 418 460 418 q 85 405 211 418 l 81 405 q 46 428 58 405 q 34 480 34 451 q 49 536 34 510 q 96 562 64 562 l 576 562 q 623 536 608 562 q 637 480 637 510 q 625 428 637 451 q 590 405 613 405 m 336 589 q 253 619 287 589 q 218 692 218 650 q 253 766 218 736 q 336 797 287 797 q 419 766 385 797 q 453 692 453 736 q 419 619 453 650 q 336 589 385 589 m 336 173 q 253 203 287 173 q 218 277 218 234 q 253 351 218 320 q 336 381 287 381 q 419 351 385 381 q 453 277 453 320 q 419 203 453 234 q 336 173 385 173 z "},"ø":{"ha":813,"x_min":25,"x_max":784,"o":"m 334 -91 q 276 -79 304 -91 q 248 -50 248 -68 q 265 18 249 -45 q 143 95 197 44 q 57 223 90 146 q 25 401 25 300 q 85 634 26 542 q 224 764 140 720 q 404 807 309 807 l 408 857 q 427 881 410 873 q 466 888 444 888 q 530 874 498 888 q 562 838 562 861 q 559 827 562 833 q 544 781 552 808 q 666 706 612 756 q 752 581 720 656 q 784 408 784 507 q 724 168 782 262 q 584 35 669 79 q 406 -9 498 -9 l 396 -9 l 393 -56 q 374 -82 392 -74 q 334 -91 357 -91 m 404 363 q 450 399 429 363 q 473 514 472 439 q 452 607 473 576 q 405 638 431 638 q 358 607 380 638 q 337 514 337 576 q 360 398 338 436 q 404 363 380 363 z "},"ù":{"ha":832,"x_min":37,"x_max":787,"o":"m 620 -1 q 539 6 578 -1 q 475 26 500 13 q 450 58 450 39 l 454 96 q 373 24 418 48 q 281 0 328 0 q 172 36 224 0 q 89 140 121 73 q 56 300 56 207 q 58 347 56 323 q 60 412 60 376 q 52 590 60 498 q 37 734 44 682 l 37 739 q 61 777 37 762 q 124 800 85 792 q 203 807 162 807 q 285 800 246 807 q 349 780 324 793 q 374 748 374 766 l 374 745 q 363 595 365 660 q 361 455 361 531 l 361 393 q 376 341 361 358 q 412 323 392 323 q 453 346 433 323 q 472 411 472 368 q 456 724 472 551 l 456 728 q 480 771 456 753 q 542 798 505 789 q 621 808 580 808 q 694 799 659 808 q 751 771 729 790 q 772 722 772 751 l 772 715 q 757 444 757 568 q 787 73 757 285 l 787 67 q 763 28 787 43 q 700 6 739 14 q 620 -1 662 -1 m 444 882 q 426 887 435 882 q 338 951 385 910 q 241 1061 241 1035 q 275 1113 241 1088 q 338 1138 308 1138 q 368 1125 356 1138 q 412 1062 388 1097 q 495 949 452 1003 q 498 939 498 945 q 482 903 498 924 q 444 882 466 882 z "},"ú":{"ha":832,"x_min":37,"x_max":787,"o":"m 620 -1 q 539 6 578 -1 q 475 26 500 13 q 450 58 450 39 l 454 96 q 373 24 418 48 q 281 0 328 0 q 172 36 224 0 q 89 140 121 73 q 56 300 56 207 q 58 347 56 323 q 60 412 60 376 q 52 590 60 498 q 37 734 44 682 l 37 739 q 61 777 37 762 q 124 800 85 792 q 203 807 162 807 q 285 800 246 807 q 349 780 324 793 q 374 748 374 766 l 374 745 q 363 595 365 660 q 361 455 361 531 l 361 393 q 376 341 361 358 q 412 323 392 323 q 453 346 433 323 q 472 411 472 368 q 456 724 472 551 l 456 728 q 480 771 456 753 q 542 798 505 789 q 621 808 580 808 q 694 799 659 808 q 751 771 729 790 q 772 722 772 751 l 772 715 q 757 444 757 568 q 787 73 757 285 l 787 67 q 763 28 787 43 q 700 6 739 14 q 620 -1 662 -1 m 381 882 q 343 903 359 882 q 327 939 327 924 q 330 949 327 945 q 412 1062 373 1003 q 457 1125 437 1097 q 487 1138 469 1138 q 550 1113 517 1138 q 583 1061 583 1088 q 488 951 583 1036 q 399 887 439 910 q 381 882 390 882 z "},"û":{"ha":832,"x_min":37,"x_max":787,"o":"m 620 -1 q 539 6 578 -1 q 475 26 500 13 q 450 58 450 39 l 454 96 q 373 24 418 48 q 281 0 328 0 q 172 36 224 0 q 89 140 121 73 q 56 300 56 207 q 58 347 56 323 q 60 412 60 376 q 52 590 60 498 q 37 734 44 682 l 37 739 q 61 777 37 762 q 124 800 85 792 q 203 807 162 807 q 285 800 246 807 q 349 780 324 793 q 374 748 374 766 l 374 745 q 363 595 365 660 q 361 455 361 531 l 361 393 q 376 341 361 358 q 412 323 392 323 q 453 346 433 323 q 472 411 472 368 q 456 724 472 551 l 456 728 q 480 771 456 753 q 542 798 505 789 q 621 808 580 808 q 694 799 659 808 q 751 771 729 790 q 772 722 772 751 l 772 715 q 757 444 757 568 q 787 73 757 285 l 787 67 q 763 28 787 43 q 700 6 739 14 q 620 -1 662 -1 m 503 882 q 461 903 471 882 q 431 980 448 934 l 412 1029 l 399 992 q 364 903 380 939 q 322 882 354 882 q 260 900 292 882 q 228 944 228 918 q 233 961 228 952 q 303 1066 261 1013 q 378 1154 346 1120 q 412 1166 392 1166 q 446 1154 431 1166 q 520 1066 477 1120 q 593 961 564 1013 q 597 944 597 952 q 565 901 597 919 q 503 882 533 882 z "},"ü":{"ha":832,"x_min":37,"x_max":787,"o":"m 620 -1 q 539 6 578 -1 q 475 26 500 13 q 450 58 450 39 l 454 96 q 373 24 418 48 q 281 0 328 0 q 172 36 224 0 q 89 140 121 73 q 56 300 56 207 q 58 347 56 323 q 60 412 60 376 q 52 590 60 498 q 37 734 44 682 l 37 739 q 61 777 37 762 q 124 800 85 792 q 203 807 162 807 q 285 800 246 807 q 349 780 324 793 q 374 748 374 766 l 374 745 q 363 595 365 660 q 361 455 361 531 l 361 393 q 376 341 361 358 q 412 323 392 323 q 453 346 433 323 q 472 411 472 368 q 456 724 472 551 l 456 728 q 480 771 456 753 q 542 798 505 789 q 621 808 580 808 q 694 799 659 808 q 751 771 729 790 q 772 722 772 751 l 772 715 q 757 444 757 568 q 787 73 757 285 l 787 67 q 763 28 787 43 q 700 6 739 14 q 620 -1 662 -1 m 307 882 q 242 904 271 882 q 212 971 212 926 q 225 1021 212 1001 q 261 1051 239 1041 q 307 1061 283 1061 q 372 1039 342 1061 q 402 970 401 1017 q 388 921 402 941 q 352 892 374 902 q 307 882 330 882 m 516 882 q 451 904 481 882 q 421 971 422 926 q 435 1021 421 1001 q 471 1051 449 1041 q 517 1061 493 1061 q 581 1040 552 1061 q 612 970 612 1016 q 598 922 612 941 q 563 892 585 902 q 516 882 541 882 z "},"ý":{"ha":852,"x_min":39,"x_max":800,"o":"m 433 -179 l 414 -179 q 242 -157 311 -179 q 131 -99 172 -135 q 71 -19 89 -62 q 52 67 52 24 q 84 179 52 131 q 161 227 117 227 q 211 208 185 227 q 312 174 258 174 q 433 223 378 174 q 494 363 488 272 l 494 383 q 488 415 494 415 q 457 374 479 415 q 371 280 420 313 q 269 248 321 248 q 148 279 196 248 q 75 361 99 311 q 51 469 51 412 l 52 492 q 54 544 54 518 q 43 701 54 605 l 39 741 q 61 780 39 765 q 191 808 103 808 q 299 794 250 808 q 349 756 349 780 q 348 712 349 746 q 345 639 347 678 q 344 576 344 600 q 358 517 344 537 q 392 496 373 496 q 433 526 414 496 q 452 617 452 555 q 445 692 452 650 q 444 709 444 701 q 470 766 444 744 q 538 799 496 789 q 625 810 580 810 q 709 801 669 810 q 774 774 749 791 q 800 734 800 758 l 800 730 q 783 292 783 554 q 785 132 783 205 l 785 119 q 755 -12 785 43 q 674 -104 724 -67 q 561 -159 623 -140 q 433 -179 498 -178 m 388 882 q 350 903 366 882 q 334 939 334 924 q 336 949 334 945 q 419 1062 380 1003 q 464 1125 444 1097 q 494 1138 475 1138 q 557 1113 524 1138 q 590 1061 590 1088 q 494 951 590 1036 q 406 887 446 910 q 388 882 397 882 z "},"þ":{"ha":861,"x_min":49,"x_max":838,"o":"m 224 -163 q 143 -156 182 -163 q 79 -136 104 -149 q 54 -104 54 -123 l 54 -102 q 71 326 71 88 q 49 941 71 661 l 49 945 q 74 988 49 970 q 137 1015 98 1006 q 217 1025 176 1025 q 293 1016 257 1025 q 351 987 329 1006 q 374 939 374 968 l 374 932 q 363 736 366 850 q 547 809 455 809 q 663 777 610 809 q 755 693 716 745 q 816 578 794 642 q 838 451 838 515 l 838 438 q 815 332 836 388 q 756 227 794 277 q 666 145 719 177 q 545 113 612 113 q 369 169 460 113 q 391 -90 376 24 l 391 -96 q 367 -134 391 -119 q 304 -156 342 -149 q 224 -163 266 -163 m 428 423 q 460 437 448 423 q 479 471 473 450 q 485 514 485 492 q 474 570 485 545 q 441 595 463 595 q 359 519 406 595 l 360 457 q 428 423 401 423 z "},"ÿ":{"ha":852,"x_min":39,"x_max":800,"o":"m 433 -179 l 414 -179 q 242 -157 311 -179 q 131 -99 172 -135 q 71 -19 89 -62 q 52 67 52 24 q 84 179 52 131 q 161 227 117 227 q 211 208 185 227 q 312 174 258 174 q 433 223 378 174 q 494 363 488 272 l 494 383 q 488 415 494 415 q 457 374 479 415 q 371 280 420 313 q 269 248 321 248 q 148 279 196 248 q 75 361 99 311 q 51 469 51 412 l 52 492 q 54 544 54 518 q 43 701 54 605 l 39 741 q 61 780 39 765 q 191 808 103 808 q 299 794 250 808 q 349 756 349 780 q 348 712 349 746 q 345 639 347 678 q 344 576 344 600 q 358 517 344 537 q 392 496 373 496 q 433 526 414 496 q 452 617 452 555 q 445 692 452 650 q 444 709 444 701 q 470 766 444 744 q 538 799 496 789 q 625 810 580 810 q 709 801 669 810 q 774 774 749 791 q 800 734 800 758 l 800 730 q 783 292 783 554 q 785 132 783 205 l 785 119 q 755 -12 785 43 q 674 -104 724 -67 q 561 -159 623 -140 q 433 -179 498 -178 m 313 882 q 249 904 278 882 q 218 971 219 926 q 232 1021 218 1001 q 268 1051 246 1041 q 314 1061 290 1061 q 379 1039 349 1061 q 409 970 408 1017 q 395 921 409 941 q 359 892 381 902 q 313 882 337 882 m 523 882 q 458 904 488 882 q 428 971 429 926 q 442 1021 428 1001 q 478 1051 456 1041 q 524 1061 500 1061 q 587 1040 559 1061 q 619 970 618 1016 q 605 922 619 941 q 569 892 591 902 q 523 882 547 882 z "},"Ā":{"ha":894,"x_min":-5,"x_max":880,"o":"m 437 451 q 455 461 448 451 q 463 493 463 472 l 463 506 q 437 629 448 629 q 413 505 426 629 l 412 492 q 420 461 412 472 q 437 451 428 451 m 678 0 q 566 16 616 0 q 510 60 517 33 q 488 224 498 137 q 471 261 485 250 q 441 272 458 272 q 406 261 422 272 q 387 233 390 250 q 365 60 378 140 q 309 16 358 33 q 197 0 260 0 q 102 12 149 0 q 25 48 56 23 q -5 113 -5 73 q 2 150 -5 130 q 116 506 65 334 q 208 892 167 677 q 286 957 220 935 q 431 978 351 978 q 585 956 515 978 q 667 892 655 934 q 761 499 712 667 q 873 150 810 332 q 880 113 880 130 q 850 48 880 73 q 773 12 820 23 q 678 0 727 0 m 604 1045 l 602 1045 q 433 1055 509 1055 q 264 1045 357 1055 l 261 1045 q 234 1063 243 1045 q 224 1105 224 1082 q 236 1149 224 1128 q 273 1169 248 1169 l 593 1169 q 630 1149 618 1169 q 642 1104 642 1128 q 632 1063 642 1082 q 604 1045 623 1045 z "},"ā":{"ha":859,"x_min":19,"x_max":823,"o":"m 246 -2 q 90 50 156 -2 q 19 186 24 101 l 19 190 q 42 272 19 231 q 252 408 93 361 q 382 467 334 431 q 446 595 446 514 q 435 637 446 622 q 410 652 425 652 q 370 620 390 652 q 343 514 349 587 q 308 470 340 484 q 235 456 276 456 q 133 478 181 456 q 80 545 85 501 l 80 555 q 109 663 80 616 q 187 743 138 710 q 294 792 235 775 q 413 809 353 809 q 683 738 583 809 q 794 490 794 658 q 823 73 794 304 l 823 67 q 799 28 823 43 q 736 6 774 14 q 656 -1 698 -1 q 575 6 614 -1 q 511 26 536 13 q 486 58 486 39 l 492 123 q 374 28 439 58 q 246 -2 309 -2 m 420 302 q 463 317 440 302 q 504 371 486 333 q 505 434 504 404 l 463 406 q 405 367 429 385 q 381 330 381 348 q 393 310 382 318 q 420 302 404 302 m 598 882 l 595 882 q 427 892 503 892 q 258 882 351 892 l 255 882 q 228 901 237 882 q 218 942 218 919 q 230 986 218 966 q 267 1006 241 1006 l 587 1006 q 624 986 612 1006 q 636 941 636 966 q 626 901 636 919 q 598 882 616 882 z "},"Ă":{"ha":894,"x_min":-5,"x_max":880,"o":"m 437 451 q 455 461 448 451 q 463 493 463 472 l 463 506 q 437 629 448 629 q 413 505 426 629 l 412 492 q 420 461 412 472 q 437 451 428 451 m 678 0 q 566 16 616 0 q 510 60 517 33 q 488 224 498 137 q 471 261 485 250 q 441 272 458 272 q 406 261 422 272 q 387 233 390 250 q 365 60 378 140 q 309 16 358 33 q 197 0 260 0 q 102 12 149 0 q 25 48 56 23 q -5 113 -5 73 q 2 150 -5 130 q 116 506 65 334 q 208 892 167 677 q 286 957 220 935 q 431 978 351 978 q 585 956 515 978 q 667 892 655 934 q 761 499 712 667 q 873 150 810 332 q 880 113 880 130 q 850 48 880 73 q 773 12 820 23 q 678 0 727 0 m 433 1045 q 343 1060 386 1045 q 274 1105 301 1075 q 248 1180 248 1135 l 248 1195 q 270 1235 252 1223 q 307 1246 287 1246 q 340 1239 326 1246 q 354 1227 354 1233 l 354 1225 q 351 1206 351 1215 q 376 1160 351 1175 q 432 1144 401 1144 q 488 1160 463 1144 q 513 1206 513 1175 q 510 1225 513 1215 l 510 1227 q 525 1239 510 1233 q 557 1246 539 1246 q 595 1235 577 1246 q 616 1195 612 1223 l 617 1180 q 590 1105 617 1135 q 521 1060 564 1075 q 433 1045 479 1045 z "},"ă":{"ha":859,"x_min":19,"x_max":823,"o":"m 246 -2 q 90 50 156 -2 q 19 186 24 101 l 19 190 q 42 272 19 231 q 252 408 93 361 q 382 467 334 431 q 446 595 446 514 q 435 637 446 622 q 410 652 425 652 q 370 620 390 652 q 343 514 349 587 q 308 470 340 484 q 235 456 276 456 q 133 478 181 456 q 80 545 85 501 l 80 555 q 109 663 80 616 q 187 743 138 710 q 294 792 235 775 q 413 809 353 809 q 683 738 583 809 q 794 490 794 658 q 823 73 794 304 l 823 67 q 799 28 823 43 q 736 6 774 14 q 656 -1 698 -1 q 575 6 614 -1 q 511 26 536 13 q 486 58 486 39 l 492 123 q 374 28 439 58 q 246 -2 309 -2 m 420 302 q 463 317 440 302 q 504 371 486 333 q 505 434 504 404 l 463 406 q 405 367 429 385 q 381 330 381 348 q 393 310 382 318 q 420 302 404 302 m 427 882 q 337 897 380 882 q 268 942 295 912 q 241 1017 241 972 l 242 1032 q 263 1072 246 1061 q 300 1083 281 1083 q 334 1077 319 1083 q 348 1064 348 1070 l 348 1063 q 345 1043 345 1053 q 370 997 345 1013 q 426 981 395 981 q 481 997 456 981 q 507 1043 507 1013 q 504 1063 507 1053 l 504 1064 q 518 1077 504 1070 q 551 1083 533 1083 q 589 1072 571 1083 q 610 1032 606 1061 l 611 1017 q 584 942 611 972 q 515 897 557 912 q 427 882 473 882 z "},"Ą":{"ha":894,"x_min":-5,"x_max":880,"o":"m 437 451 q 455 461 448 451 q 463 493 463 472 l 463 506 q 437 629 448 629 q 413 505 426 629 l 412 492 q 420 461 412 472 q 437 451 428 451 m 703 -273 q 644 -259 672 -273 q 583 -145 583 -229 q 637 2 583 -67 q 566 16 599 5 q 510 60 517 33 q 488 224 498 137 q 471 261 485 250 q 441 272 458 272 q 406 261 422 272 q 387 233 390 250 q 365 60 378 140 q 309 16 358 33 q 197 0 260 0 q 102 12 149 0 q 25 48 56 23 q -5 113 -5 73 q 2 150 -5 130 q 116 506 65 334 q 208 892 167 677 q 286 957 220 935 q 431 978 351 978 q 585 956 515 978 q 667 892 655 934 q 761 499 712 667 q 873 150 810 332 q 880 113 880 130 q 850 48 880 73 q 728 3 808 13 q 698 -72 698 -47 q 733 -101 698 -101 q 775 -92 753 -101 q 808 -73 798 -83 q 825 -64 817 -64 q 844 -81 836 -64 q 852 -124 852 -98 q 830 -206 852 -173 q 773 -256 808 -239 q 703 -273 739 -273 z "},"ą":{"ha":859,"x_min":19,"x_max":882,"o":"m 420 302 q 463 317 440 302 q 504 371 486 333 q 505 434 504 404 l 463 406 q 405 367 429 385 q 381 331 381 348 q 393 310 382 318 q 420 302 404 302 m 732 -259 q 674 -245 701 -259 q 629 -204 646 -232 q 612 -132 612 -176 q 654 -1 615 -58 q 574 6 613 -1 q 511 26 536 13 q 486 58 486 39 l 492 123 q 374 28 439 58 q 246 -2 309 -2 q 90 50 156 -2 q 19 186 24 101 q 43 272 19 231 q 252 408 94 362 q 382 467 334 431 q 446 595 446 515 q 435 637 446 622 q 410 652 425 652 q 370 620 390 652 q 343 514 349 587 q 308 470 340 484 q 235 456 276 456 q 133 478 181 456 q 80 545 85 501 q 109 663 80 616 q 294 792 166 755 q 413 809 353 809 q 683 738 583 809 q 794 490 794 659 q 823 67 794 301 q 755 11 823 28 q 728 -58 728 -35 q 763 -87 728 -87 q 805 -79 783 -87 q 838 -59 827 -70 q 854 -51 847 -51 q 874 -67 866 -51 q 882 -111 882 -84 q 860 -192 882 -159 q 803 -242 838 -225 q 732 -259 769 -259 z "},"Ć":{"ha":885,"x_min":15,"x_max":867,"o":"m 450 -10 q 261 33 342 -10 q 125 146 180 75 q 43 307 71 218 q 15 490 15 397 q 42 669 15 582 q 124 825 69 755 q 261 936 178 895 q 456 977 345 977 q 617 946 542 977 q 740 862 693 916 q 787 739 787 809 q 762 672 787 701 q 702 625 738 642 q 631 608 665 608 q 574 626 598 608 q 546 684 550 644 q 518 764 541 739 q 466 789 496 789 q 403 765 428 789 q 366 702 378 741 q 353 619 353 663 q 371 514 353 566 q 421 429 388 463 q 505 395 455 395 q 605 462 566 395 q 648 479 617 479 q 714 467 677 479 q 786 430 751 454 q 844 372 821 406 q 867 298 867 339 q 845 223 867 263 q 730 87 795 139 q 592 13 665 36 q 450 -10 519 -10 m 422 1045 q 384 1066 399 1045 q 368 1102 368 1087 q 370 1112 368 1108 q 453 1225 414 1166 q 498 1288 477 1260 q 528 1301 509 1301 q 591 1276 557 1301 q 624 1223 624 1251 q 528 1114 624 1198 q 439 1050 480 1073 q 422 1045 431 1045 z "},"ć":{"ha":835,"x_min":27,"x_max":825,"o":"m 441 0 l 418 1 q 203 69 290 9 q 72 220 116 129 q 27 410 27 311 q 53 555 27 484 q 132 682 79 625 q 263 771 184 738 q 449 804 342 804 q 589 782 524 804 q 693 719 654 759 q 733 625 733 678 q 695 553 732 575 q 623 532 662 532 q 565 545 591 532 q 532 585 538 559 q 467 648 515 648 l 463 648 q 404 629 428 648 q 369 580 380 610 q 357 516 357 550 q 371 445 357 479 q 415 388 385 410 q 494 363 447 363 q 549 377 520 363 q 597 418 578 391 q 641 437 612 437 q 719 413 675 437 q 794 348 762 388 q 825 258 825 307 q 800 182 825 221 q 693 76 753 116 q 569 18 633 36 q 441 0 504 0 m 412 882 q 374 903 390 882 q 358 939 358 924 q 361 949 358 945 q 444 1062 404 1003 q 488 1125 468 1097 q 518 1138 500 1138 q 581 1113 548 1138 q 614 1061 614 1088 q 519 951 614 1036 q 430 887 471 910 q 412 882 421 882 z "},"Ĉ":{"ha":885,"x_min":15,"x_max":867,"o":"m 450 -10 q 261 33 342 -10 q 125 146 180 75 q 43 307 71 218 q 15 490 15 397 q 42 669 15 582 q 124 825 69 755 q 261 936 178 895 q 456 977 345 977 q 617 946 542 977 q 740 862 693 916 q 787 739 787 809 q 762 672 787 701 q 702 625 738 642 q 631 608 665 608 q 574 626 598 608 q 546 684 550 644 q 518 764 541 739 q 466 789 496 789 q 403 765 428 789 q 366 702 378 741 q 353 619 353 663 q 371 514 353 566 q 421 429 388 463 q 505 395 455 395 q 605 462 566 395 q 648 479 617 479 q 714 467 677 479 q 786 430 751 454 q 844 372 821 406 q 867 298 867 339 q 845 223 867 263 q 730 87 795 139 q 592 13 665 36 q 450 -10 519 -10 m 543 1045 q 502 1065 511 1045 q 472 1143 488 1097 l 453 1192 l 439 1155 q 405 1065 420 1101 q 363 1045 395 1045 q 300 1063 332 1045 q 269 1107 269 1081 q 273 1124 269 1115 q 344 1229 302 1175 q 418 1316 387 1282 q 452 1329 433 1329 q 486 1316 472 1329 q 561 1229 518 1282 q 633 1124 604 1175 q 638 1107 638 1115 q 606 1063 638 1082 q 543 1045 574 1045 z "},"ĉ":{"ha":835,"x_min":27,"x_max":825,"o":"m 441 0 l 418 1 q 203 69 290 9 q 72 220 116 129 q 27 410 27 311 q 53 555 27 484 q 132 682 79 625 q 263 771 184 738 q 449 804 342 804 q 589 782 524 804 q 693 719 654 759 q 733 625 733 678 q 695 553 732 575 q 623 532 662 532 q 565 545 591 532 q 532 585 538 559 q 467 648 515 648 l 463 648 q 404 629 428 648 q 369 580 380 610 q 357 516 357 550 q 371 445 357 479 q 415 388 385 410 q 494 363 447 363 q 549 377 520 363 q 597 418 578 391 q 641 437 612 437 q 719 413 675 437 q 794 348 762 388 q 825 258 825 307 q 800 182 825 221 q 693 76 753 116 q 569 18 633 36 q 441 0 504 0 m 534 882 q 492 903 502 882 q 463 980 479 934 l 444 1029 l 430 992 q 395 903 411 939 q 353 882 385 882 q 291 900 323 882 q 259 944 259 918 q 264 961 259 952 q 335 1066 292 1013 q 409 1154 377 1120 q 443 1166 423 1166 q 477 1154 463 1166 q 552 1066 509 1120 q 624 961 595 1013 q 629 944 629 952 q 596 901 629 919 q 534 882 564 882 z "},"Ċ":{"ha":885,"x_min":15,"x_max":867,"o":"m 450 -10 q 261 33 342 -10 q 125 146 180 75 q 43 307 71 218 q 15 490 15 397 q 42 669 15 582 q 124 825 69 755 q 261 936 178 895 q 456 977 345 977 q 617 946 542 977 q 740 862 693 916 q 787 739 787 809 q 762 672 787 701 q 702 625 738 642 q 631 608 665 608 q 574 626 598 608 q 546 684 550 644 q 518 764 541 739 q 466 789 496 789 q 403 765 428 789 q 366 702 378 741 q 353 619 353 663 q 371 514 353 566 q 421 429 388 463 q 505 395 455 395 q 605 462 566 395 q 648 479 617 479 q 714 467 677 479 q 786 430 751 454 q 844 372 821 406 q 867 298 867 339 q 845 223 867 263 q 730 87 795 139 q 592 13 665 36 q 450 -10 519 -10 m 452 1045 q 388 1067 417 1045 q 357 1134 358 1089 q 371 1184 357 1164 q 407 1214 385 1204 q 453 1224 429 1224 q 518 1202 488 1224 q 548 1133 547 1179 q 534 1084 548 1103 q 498 1055 520 1065 q 452 1045 476 1045 z "},"ċ":{"ha":835,"x_min":27,"x_max":825,"o":"m 441 0 l 418 1 q 203 69 290 9 q 72 220 116 129 q 27 410 27 311 q 53 555 27 484 q 132 682 79 625 q 263 771 184 738 q 449 804 342 804 q 589 782 524 804 q 693 719 654 759 q 733 625 733 678 q 695 553 732 575 q 623 532 662 532 q 565 545 591 532 q 532 585 538 559 q 467 648 515 648 l 463 648 q 404 629 428 648 q 369 580 380 610 q 357 516 357 550 q 371 445 357 479 q 415 388 385 410 q 494 363 447 363 q 549 377 520 363 q 597 418 578 391 q 641 437 612 437 q 719 413 675 437 q 794 348 762 388 q 825 258 825 307 q 800 182 825 221 q 693 76 753 116 q 569 18 633 36 q 441 0 504 0 m 443 882 q 378 904 408 882 q 348 971 349 926 q 362 1021 348 1001 q 398 1051 376 1041 q 444 1061 420 1061 q 508 1039 479 1061 q 538 970 538 1017 q 525 921 538 941 q 489 892 511 902 q 443 882 467 882 z "},"Č":{"ha":885,"x_min":15,"x_max":867,"o":"m 450 -10 q 261 33 342 -10 q 125 146 180 75 q 43 307 71 218 q 15 490 15 397 q 42 669 15 582 q 124 825 69 755 q 261 936 178 895 q 456 977 345 977 q 617 946 542 977 q 740 862 693 916 q 787 739 787 809 q 762 672 787 701 q 702 625 738 642 q 631 608 665 608 q 574 626 598 608 q 546 684 550 644 q 518 764 541 739 q 466 789 496 789 q 403 765 428 789 q 366 702 378 741 q 353 619 353 663 q 371 514 353 566 q 421 429 388 463 q 505 395 455 395 q 605 462 566 395 q 648 479 617 479 q 714 467 677 479 q 786 430 751 454 q 844 372 821 406 q 867 298 867 339 q 845 223 867 263 q 730 87 795 139 q 592 13 665 36 q 450 -10 519 -10 m 452 1045 q 418 1057 432 1045 q 343 1145 386 1092 q 273 1250 301 1199 q 268 1267 268 1259 q 300 1310 268 1292 q 363 1329 332 1329 q 404 1308 395 1329 q 437 1224 418 1275 l 453 1181 q 501 1308 489 1279 q 543 1329 511 1329 q 605 1310 573 1329 q 637 1267 637 1292 q 633 1250 637 1259 q 486 1057 585 1164 q 452 1045 472 1045 z "},"č":{"ha":835,"x_min":27,"x_max":825,"o":"m 441 0 l 418 1 q 203 69 290 9 q 72 220 116 129 q 27 410 27 311 q 53 555 27 484 q 132 682 79 625 q 263 771 184 738 q 449 804 342 804 q 589 782 524 804 q 693 719 654 759 q 733 625 733 678 q 695 553 732 575 q 623 532 662 532 q 565 545 591 532 q 532 585 538 559 q 467 648 515 648 l 463 648 q 404 629 428 648 q 369 580 380 610 q 357 516 357 550 q 371 445 357 479 q 415 388 385 410 q 494 363 447 363 q 549 377 520 363 q 597 418 578 391 q 641 437 612 437 q 719 413 675 437 q 794 348 762 388 q 825 258 825 307 q 800 182 825 221 q 693 76 753 116 q 569 18 633 36 q 441 0 504 0 m 443 882 q 408 895 422 882 q 334 983 376 929 q 263 1087 292 1036 q 258 1104 258 1096 q 291 1147 258 1129 q 353 1166 323 1166 q 395 1145 385 1166 q 427 1061 409 1112 l 444 1019 q 492 1145 479 1116 q 533 1166 501 1166 q 596 1147 564 1166 q 628 1104 628 1129 q 623 1087 628 1096 q 477 895 575 1002 q 443 882 463 882 z "},"Ď":{"ha":882,"x_min":45,"x_max":848,"o":"m 389 357 q 416 369 400 357 q 477 448 456 401 q 498 548 498 496 q 472 656 498 603 q 394 745 447 709 q 377 752 384 752 q 362 727 362 752 l 362 405 q 368 373 362 389 q 389 357 374 357 m 342 -6 q 205 1 271 -6 q 96 21 138 7 q 53 58 53 35 l 53 60 q 68 403 68 233 q 45 886 68 620 l 45 891 q 293 970 45 970 l 342 969 q 620 892 507 966 q 790 704 732 819 q 848 465 848 589 q 793 238 848 346 q 626 64 739 131 q 342 -6 514 -3 m 403 1045 q 368 1057 382 1045 q 294 1145 336 1092 q 223 1250 252 1199 q 218 1267 218 1259 q 251 1310 218 1292 q 313 1329 283 1329 q 355 1308 345 1329 q 387 1224 369 1275 l 404 1181 q 452 1308 439 1279 q 493 1329 461 1329 q 556 1310 524 1329 q 588 1267 588 1292 q 583 1250 588 1259 q 437 1057 535 1164 q 403 1045 422 1045 z "},"ď":{"ha":1097,"x_min":28,"x_max":1063,"o":"m 674 -1 q 589 7 629 -1 q 559 9 577 9 q 467 5 521 9 q 386 0 418 0 q 225 30 293 0 q 114 110 157 60 q 50 222 71 159 q 28 352 28 286 q 50 486 28 420 q 111 604 71 551 q 210 688 152 657 q 344 720 269 720 q 527 673 426 720 q 513 878 522 779 l 512 885 q 534 933 512 914 q 592 961 557 951 q 667 970 628 970 q 748 960 709 970 q 812 933 787 951 q 837 890 837 915 l 837 886 q 821 469 821 680 q 842 60 821 267 l 842 58 q 818 26 842 39 q 755 6 793 13 q 674 -1 716 -1 m 509 250 q 533 259 527 250 q 541 288 540 267 q 543 412 543 351 l 543 510 q 539 541 543 530 q 525 551 536 551 q 490 541 513 551 q 419 474 444 519 q 395 380 395 428 q 419 296 395 332 q 490 252 442 259 q 509 250 501 250 m 1008 735 q 978 743 991 735 q 965 760 965 750 q 968 767 965 764 q 977 782 970 771 q 988 804 983 792 q 994 825 994 817 q 985 836 994 835 q 938 857 956 838 q 919 903 919 876 q 940 950 919 930 q 989 970 960 970 q 1034 956 1018 970 q 1056 918 1050 941 q 1063 869 1063 895 q 1048 764 1063 819 q 1032 742 1043 748 q 1008 735 1021 735 z "},"Đ":{"ha":882,"x_min":-148,"x_max":848,"o":"m 342 -6 q 96 22 180 -6 q 53 60 53 35 q 68 403 68 233 q 68 484 68 444 q -98 473 -14 481 q -136 496 -123 473 q -148 547 -148 519 q -133 603 -148 578 q -86 629 -118 629 l 63 629 q 45 886 56 758 l 45 891 q 293 970 45 970 l 342 969 q 620 892 507 966 q 790 704 732 819 q 848 465 848 589 q 793 238 848 346 q 626 64 739 131 q 342 -6 514 -3 m 389 357 q 416 369 400 357 q 477 448 456 401 q 498 548 498 496 q 472 656 498 603 q 394 745 447 709 q 377 752 384 752 q 362 727 362 752 l 362 629 l 394 629 q 441 603 426 629 q 456 548 456 578 q 444 496 456 519 q 405 473 431 473 l 362 477 l 362 405 q 368 373 362 389 q 389 357 374 357 z "},"đ":{"ha":895,"x_min":28,"x_max":933,"o":"m 509 250 q 533 259 527 250 q 541 288 540 267 q 543 510 543 351 q 539 541 543 530 q 525 551 536 551 q 490 541 513 551 q 419 474 444 519 q 395 380 395 428 q 419 296 395 332 q 509 250 448 250 m 674 -1 q 589 7 629 -1 q 559 9 577 9 q 467 5 521 9 q 386 0 418 0 q 225 30 293 0 q 114 110 157 60 q 50 222 71 159 q 28 352 28 286 q 50 486 28 420 q 111 604 71 551 q 210 688 152 657 q 344 720 269 720 q 527 673 426 720 q 522 756 525 715 q 380 746 451 753 q 341 769 353 746 q 329 821 329 792 q 344 876 329 850 q 391 902 359 902 l 514 902 q 534 933 519 920 q 667 970 578 970 q 748 960 709 970 q 812 933 787 951 q 836 902 831 920 l 871 902 q 918 876 903 902 q 933 821 933 850 q 921 769 933 792 q 882 746 908 746 l 828 751 q 821 469 821 611 q 842 60 821 267 q 818 26 842 39 q 674 -1 768 -1 z "},"Ē":{"ha":777,"x_min":45,"x_max":749,"o":"m 412 -2 q 334 -1 372 -2 l 268 0 l 216 -1 q 145 3 184 -1 q 80 19 107 7 q 53 56 53 31 l 53 60 q 68 403 68 233 q 45 886 68 616 l 45 890 q 123 953 45 932 q 248 969 184 969 l 521 970 q 619 959 580 970 q 677 918 658 947 q 696 830 696 888 q 687 765 696 795 q 659 715 678 734 q 609 696 640 696 q 559 709 587 696 q 410 753 517 730 q 382 757 391 757 q 365 745 368 757 q 362 697 362 733 q 368 634 362 645 q 404 624 374 624 q 502 637 458 624 l 510 638 q 535 615 528 638 q 543 564 543 593 q 534 500 543 530 q 509 470 525 470 l 505 471 q 401 484 459 484 q 368 476 373 484 q 362 419 362 468 q 366 370 362 385 q 388 355 370 355 q 440 363 408 355 q 501 384 473 372 q 540 406 530 395 q 610 446 576 446 q 681 405 649 446 q 730 302 712 363 q 749 178 749 240 l 748 155 q 691 52 741 86 q 566 8 642 18 q 412 -2 490 -2 m 568 1045 l 566 1045 q 397 1055 473 1055 q 228 1045 321 1055 l 225 1045 q 198 1063 208 1045 q 188 1105 188 1082 q 200 1149 188 1128 q 237 1169 212 1169 l 557 1169 q 594 1149 583 1169 q 606 1104 606 1128 q 596 1063 606 1082 q 568 1045 587 1045 z "},"ē":{"ha":838,"x_min":27,"x_max":830,"o":"m 500 595 q 518 604 518 595 l 518 606 q 496 636 516 626 q 450 646 475 646 q 401 636 423 646 q 375 605 378 625 q 393 595 375 595 l 500 595 m 439 0 q 258 35 335 0 q 130 128 182 70 q 53 260 79 186 q 27 410 27 333 q 53 555 27 484 q 129 683 78 627 q 258 773 180 740 q 441 807 336 807 q 665 733 585 807 q 717 660 701 700 q 734 583 734 621 q 703 492 734 528 q 625 458 675 458 l 389 458 q 359 444 360 458 q 380 388 359 413 q 432 346 401 362 q 492 330 463 330 q 549 345 519 330 q 596 390 578 361 q 655 416 612 416 q 732 398 691 416 q 801 347 772 379 q 830 271 830 314 q 808 201 830 239 q 637 47 737 94 q 439 0 538 0 m 608 882 l 606 882 q 437 892 513 892 q 268 882 361 892 l 265 882 q 238 901 248 882 q 228 942 228 919 q 240 986 228 966 q 277 1006 252 1006 l 597 1006 q 634 986 623 1006 q 646 941 646 966 q 636 901 646 919 q 608 882 627 882 z "},"Ĕ":{"ha":777,"x_min":45,"x_max":749,"o":"m 412 -2 q 334 -1 372 -2 l 268 0 l 216 -1 q 145 3 184 -1 q 80 19 107 7 q 53 56 53 31 l 53 60 q 68 403 68 233 q 45 886 68 616 l 45 890 q 123 953 45 932 q 248 969 184 969 l 521 970 q 619 959 580 970 q 677 918 658 947 q 696 830 696 888 q 687 765 696 795 q 659 715 678 734 q 609 696 640 696 q 559 709 587 696 q 410 753 517 730 q 382 757 391 757 q 365 745 368 757 q 362 697 362 733 q 368 634 362 645 q 404 624 374 624 q 502 637 458 624 l 510 638 q 535 615 528 638 q 543 564 543 593 q 534 500 543 530 q 509 470 525 470 l 505 471 q 401 484 459 484 q 368 476 373 484 q 362 419 362 468 q 366 370 362 385 q 388 355 370 355 q 440 363 408 355 q 501 384 473 372 q 540 406 530 395 q 610 446 576 446 q 681 405 649 446 q 730 302 712 363 q 749 178 749 240 l 748 155 q 691 52 741 86 q 566 8 642 18 q 412 -2 490 -2 m 397 1045 q 308 1060 350 1045 q 238 1105 265 1075 q 212 1180 212 1135 l 212 1195 q 234 1235 216 1223 q 271 1246 251 1246 q 304 1239 290 1246 q 318 1227 318 1233 l 318 1225 q 315 1206 315 1215 q 340 1160 315 1175 q 396 1144 366 1144 q 452 1160 427 1144 q 477 1206 477 1175 q 474 1225 477 1215 l 474 1227 q 489 1239 474 1233 q 522 1246 503 1246 q 559 1235 541 1246 q 581 1195 576 1223 l 581 1180 q 554 1105 581 1135 q 485 1060 528 1075 q 397 1045 443 1045 z "},"ĕ":{"ha":838,"x_min":27,"x_max":830,"o":"m 500 595 q 518 604 518 595 l 518 606 q 496 636 516 626 q 450 646 475 646 q 401 636 423 646 q 375 605 378 625 q 393 595 375 595 l 500 595 m 439 0 q 258 35 335 0 q 130 128 182 70 q 53 260 79 186 q 27 410 27 333 q 53 555 27 484 q 129 683 78 627 q 258 773 180 740 q 441 807 336 807 q 665 733 585 807 q 717 660 701 700 q 734 583 734 621 q 703 492 734 528 q 625 458 675 458 l 389 458 q 359 444 360 458 q 380 388 359 413 q 432 346 401 362 q 492 330 463 330 q 549 345 519 330 q 596 390 578 361 q 655 416 612 416 q 732 398 691 416 q 801 347 772 379 q 830 271 830 314 q 808 201 830 239 q 637 47 737 94 q 439 0 538 0 m 437 882 q 348 897 390 882 q 278 942 305 912 q 252 1017 252 972 l 252 1032 q 274 1072 256 1061 q 311 1083 291 1083 q 344 1077 330 1083 q 358 1064 358 1070 l 358 1063 q 355 1043 355 1053 q 380 997 355 1013 q 436 981 406 981 q 492 997 467 981 q 517 1043 517 1013 q 514 1063 517 1053 l 514 1064 q 529 1077 514 1070 q 562 1083 543 1083 q 599 1072 581 1083 q 621 1032 616 1061 l 621 1017 q 594 942 621 972 q 525 897 568 912 q 437 882 483 882 z "},"Ė":{"ha":777,"x_min":45,"x_max":749,"o":"m 412 -2 q 334 -1 372 -2 l 268 0 l 216 -1 q 145 3 184 -1 q 80 19 107 7 q 53 56 53 31 l 53 60 q 68 403 68 233 q 45 886 68 616 l 45 890 q 123 953 45 932 q 248 969 184 969 l 521 970 q 619 959 580 970 q 677 918 658 947 q 696 830 696 888 q 687 765 696 795 q 659 715 678 734 q 609 696 640 696 q 559 709 587 696 q 410 753 517 730 q 382 757 391 757 q 365 745 368 757 q 362 697 362 733 q 368 634 362 645 q 404 624 374 624 q 502 637 458 624 l 510 638 q 535 615 528 638 q 543 564 543 593 q 534 500 543 530 q 509 470 525 470 l 505 471 q 401 484 459 484 q 368 476 373 484 q 362 419 362 468 q 366 370 362 385 q 388 355 370 355 q 440 363 408 355 q 501 384 473 372 q 540 406 530 395 q 610 446 576 446 q 681 405 649 446 q 730 302 712 363 q 749 178 749 240 l 748 155 q 691 52 741 86 q 566 8 642 18 q 412 -2 490 -2 m 396 1045 q 331 1067 361 1045 q 301 1134 302 1089 q 315 1184 301 1164 q 351 1214 329 1204 q 397 1224 373 1224 q 461 1202 432 1224 q 492 1133 491 1179 q 478 1084 492 1103 q 442 1055 464 1065 q 396 1045 420 1045 z "},"ė":{"ha":838,"x_min":27,"x_max":830,"o":"m 500 595 q 518 604 518 595 l 518 606 q 496 636 516 626 q 450 646 475 646 q 401 636 423 646 q 375 605 378 625 q 393 595 375 595 l 500 595 m 439 0 q 258 35 335 0 q 130 128 182 70 q 53 260 79 186 q 27 410 27 333 q 53 555 27 484 q 129 683 78 627 q 258 773 180 740 q 441 807 336 807 q 665 733 585 807 q 717 660 701 700 q 734 583 734 621 q 703 492 734 528 q 625 458 675 458 l 389 458 q 359 444 360 458 q 380 388 359 413 q 432 346 401 362 q 492 330 463 330 q 549 345 519 330 q 596 390 578 361 q 655 416 612 416 q 732 398 691 416 q 801 347 772 379 q 830 271 830 314 q 808 201 830 239 q 637 47 737 94 q 439 0 538 0 m 436 882 q 371 904 401 882 q 341 971 342 926 q 355 1021 341 1001 q 391 1051 369 1041 q 437 1061 413 1061 q 502 1039 472 1061 q 532 970 531 1017 q 518 921 532 941 q 482 892 504 902 q 436 882 460 882 z "},"Ę":{"ha":777,"x_min":45,"x_max":749,"o":"m 599 -259 q 540 -245 568 -259 q 495 -204 513 -232 q 478 -132 478 -176 q 524 3 481 -55 q 412 -2 469 -2 q 334 -1 372 -2 l 268 0 l 216 -1 q 80 19 123 -1 q 53 60 53 31 q 68 403 68 233 q 45 886 68 616 q 123 953 45 932 q 248 969 184 969 l 521 970 q 619 959 580 970 q 677 918 658 947 q 696 830 696 888 q 687 765 696 795 q 659 715 678 734 q 609 696 640 696 q 559 709 587 696 q 410 753 517 730 q 382 757 391 757 q 365 745 368 757 q 362 692 362 733 q 368 634 362 645 q 404 624 374 624 q 502 637 458 624 l 510 638 q 535 615 528 638 q 543 564 543 593 q 534 500 543 530 q 509 470 525 470 l 505 471 q 401 484 459 484 q 368 476 373 484 q 362 420 362 468 q 366 370 362 385 q 388 355 370 355 q 440 363 408 355 q 501 384 473 372 q 540 406 530 395 q 610 446 576 446 q 681 405 649 446 q 730 302 712 363 q 749 178 749 240 l 748 155 q 692 52 741 86 q 628 22 664 33 q 594 -58 594 -33 q 629 -87 594 -87 q 672 -79 650 -87 q 705 -59 694 -70 q 720 -51 713 -51 q 740 -67 732 -51 q 749 -111 748 -84 q 726 -192 749 -159 q 669 -242 704 -225 q 599 -259 635 -259 z "},"ę":{"ha":838,"x_min":27,"x_max":830,"o":"m 500 595 q 518 604 518 595 q 497 635 518 625 q 450 646 475 646 q 401 636 423 646 q 375 605 378 625 q 393 595 375 595 l 500 595 m 458 -266 q 399 -252 427 -266 q 354 -211 372 -239 q 337 -138 337 -182 q 387 2 341 -59 q 258 35 316 9 q 130 128 182 70 q 53 260 79 186 q 27 410 27 333 q 53 555 27 484 q 129 683 78 627 q 258 773 180 740 q 441 807 336 807 q 574 787 519 807 q 718 661 681 746 q 734 583 734 621 q 703 492 734 528 q 625 458 675 458 l 389 458 q 359 444 360 458 q 380 388 359 413 q 432 346 401 362 q 492 330 463 330 q 549 345 519 330 q 596 390 578 361 q 655 416 612 416 q 732 398 691 416 q 801 347 772 379 q 830 271 830 314 q 808 201 830 239 q 479 2 690 22 q 453 -65 453 -43 q 488 -94 453 -94 q 530 -85 508 -94 q 564 -66 553 -77 q 579 -58 572 -58 q 598 -74 591 -58 q 608 -117 606 -91 q 585 -199 608 -166 q 528 -249 563 -232 q 458 -266 494 -266 z "},"Ě":{"ha":777,"x_min":45,"x_max":749,"o":"m 412 -2 q 334 -1 372 -2 l 268 0 l 216 -1 q 145 3 184 -1 q 80 19 107 7 q 53 56 53 31 l 53 60 q 68 403 68 233 q 45 886 68 616 l 45 890 q 123 953 45 932 q 248 969 184 969 l 521 970 q 619 959 580 970 q 677 918 658 947 q 696 830 696 888 q 687 765 696 795 q 659 715 678 734 q 609 696 640 696 q 559 709 587 696 q 410 753 517 730 q 382 757 391 757 q 365 745 368 757 q 362 697 362 733 q 368 634 362 645 q 404 624 374 624 q 502 637 458 624 l 510 638 q 535 615 528 638 q 543 564 543 593 q 534 500 543 530 q 509 470 525 470 l 505 471 q 401 484 459 484 q 368 476 373 484 q 362 419 362 468 q 366 370 362 385 q 388 355 370 355 q 440 363 408 355 q 501 384 473 372 q 540 406 530 395 q 610 446 576 446 q 681 405 649 446 q 730 302 712 363 q 749 178 749 240 l 748 155 q 691 52 741 86 q 566 8 642 18 q 412 -2 490 -2 m 396 1045 q 361 1057 376 1045 q 287 1145 330 1092 q 216 1250 245 1199 q 212 1267 212 1259 q 244 1310 212 1292 q 307 1329 276 1329 q 348 1308 338 1329 q 380 1224 362 1275 l 397 1181 q 445 1308 433 1279 q 486 1329 454 1329 q 549 1310 517 1329 q 581 1267 581 1292 q 576 1250 581 1259 q 430 1057 528 1164 q 396 1045 416 1045 z "},"ě":{"ha":838,"x_min":27,"x_max":830,"o":"m 500 595 q 518 604 518 595 l 518 606 q 496 636 516 626 q 450 646 475 646 q 401 636 423 646 q 375 605 378 625 q 393 595 375 595 l 500 595 m 439 0 q 258 35 335 0 q 130 128 182 70 q 53 260 79 186 q 27 410 27 333 q 53 555 27 484 q 129 683 78 627 q 258 773 180 740 q 441 807 336 807 q 665 733 585 807 q 717 660 701 700 q 734 583 734 621 q 703 492 734 528 q 625 458 675 458 l 389 458 q 359 444 360 458 q 380 388 359 413 q 432 346 401 362 q 492 330 463 330 q 549 345 519 330 q 596 390 578 361 q 655 416 612 416 q 732 398 691 416 q 801 347 772 379 q 830 271 830 314 q 808 201 830 239 q 637 47 737 94 q 439 0 538 0 m 436 882 q 401 895 416 882 q 327 983 370 929 q 256 1087 285 1036 q 252 1104 252 1096 q 284 1147 252 1129 q 347 1166 316 1166 q 388 1145 378 1166 q 420 1061 402 1112 l 437 1019 q 485 1145 473 1116 q 526 1166 494 1166 q 589 1147 557 1166 q 621 1104 621 1129 q 616 1087 621 1096 q 470 895 568 1002 q 436 882 456 882 z "},"Ĝ":{"ha":852,"x_min":17,"x_max":817,"o":"m 403 -7 q 239 35 311 -7 q 118 148 167 77 q 43 308 68 219 q 17 489 17 396 q 43 668 17 581 q 123 824 69 755 q 260 935 177 894 q 456 977 342 977 q 619 946 543 977 q 741 862 694 916 q 788 739 788 809 q 770 690 788 709 q 725 660 753 670 q 667 650 696 650 q 595 666 628 650 q 553 714 563 682 q 520 774 542 755 q 472 793 498 793 q 384 731 413 789 q 354 600 354 673 q 388 453 354 519 q 488 383 421 387 q 539 401 519 383 q 563 451 560 419 q 530 481 563 481 q 466 468 506 481 l 460 467 q 436 491 446 467 q 427 541 427 514 q 437 589 427 568 q 469 612 447 610 l 521 614 l 575 613 l 653 614 q 722 606 693 614 q 766 572 751 598 q 782 495 781 547 q 776 391 782 443 q 770 286 770 339 q 802 119 770 194 q 817 65 817 87 q 797 22 817 36 q 750 4 777 8 q 697 0 722 0 q 635 17 663 0 q 602 65 607 33 q 507 11 558 28 q 403 -7 456 -7 m 507 1045 q 466 1065 475 1045 q 436 1143 452 1097 l 417 1192 l 404 1155 q 369 1065 385 1101 q 327 1045 359 1045 q 264 1063 296 1045 q 233 1107 233 1081 q 237 1124 233 1115 q 308 1229 266 1175 q 382 1316 351 1282 q 416 1329 397 1329 q 450 1316 436 1329 q 525 1229 482 1282 q 597 1124 568 1175 q 602 1107 602 1115 q 570 1063 602 1082 q 507 1045 538 1045 z "},"ĝ":{"ha":861,"x_min":27,"x_max":808,"o":"m 441 -179 l 422 -179 q 249 -157 319 -179 q 137 -97 179 -134 q 76 -16 95 -60 q 58 73 58 28 q 92 190 58 139 q 173 240 126 240 q 220 224 196 240 q 276 203 239 212 q 354 195 313 195 q 421 204 389 195 q 474 235 454 213 q 495 295 495 257 q 492 326 495 312 q 479 339 490 339 q 460 330 473 339 q 280 266 372 266 q 108 336 180 266 q 27 529 31 410 q 58 663 27 600 q 149 767 90 726 q 292 807 208 807 q 473 761 372 807 q 542 798 498 786 q 634 810 586 810 q 718 801 678 810 q 783 775 758 792 q 808 734 808 758 l 808 730 q 791 294 791 520 q 793 168 791 217 l 794 119 q 764 -12 794 43 q 682 -104 733 -67 q 569 -159 631 -140 q 441 -179 506 -178 m 376 503 q 480 551 422 503 q 475 581 478 568 l 473 595 q 416 608 442 608 q 352 586 376 608 q 328 541 328 563 q 341 513 329 524 q 376 503 353 503 m 508 882 q 467 903 476 882 q 437 980 453 934 l 418 1029 l 404 992 q 370 903 385 939 q 328 882 359 882 q 265 900 297 882 q 233 944 233 918 q 238 961 233 952 q 309 1066 267 1013 q 383 1154 351 1120 q 417 1166 397 1166 q 451 1154 437 1166 q 526 1066 483 1120 q 598 961 569 1013 q 603 944 603 952 q 571 901 603 919 q 508 882 538 882 z "},"Ğ":{"ha":852,"x_min":17,"x_max":817,"o":"m 403 -7 q 239 35 311 -7 q 118 148 167 77 q 43 308 68 219 q 17 489 17 396 q 43 668 17 581 q 123 824 69 755 q 260 935 177 894 q 456 977 342 977 q 619 946 543 977 q 741 862 694 916 q 788 739 788 809 q 770 690 788 709 q 725 660 753 670 q 667 650 696 650 q 595 666 628 650 q 553 714 563 682 q 520 774 542 755 q 472 793 498 793 q 384 731 413 789 q 354 600 354 673 q 388 453 354 519 q 488 383 421 387 q 539 401 519 383 q 563 451 560 419 q 530 481 563 481 q 466 468 506 481 l 460 467 q 436 491 446 467 q 427 541 427 514 q 437 589 427 568 q 469 612 447 610 l 521 614 l 575 613 l 653 614 q 722 606 693 614 q 766 572 751 598 q 782 495 781 547 q 776 391 782 443 q 770 286 770 339 q 802 119 770 194 q 817 65 817 87 q 797 22 817 36 q 750 4 777 8 q 697 0 722 0 q 635 17 663 0 q 602 65 607 33 q 507 11 558 28 q 403 -7 456 -7 m 417 1045 q 328 1060 370 1045 q 259 1105 286 1075 q 232 1180 232 1135 l 233 1195 q 254 1235 237 1223 q 291 1246 271 1246 q 324 1239 310 1246 q 338 1227 338 1233 l 338 1225 q 336 1206 336 1215 q 361 1160 336 1175 q 416 1144 386 1144 q 472 1160 447 1144 q 497 1206 497 1175 q 494 1225 497 1215 l 494 1227 q 509 1239 494 1233 q 542 1246 524 1246 q 579 1235 562 1246 q 601 1195 597 1223 l 602 1180 q 575 1105 602 1135 q 506 1060 548 1075 q 417 1045 463 1045 z "},"ğ":{"ha":861,"x_min":27,"x_max":808,"o":"m 441 -179 l 422 -179 q 249 -157 319 -179 q 137 -97 179 -134 q 76 -16 95 -60 q 58 73 58 28 q 92 190 58 139 q 173 240 126 240 q 220 224 196 240 q 276 203 239 212 q 354 195 313 195 q 421 204 389 195 q 474 235 454 213 q 495 295 495 257 q 492 326 495 312 q 479 339 490 339 q 460 330 473 339 q 280 266 372 266 q 108 336 180 266 q 27 529 31 410 q 58 663 27 600 q 149 767 90 726 q 292 807 208 807 q 473 761 372 807 q 542 798 498 786 q 634 810 586 810 q 718 801 678 810 q 783 775 758 792 q 808 734 808 758 l 808 730 q 791 294 791 520 q 793 168 791 217 l 794 119 q 764 -12 794 43 q 682 -104 733 -67 q 569 -159 631 -140 q 441 -179 506 -178 m 376 503 q 480 551 422 503 q 475 581 478 568 l 473 595 q 416 608 442 608 q 352 586 376 608 q 328 541 328 563 q 341 513 329 524 q 376 503 353 503 m 418 882 q 329 897 371 882 q 259 942 286 912 q 233 1017 233 972 l 233 1032 q 255 1072 237 1061 q 292 1083 272 1083 q 325 1077 311 1083 q 339 1064 339 1070 l 339 1063 q 336 1043 336 1053 q 361 997 336 1013 q 417 981 387 981 q 473 997 448 981 q 498 1043 498 1013 q 495 1063 498 1053 l 495 1064 q 510 1077 495 1070 q 543 1083 524 1083 q 580 1072 562 1083 q 602 1032 597 1061 l 602 1017 q 575 942 602 972 q 506 897 549 912 q 418 882 464 882 z "},"Ġ":{"ha":852,"x_min":17,"x_max":817,"o":"m 403 -7 q 239 35 311 -7 q 118 148 167 77 q 43 308 68 219 q 17 489 17 396 q 43 668 17 581 q 123 824 69 755 q 260 935 177 894 q 456 977 342 977 q 619 946 543 977 q 741 862 694 916 q 788 739 788 809 q 770 690 788 709 q 725 660 753 670 q 667 650 696 650 q 595 666 628 650 q 553 714 563 682 q 520 774 542 755 q 472 793 498 793 q 384 731 413 789 q 354 600 354 673 q 388 453 354 519 q 488 383 421 387 q 539 401 519 383 q 563 451 560 419 q 530 481 563 481 q 466 468 506 481 l 460 467 q 436 491 446 467 q 427 541 427 514 q 437 589 427 568 q 469 612 447 610 l 521 614 l 575 613 l 653 614 q 722 606 693 614 q 766 572 751 598 q 782 495 781 547 q 776 391 782 443 q 770 286 770 339 q 802 119 770 194 q 817 65 817 87 q 797 22 817 36 q 750 4 777 8 q 697 0 722 0 q 635 17 663 0 q 602 65 607 33 q 507 11 558 28 q 403 -7 456 -7 m 416 1045 q 352 1067 381 1045 q 321 1134 322 1089 q 335 1184 321 1164 q 371 1214 349 1204 q 417 1224 393 1224 q 482 1202 452 1224 q 512 1133 511 1179 q 498 1084 512 1103 q 462 1055 484 1065 q 416 1045 440 1045 z "},"ġ":{"ha":861,"x_min":27,"x_max":808,"o":"m 441 -179 l 422 -179 q 249 -157 319 -179 q 137 -97 179 -134 q 76 -16 95 -60 q 58 73 58 28 q 92 190 58 139 q 173 240 126 240 q 220 224 196 240 q 276 203 239 212 q 354 195 313 195 q 421 204 389 195 q 474 235 454 213 q 495 295 495 257 q 492 326 495 312 q 479 339 490 339 q 460 330 473 339 q 280 266 372 266 q 108 336 180 266 q 27 529 31 410 q 58 663 27 600 q 149 767 90 726 q 292 807 208 807 q 473 761 372 807 q 542 798 498 786 q 634 810 586 810 q 718 801 678 810 q 783 775 758 792 q 808 734 808 758 l 808 730 q 791 294 791 520 q 793 168 791 217 l 794 119 q 764 -12 794 43 q 682 -104 733 -67 q 569 -159 631 -140 q 441 -179 506 -178 m 376 503 q 480 551 422 503 q 475 581 478 568 l 473 595 q 416 608 442 608 q 352 586 376 608 q 328 541 328 563 q 341 513 329 524 q 376 503 353 503 m 417 882 q 352 904 382 882 q 322 971 323 926 q 336 1021 322 1001 q 372 1051 350 1041 q 418 1061 394 1061 q 483 1039 453 1061 q 513 970 512 1017 q 499 921 513 941 q 463 892 485 902 q 417 882 441 882 z "},"Ģ":{"ha":852,"x_min":17,"x_max":817,"o":"m 403 -7 q 239 35 311 -7 q 118 148 167 77 q 43 308 68 219 q 17 489 17 396 q 43 668 17 581 q 123 824 69 755 q 260 935 177 894 q 456 977 342 977 q 619 946 543 977 q 741 862 694 916 q 788 739 788 809 q 770 690 788 709 q 725 660 753 670 q 667 650 696 650 q 595 666 628 650 q 553 714 563 682 q 520 774 542 755 q 472 793 498 793 q 384 731 413 789 q 354 600 354 673 q 388 453 354 519 q 488 383 421 387 q 539 401 519 383 q 563 451 560 419 q 530 481 563 481 q 466 468 506 481 l 460 467 q 436 491 446 467 q 427 541 427 514 q 437 589 427 568 q 469 612 447 610 l 521 614 l 575 613 l 653 614 q 722 606 693 614 q 766 572 751 598 q 782 495 781 547 q 776 391 782 443 q 770 286 770 339 q 802 119 770 194 q 817 65 817 87 q 797 22 817 36 q 750 4 777 8 q 697 0 722 0 q 635 17 663 0 q 602 65 607 33 q 507 11 558 28 q 403 -7 456 -7 m 434 -311 q 404 -303 418 -311 q 390 -285 390 -296 q 400 -265 390 -279 q 420 -218 420 -233 q 411 -206 420 -208 q 362 -184 381 -204 q 342 -136 342 -164 q 364 -87 342 -108 q 416 -67 385 -67 q 462 -82 446 -67 q 485 -121 478 -97 q 492 -173 492 -145 q 476 -281 492 -224 q 459 -304 471 -298 q 434 -311 448 -311 z "},"ģ":{"ha":861,"x_min":27,"x_max":808,"o":"m 441 -179 l 422 -179 q 249 -157 319 -179 q 137 -97 179 -134 q 76 -16 95 -60 q 58 73 58 28 q 92 190 58 139 q 173 240 126 240 q 220 224 196 240 q 276 203 239 212 q 354 195 313 195 q 421 204 389 195 q 474 235 454 213 q 495 295 495 257 q 492 326 495 312 q 479 339 490 339 q 460 330 473 339 q 280 266 372 266 q 108 336 180 266 q 27 529 31 410 q 58 663 27 600 q 149 767 90 726 q 292 807 208 807 q 473 761 372 807 q 542 798 498 786 q 634 810 586 810 q 718 801 678 810 q 783 775 758 792 q 808 734 808 758 l 808 730 q 791 294 791 520 q 793 168 791 217 l 794 119 q 764 -12 794 43 q 682 -104 733 -67 q 569 -159 631 -140 q 441 -179 506 -178 m 376 503 q 480 551 422 503 q 475 581 478 568 l 473 595 q 416 608 442 608 q 352 586 376 608 q 328 541 328 563 q 341 513 329 524 q 376 503 353 503 m 420 884 q 375 898 391 884 q 353 935 359 912 q 347 985 347 958 q 361 1089 347 1034 q 377 1112 366 1105 q 401 1118 389 1118 q 430 1111 417 1118 q 444 1093 444 1103 q 441 1085 444 1089 q 432 1072 439 1082 q 420 1049 426 1061 q 414 1027 414 1036 q 424 1017 414 1019 q 471 996 452 1015 q 490 950 490 977 q 469 903 490 922 q 420 884 448 884 z "},"Ĥ":{"ha":899,"x_min":45,"x_max":848,"o":"m 681 -1 q 599 6 638 -1 q 535 26 560 13 q 511 58 511 39 l 511 60 q 522 198 519 140 q 526 334 525 257 q 521 371 526 360 q 498 385 515 382 q 443 387 480 387 q 379 380 395 387 q 363 337 363 372 q 386 96 368 210 q 390 67 389 81 q 366 28 390 43 q 303 6 341 14 q 223 -1 264 -1 q 141 6 180 -1 q 78 26 102 13 q 53 58 53 39 l 53 60 q 68 403 68 233 q 45 886 68 620 l 45 890 q 70 933 45 916 q 134 960 95 951 q 214 970 172 970 q 289 961 254 970 q 348 932 325 951 q 370 884 370 913 l 370 878 q 357 622 359 761 q 369 593 357 602 q 399 583 380 585 q 444 581 418 581 q 490 583 474 581 q 514 594 507 585 q 522 626 522 604 l 522 632 q 507 850 516 745 q 503 890 503 886 q 528 933 503 916 q 591 960 553 951 q 671 970 630 970 q 747 961 711 970 q 805 932 783 951 q 828 884 828 913 l 828 878 q 815 562 815 726 q 847 73 815 326 l 848 67 q 823 28 848 43 q 761 6 799 14 q 681 -1 722 -1 m 536 1045 q 495 1065 505 1045 q 465 1143 481 1097 l 446 1192 l 433 1155 q 398 1065 414 1101 q 356 1045 388 1045 q 294 1063 326 1045 q 262 1107 262 1081 q 267 1124 262 1115 q 337 1229 295 1175 q 412 1316 380 1282 q 446 1329 426 1329 q 479 1316 465 1329 q 554 1229 511 1282 q 627 1124 597 1175 q 631 1107 631 1115 q 599 1063 631 1082 q 536 1045 567 1045 z "},"ĥ":{"ha":835,"x_min":34,"x_max":792,"o":"m 625 -1 q 544 6 583 -1 q 480 26 505 13 q 456 58 456 39 l 456 60 q 473 475 473 231 q 459 525 473 508 q 427 541 445 541 q 384 514 404 541 q 363 430 363 487 q 391 73 363 282 l 391 67 q 367 28 391 43 q 304 6 342 14 q 224 -1 266 -1 q 143 6 182 -1 q 79 26 104 13 q 54 58 54 39 l 54 60 q 73 427 73 245 q 52 886 73 633 l 52 890 q 76 933 52 915 q 140 960 101 951 q 220 970 178 970 q 296 961 260 970 q 354 932 332 951 q 376 884 376 913 l 376 878 q 363 668 367 776 q 453 758 401 728 q 557 787 505 787 q 664 755 614 787 q 746 657 715 722 q 778 494 778 592 q 776 450 778 473 q 773 367 773 411 q 779 203 773 286 q 791 73 785 121 l 792 67 q 768 28 792 43 q 705 6 743 14 q 625 -1 667 -1 m 309 1045 q 267 1065 277 1045 q 237 1143 254 1097 l 218 1192 l 205 1155 q 170 1065 186 1101 q 128 1045 160 1045 q 66 1063 98 1045 q 34 1107 34 1081 q 39 1124 34 1115 q 110 1229 67 1175 q 184 1316 152 1282 q 218 1329 198 1329 q 252 1316 237 1329 q 327 1229 283 1282 q 399 1124 370 1175 q 404 1107 404 1115 q 371 1063 404 1082 q 309 1045 339 1045 z "},"Ħ":{"ha":899,"x_min":-35,"x_max":882,"o":"m 681 -1 q 536 26 585 -1 q 511 60 511 39 q 526 334 524 187 q 521 371 526 360 q 498 385 515 382 q 443 387 480 387 q 379 380 395 387 q 363 337 363 372 q 386 96 368 210 q 390 67 389 81 q 366 28 390 43 q 303 6 341 14 q 223 -1 264 -1 q 78 26 127 -1 q 53 60 53 39 q 68 403 68 233 q 62 642 68 523 q 36 640 49 642 q -17 663 1 640 q -35 715 -35 686 q -25 754 -35 735 q 4 784 -16 772 q 52 797 24 795 q 45 886 50 842 l 45 890 q 70 933 45 916 q 134 960 95 951 q 214 970 172 970 q 348 932 303 970 q 370 878 370 913 q 364 797 367 838 l 511 797 l 503 890 q 591 960 503 939 q 671 970 630 970 q 806 932 761 970 q 828 878 828 913 q 822 793 825 836 q 841 785 832 789 q 882 715 882 761 q 863 664 882 687 q 816 640 846 642 q 815 562 815 602 q 848 67 815 323 q 823 28 848 43 q 761 6 799 14 q 681 -1 722 -1 m 445 581 q 490 583 474 581 q 514 594 507 585 q 522 629 522 604 l 521 652 l 423 653 l 358 652 l 357 622 q 369 593 357 602 q 399 583 380 585 q 445 581 418 581 z "},"ħ":{"ha":835,"x_min":-69,"x_max":792,"o":"m 625 -1 q 481 26 530 -1 q 456 60 456 39 q 473 475 473 235 q 459 525 473 508 q 427 541 445 541 q 384 514 404 541 q 363 430 363 487 q 371 252 363 342 q 391 67 376 187 q 367 28 391 43 q 304 6 342 14 q 224 -1 266 -1 q 79 26 129 -1 q 54 60 54 39 q 73 427 73 245 q 58 794 73 595 l -20 789 q -57 806 -45 789 q -69 843 -69 823 q -54 883 -69 865 q -7 902 -39 902 l 53 902 q 77 933 58 920 q 140 960 101 951 q 220 970 178 970 q 296 961 260 970 q 374 902 362 943 l 473 902 q 519 883 505 902 q 534 843 534 865 q 522 806 534 823 q 486 789 510 789 q 370 795 427 793 q 363 668 366 733 q 453 758 401 728 q 557 787 505 787 q 664 755 614 787 q 746 657 715 722 q 778 494 778 592 q 776 450 778 473 q 773 367 773 411 q 792 67 773 219 q 768 28 792 43 q 705 6 743 14 q 625 -1 667 -1 z "},"Ĩ":{"ha":443,"x_min":16,"x_max":418,"o":"m 220 -1 q 139 6 178 -1 q 76 26 100 13 q 51 58 51 39 l 51 60 q 68 429 68 245 q 48 886 68 661 l 48 890 q 73 933 48 915 q 136 960 98 951 q 217 970 175 970 q 292 961 256 970 q 350 932 328 951 q 372 884 372 913 l 372 878 q 357 542 357 718 q 387 73 357 315 l 388 67 q 363 28 388 43 q 301 6 339 14 q 220 -1 262 -1 m 75 1045 l 72 1045 q 30 1061 43 1046 q 16 1097 16 1076 q 32 1153 16 1124 q 73 1202 47 1181 q 130 1222 99 1222 q 169 1213 148 1222 q 210 1192 189 1204 q 250 1172 231 1181 q 285 1164 269 1164 q 326 1210 317 1164 q 354 1228 330 1228 q 368 1226 361 1228 q 407 1201 395 1219 q 418 1160 418 1183 q 405 1108 418 1135 q 369 1064 392 1082 q 315 1046 345 1046 q 287 1053 304 1046 q 249 1069 269 1060 q 199 1091 224 1081 q 155 1101 174 1101 q 121 1065 123 1101 q 106 1051 120 1057 q 75 1045 93 1045 z "},"ĩ":{"ha":421,"x_min":7,"x_max":410,"o":"m 214 -1 q 139 6 175 -1 q 80 26 103 13 q 57 58 57 39 l 57 60 q 69 323 69 193 q 54 669 69 496 l 54 673 q 77 716 54 699 q 136 743 100 734 q 211 753 172 753 q 281 744 248 753 q 335 715 314 734 q 356 667 356 696 l 356 661 q 347 440 347 551 q 370 73 347 258 l 370 67 q 347 28 370 43 q 289 6 325 14 q 214 -1 254 -1 m 66 882 l 63 882 q 21 898 34 884 q 7 935 7 913 q 23 990 7 961 q 64 1039 39 1019 q 121 1059 90 1059 q 160 1050 139 1059 q 201 1029 180 1041 q 241 1009 222 1018 q 276 1001 260 1001 q 317 1047 308 1001 q 345 1065 321 1065 q 359 1063 352 1065 q 398 1039 386 1057 q 410 998 410 1021 q 396 945 410 972 q 360 901 383 919 q 307 883 336 883 q 278 890 296 883 q 240 907 260 897 q 190 928 215 918 q 146 938 165 938 q 113 903 115 938 q 98 888 111 894 q 66 882 84 882 z "},"Ī":{"ha":443,"x_min":9,"x_max":427,"o":"m 220 -1 q 139 6 178 -1 q 76 26 100 13 q 51 58 51 39 l 51 60 q 68 429 68 245 q 48 886 68 661 l 48 890 q 73 933 48 915 q 136 960 98 951 q 217 970 175 970 q 292 961 256 970 q 350 932 328 951 q 372 884 372 913 l 372 878 q 357 542 357 718 q 387 73 357 315 l 388 67 q 363 28 388 43 q 301 6 339 14 q 220 -1 262 -1 m 389 1045 l 387 1045 q 218 1055 294 1055 q 49 1045 142 1055 l 46 1045 q 19 1063 28 1045 q 9 1105 9 1082 q 21 1149 9 1128 q 58 1169 33 1169 l 378 1169 q 415 1149 404 1169 q 427 1104 427 1128 q 417 1063 427 1082 q 389 1045 408 1045 z "},"ī":{"ha":421,"x_min":0,"x_max":418,"o":"m 214 -1 q 139 6 175 -1 q 80 26 103 13 q 57 58 57 39 l 57 60 q 69 323 69 193 q 54 669 69 496 l 54 673 q 77 716 54 699 q 136 743 100 734 q 211 753 172 753 q 281 744 248 753 q 335 715 314 734 q 356 667 356 696 l 356 661 q 347 440 347 551 q 370 73 347 258 l 370 67 q 347 28 370 43 q 289 6 325 14 q 214 -1 254 -1 m 380 882 l 378 882 q 209 892 286 892 q 40 882 133 892 l 37 882 q 10 901 20 882 q 0 942 0 919 q 12 986 0 966 q 49 1006 24 1006 l 369 1006 q 407 986 395 1006 q 418 941 418 966 q 409 901 418 919 q 380 882 399 882 z "},"Ĭ":{"ha":443,"x_min":33,"x_max":402,"o":"m 220 -1 q 139 6 178 -1 q 76 26 100 13 q 51 58 51 39 l 51 60 q 68 429 68 245 q 48 886 68 661 l 48 890 q 73 933 48 915 q 136 960 98 951 q 217 970 175 970 q 292 961 256 970 q 350 932 328 951 q 372 884 372 913 l 372 878 q 357 542 357 718 q 387 73 357 315 l 388 67 q 363 28 388 43 q 301 6 339 14 q 220 -1 262 -1 m 218 1045 q 129 1060 171 1045 q 59 1105 86 1075 q 33 1180 33 1135 l 33 1195 q 55 1235 37 1223 q 92 1246 72 1246 q 125 1239 111 1246 q 139 1227 139 1233 l 139 1225 q 136 1206 136 1215 q 161 1160 136 1175 q 217 1144 186 1144 q 273 1160 248 1144 q 298 1206 298 1175 q 295 1225 298 1215 l 295 1227 q 310 1239 295 1233 q 342 1246 324 1246 q 380 1235 362 1246 q 401 1195 397 1223 l 402 1180 q 375 1105 402 1135 q 306 1060 349 1075 q 218 1045 264 1045 z "},"ĭ":{"ha":421,"x_min":24,"x_max":393,"o":"m 214 -1 q 139 6 175 -1 q 80 26 103 13 q 57 58 57 39 l 57 60 q 69 323 69 193 q 54 669 69 496 l 54 673 q 77 716 54 699 q 136 743 100 734 q 211 753 172 753 q 281 744 248 753 q 335 715 314 734 q 356 667 356 696 l 356 661 q 347 440 347 551 q 370 73 347 258 l 370 67 q 347 28 370 43 q 289 6 325 14 q 214 -1 254 -1 m 209 882 q 120 897 162 882 q 51 942 77 912 q 24 1017 24 972 l 24 1032 q 46 1072 28 1061 q 83 1083 63 1083 q 116 1077 102 1083 q 130 1064 130 1070 l 130 1063 q 127 1043 127 1053 q 153 997 127 1013 q 208 981 178 981 q 264 997 239 981 q 289 1043 289 1013 q 286 1063 289 1053 l 286 1064 q 301 1077 286 1070 q 334 1083 315 1083 q 371 1072 353 1083 q 393 1032 389 1061 l 393 1017 q 367 942 393 972 q 297 897 340 912 q 209 882 255 882 z "},"Į":{"ha":443,"x_min":48,"x_max":433,"o":"m 283 -279 q 225 -266 252 -279 q 180 -224 197 -252 q 163 -152 163 -196 q 220 -1 167 -66 q 76 26 125 -1 q 51 60 51 39 q 68 429 68 245 q 48 886 68 661 q 136 960 48 939 q 217 970 175 970 q 292 961 256 970 q 350 932 328 951 q 372 884 372 913 l 372 878 q 357 542 357 718 q 388 67 357 312 q 318 10 388 28 q 279 -79 279 -51 q 313 -108 279 -108 q 356 -99 334 -108 q 389 -79 378 -90 q 405 -71 397 -71 q 425 -88 417 -71 q 433 -131 432 -104 q 411 -213 433 -180 q 354 -262 389 -245 q 283 -279 319 -279 z "},"į":{"ha":421,"x_min":43,"x_max":427,"o":"m 206 779 q 91 809 138 779 q 43 882 43 840 q 91 956 43 926 q 206 987 138 987 q 321 956 273 987 q 368 882 368 926 q 321 809 368 840 q 206 779 273 779 m 277 -279 q 218 -266 245 -279 q 173 -224 191 -252 q 156 -152 156 -196 q 214 -1 160 -65 q 80 26 127 -1 q 57 60 57 39 q 69 323 69 193 q 54 669 69 496 l 54 673 q 77 716 54 699 q 136 743 100 734 q 211 753 172 753 q 335 715 294 753 q 356 661 356 696 q 347 440 347 551 q 370 73 347 258 l 370 67 q 313 12 370 31 q 272 -79 272 -50 q 307 -108 272 -108 q 350 -99 328 -108 q 382 -79 372 -90 q 399 -71 391 -71 q 418 -88 410 -71 q 427 -131 426 -104 q 404 -213 427 -180 q 348 -262 382 -245 q 277 -279 313 -279 z "},"İ":{"ha":443,"x_min":48,"x_max":388,"o":"m 220 -1 q 139 6 178 -1 q 76 26 100 13 q 51 58 51 39 l 51 60 q 68 429 68 245 q 48 886 68 661 l 48 890 q 73 933 48 915 q 136 960 98 951 q 217 970 175 970 q 292 961 256 970 q 350 932 328 951 q 372 884 372 913 l 372 878 q 357 542 357 718 q 387 73 357 315 l 388 67 q 363 28 388 43 q 301 6 339 14 q 220 -1 262 -1 m 217 1045 q 152 1067 182 1045 q 122 1134 123 1089 q 136 1184 122 1164 q 172 1214 150 1204 q 218 1224 194 1224 q 282 1202 253 1224 q 313 1133 312 1179 q 299 1084 313 1103 q 263 1055 285 1065 q 217 1045 241 1045 z "},"ı":{"ha":421,"x_min":54,"x_max":370,"o":"m 214 -1 q 139 6 175 -1 q 80 26 103 13 q 57 58 57 39 l 57 60 q 69 323 69 193 q 54 669 69 496 l 54 673 q 77 716 54 699 q 136 743 100 734 q 211 753 172 753 q 281 744 248 753 q 335 715 314 734 q 356 667 356 696 l 356 661 q 347 440 347 551 q 370 73 347 258 l 370 67 q 347 28 370 43 q 289 6 325 14 q 214 -1 254 -1 z "},"Ĳ":{"ha":1213,"x_min":48,"x_max":1159,"o":"m 220 -1 q 139 6 178 -1 q 76 26 100 13 q 51 58 51 39 l 51 60 q 68 429 68 245 q 48 886 68 661 l 48 890 q 73 933 48 915 q 136 960 98 951 q 217 970 175 970 q 292 961 256 970 q 350 932 328 951 q 372 884 372 913 l 372 878 q 357 542 357 718 q 387 73 357 315 l 388 67 q 363 28 388 43 q 301 6 339 14 q 220 -1 262 -1 m 800 0 q 640 18 716 0 q 516 71 564 37 q 463 155 467 105 q 462 180 462 167 q 480 303 462 241 q 530 405 498 364 q 600 446 561 446 q 671 406 633 446 q 743 369 705 369 q 794 389 770 369 q 833 448 819 409 q 848 544 848 487 q 850 616 848 583 q 851 667 851 644 q 842 734 851 710 q 798 759 832 759 q 651 709 753 759 q 602 696 623 696 q 553 714 572 696 q 524 762 534 733 q 513 823 514 791 q 602 941 513 902 q 798 975 677 975 q 953 961 878 975 q 1077 924 1028 947 q 1125 874 1125 901 q 1131 558 1125 672 q 1158 246 1137 444 l 1159 225 q 1128 123 1159 165 q 1046 53 1097 80 q 930 13 994 26 q 800 0 867 0 z "},"ĳ":{"ha":1069,"x_min":43,"x_max":1016,"o":"m 206 779 q 91 809 138 779 q 43 882 43 840 q 91 956 43 926 q 206 987 138 987 q 321 956 273 987 q 368 882 368 926 q 321 809 368 840 q 206 779 273 779 m 214 -1 q 139 6 175 -1 q 80 26 103 13 q 57 58 57 39 l 57 60 q 69 323 69 193 q 54 669 69 496 l 54 673 q 77 716 54 699 q 136 743 100 734 q 211 753 172 753 q 281 744 248 753 q 335 715 314 734 q 356 667 356 696 l 356 661 q 347 440 347 551 q 370 73 347 258 l 370 67 q 347 28 370 43 q 289 6 325 14 q 214 -1 254 -1 m 602 -179 q 492 -149 534 -179 q 432 -70 451 -118 q 414 29 414 -22 q 429 124 414 79 q 471 198 444 170 q 532 227 497 227 q 583 216 549 227 q 634 204 616 204 q 671 223 656 204 q 686 297 686 242 q 676 551 685 484 q 667 606 672 583 q 661 648 661 637 q 684 702 661 681 q 746 733 708 724 q 827 743 785 743 q 917 732 873 743 q 988 701 960 722 q 1016 653 1016 681 l 1016 648 q 998 266 998 462 q 1000 172 998 212 l 1000 120 q 948 -47 1000 19 q 805 -146 895 -114 q 602 -179 714 -179 m 829 779 q 714 809 762 779 q 667 882 667 840 q 714 956 667 926 q 829 987 762 987 q 944 956 897 987 q 991 882 991 926 q 944 809 991 840 q 829 779 897 779 z "},"Ĵ":{"ha":770,"x_min":19,"x_max":716,"o":"m 357 0 q 197 18 273 0 q 73 71 121 37 q 20 155 24 105 q 19 180 19 167 q 37 303 19 241 q 87 405 56 364 q 157 446 118 446 q 228 406 191 446 q 300 369 262 369 q 351 389 327 369 q 391 448 376 409 q 406 544 406 487 q 407 616 406 583 q 408 667 408 644 q 399 734 408 710 q 355 759 389 759 q 208 709 311 759 q 159 696 180 696 q 110 714 130 696 q 81 762 91 733 q 71 823 71 791 q 159 941 71 902 q 355 975 235 975 q 510 961 435 975 q 634 924 585 947 q 682 874 682 901 q 688 558 682 672 q 715 246 694 444 l 716 225 q 685 123 716 165 q 603 53 654 80 q 488 13 551 26 q 357 0 424 0 m 452 1045 q 411 1065 420 1045 q 381 1143 397 1097 l 362 1192 l 349 1155 q 314 1065 330 1101 q 272 1045 304 1045 q 210 1063 241 1045 q 178 1107 178 1081 q 182 1124 178 1115 q 253 1229 211 1175 q 328 1316 296 1282 q 361 1329 342 1329 q 395 1316 381 1329 q 470 1229 427 1282 q 543 1124 513 1175 q 547 1107 547 1115 q 515 1063 547 1082 q 452 1045 483 1045 z "},"ĵ":{"ha":640,"x_min":-13,"x_max":589,"o":"m 175 -179 q 66 -149 107 -179 q 6 -70 24 -118 q -13 29 -13 -22 q 2 124 -13 79 q 44 198 18 170 q 105 227 71 227 q 156 216 123 227 q 208 204 190 204 q 244 223 230 204 q 259 297 259 242 q 250 551 258 484 q 240 606 245 583 q 234 648 234 637 q 258 702 234 681 q 320 733 281 724 q 400 743 358 743 q 490 732 447 743 q 562 701 534 722 q 589 653 589 681 l 589 648 q 572 266 572 462 q 573 172 572 212 l 574 120 q 521 -47 574 19 q 378 -146 469 -114 q 175 -179 288 -179 m 493 882 q 452 903 461 882 q 422 980 438 934 l 403 1029 l 389 992 q 355 903 370 939 q 313 882 345 882 q 250 900 282 882 q 218 944 218 918 q 223 961 218 952 q 294 1066 252 1013 q 368 1154 336 1120 q 402 1166 382 1166 q 436 1154 422 1166 q 511 1066 468 1120 q 583 961 554 1013 q 588 944 588 952 q 556 901 588 919 q 493 882 524 882 z "},"Ķ":{"ha":841,"x_min":48,"x_max":836,"o":"m 220 -1 q 139 6 178 -1 q 76 26 100 13 q 51 58 51 39 l 51 60 q 68 429 68 245 q 48 886 68 661 l 48 890 q 73 933 48 915 q 136 960 98 951 q 217 970 175 970 q 292 961 256 970 q 350 932 328 951 q 372 884 372 913 q 368 812 371 846 q 362 709 363 768 q 374 677 362 677 q 416 717 387 677 q 511 894 498 822 q 548 929 517 918 q 620 941 580 941 q 712 924 670 941 q 758 870 754 906 q 543 582 758 807 q 666 512 622 563 q 732 396 710 461 q 766 268 753 330 q 788 183 777 220 q 818 126 799 146 q 836 90 836 107 q 800 44 836 64 q 710 13 764 24 q 604 1 656 1 q 514 14 552 1 q 472 55 476 27 q 468 142 469 94 q 460 273 467 208 q 434 382 454 338 q 410 412 425 398 q 382 425 395 425 q 364 393 364 425 l 364 388 q 387 73 374 179 l 388 67 q 363 28 388 43 q 301 6 339 14 q 220 -1 262 -1 m 459 -311 q 429 -303 443 -311 q 415 -285 415 -296 q 425 -265 415 -279 q 446 -218 446 -233 q 436 -206 446 -208 q 387 -184 406 -204 q 368 -136 368 -164 q 389 -87 368 -108 q 441 -67 410 -67 q 487 -82 471 -67 q 510 -121 503 -97 q 517 -173 517 -145 q 501 -281 517 -224 q 485 -304 496 -298 q 459 -311 473 -311 z "},"ķ":{"ha":829,"x_min":52,"x_max":819,"o":"m 224 -1 q 143 6 182 -1 q 80 26 104 13 q 55 58 55 39 l 55 60 q 73 429 73 245 q 52 886 73 661 l 52 890 q 77 933 52 915 q 140 960 102 951 q 221 970 179 970 q 296 961 260 970 q 354 932 332 951 q 376 884 376 913 l 376 878 q 363 646 366 770 q 374 611 363 612 q 402 640 383 611 q 463 779 448 709 q 499 810 468 799 q 573 821 531 821 q 652 810 612 821 q 718 780 691 800 q 744 726 744 759 q 740 703 744 715 q 680 632 729 673 q 566 548 631 591 q 674 446 624 505 q 763 299 725 388 q 819 73 800 210 l 819 67 q 798 30 819 44 q 743 9 777 16 q 672 2 709 2 q 594 9 631 2 q 532 30 556 16 q 508 63 508 44 l 509 75 q 510 108 510 87 q 501 207 510 150 q 467 322 492 263 q 396 431 442 381 q 364 406 378 417 q 391 73 370 241 l 392 67 q 368 28 392 43 q 305 6 343 14 q 224 -1 267 -1 m 452 -311 q 422 -303 436 -311 q 408 -285 408 -296 q 418 -265 408 -279 q 439 -218 439 -233 q 429 -206 439 -208 q 380 -184 399 -204 q 361 -136 361 -164 q 382 -87 361 -108 q 434 -67 404 -67 q 480 -82 464 -67 q 503 -121 496 -97 q 510 -173 510 -145 q 494 -281 510 -224 q 478 -304 490 -298 q 452 -311 466 -311 z "},"ĸ":{"ha":829,"x_min":52,"x_max":819,"o":"m 224 -1 q 143 6 182 -1 q 80 26 104 13 q 55 58 55 39 l 55 60 q 73 429 73 245 q 52 886 73 661 l 52 890 q 77 933 52 915 q 140 960 102 951 q 221 970 179 970 q 296 961 260 970 q 354 932 332 951 q 376 884 376 913 l 376 878 q 363 646 366 770 q 374 611 363 612 q 402 640 383 611 q 463 779 448 709 q 499 810 468 799 q 573 821 531 821 q 652 810 612 821 q 718 780 691 800 q 744 726 744 759 q 740 703 744 715 q 680 632 729 673 q 566 548 631 591 q 674 446 624 505 q 763 299 725 388 q 819 73 800 210 l 819 67 q 798 30 819 44 q 743 9 777 16 q 672 2 709 2 q 594 9 631 2 q 532 30 556 16 q 508 63 508 44 l 509 75 q 510 108 510 87 q 501 207 510 150 q 467 322 492 263 q 396 431 442 381 q 364 406 378 417 q 391 73 370 241 l 392 67 q 368 28 392 43 q 305 6 343 14 q 224 -1 267 -1 z "},"Ĺ":{"ha":795,"x_min":48,"x_max":773,"o":"m 252 -1 q 159 5 205 -1 q 82 24 113 11 q 51 58 51 37 l 51 60 q 68 429 68 245 q 48 886 68 661 l 48 890 q 73 933 48 915 q 136 960 98 951 q 217 970 175 970 q 292 961 256 970 q 350 932 328 951 q 372 884 372 913 l 372 878 q 357 536 357 715 q 359 421 357 479 q 425 349 363 349 q 483 360 452 349 q 535 385 513 372 q 564 406 557 399 q 635 446 602 446 q 705 405 674 446 q 755 303 736 364 q 773 180 773 241 q 772 155 773 167 q 740 71 768 102 q 665 25 711 40 q 564 6 620 10 q 452 1 509 1 l 364 2 q 305 1 332 2 q 252 -1 279 -1 m 184 1045 q 145 1066 161 1045 q 130 1102 130 1087 q 132 1112 130 1108 q 215 1225 176 1166 q 260 1288 239 1260 q 290 1301 271 1301 q 353 1276 319 1301 q 386 1223 386 1251 q 290 1114 386 1198 q 201 1050 242 1073 q 184 1045 193 1045 z "},"ĺ":{"ha":440,"x_min":52,"x_max":391,"o":"m 224 -1 q 143 6 182 -1 q 79 26 104 13 q 54 58 54 39 l 54 60 q 73 427 73 245 q 52 886 73 633 l 52 890 q 76 933 52 915 q 140 960 101 951 q 220 970 178 970 q 296 961 260 970 q 354 932 332 951 q 376 884 376 913 l 376 878 q 361 541 361 716 q 391 73 361 314 l 391 67 q 367 28 391 43 q 304 6 342 14 q 224 -1 266 -1 m 187 1045 q 149 1066 165 1045 q 133 1102 133 1087 q 136 1112 133 1108 q 218 1225 179 1166 q 263 1288 243 1260 q 293 1301 275 1301 q 356 1276 323 1301 q 389 1223 389 1251 q 294 1114 389 1198 q 205 1050 245 1073 q 187 1045 196 1045 z "},"Ļ":{"ha":795,"x_min":48,"x_max":773,"o":"m 252 -1 q 159 5 205 -1 q 82 24 113 11 q 51 58 51 37 l 51 60 q 68 429 68 245 q 48 886 68 661 l 48 890 q 73 933 48 915 q 136 960 98 951 q 217 970 175 970 q 292 961 256 970 q 350 932 328 951 q 372 884 372 913 l 372 878 q 357 536 357 715 q 359 421 357 479 q 425 349 363 349 q 483 360 452 349 q 535 385 513 372 q 564 406 557 399 q 635 446 602 446 q 705 405 674 446 q 755 303 736 364 q 773 180 773 241 q 772 155 773 167 q 740 71 768 102 q 665 25 711 40 q 564 6 620 10 q 452 1 509 1 l 364 2 q 305 1 332 2 q 252 -1 279 -1 m 428 -311 q 398 -303 412 -311 q 384 -285 384 -296 q 394 -265 384 -279 q 414 -218 414 -233 q 405 -206 414 -208 q 356 -184 375 -204 q 336 -136 336 -164 q 358 -87 336 -108 q 410 -67 379 -67 q 456 -82 439 -67 q 479 -121 472 -97 q 486 -173 486 -145 q 470 -281 486 -224 q 453 -304 465 -298 q 428 -311 441 -311 z "},"ļ":{"ha":440,"x_min":52,"x_max":391,"o":"m 224 -1 q 143 6 182 -1 q 79 26 104 13 q 54 58 54 39 l 54 60 q 73 427 73 245 q 52 886 73 633 l 52 890 q 76 933 52 915 q 140 960 101 951 q 220 970 178 970 q 296 961 260 970 q 354 932 332 951 q 376 884 376 913 l 376 878 q 361 541 361 716 q 391 73 361 314 l 391 67 q 367 28 391 43 q 304 6 342 14 q 224 -1 266 -1 m 239 -311 q 209 -303 223 -311 q 195 -285 195 -296 q 205 -265 195 -279 q 226 -218 226 -233 q 216 -206 226 -208 q 167 -184 186 -204 q 148 -136 148 -164 q 169 -87 148 -108 q 221 -67 191 -67 q 267 -82 251 -67 q 290 -121 283 -97 q 297 -173 297 -145 q 281 -281 297 -224 q 265 -304 277 -298 q 239 -311 253 -311 z "},"Ľ":{"ha":795,"x_min":48,"x_max":773,"o":"m 252 -1 q 159 5 205 -1 q 82 24 113 11 q 51 58 51 37 l 51 60 q 68 429 68 245 q 48 886 68 661 l 48 890 q 73 933 48 915 q 136 960 98 951 q 217 970 175 970 q 292 961 256 970 q 350 932 328 951 q 372 884 372 913 l 372 878 q 357 536 357 715 q 359 421 357 479 q 425 349 363 349 q 483 360 452 349 q 535 385 513 372 q 564 406 557 399 q 635 446 602 446 q 705 405 674 446 q 755 303 736 364 q 773 180 773 241 q 772 155 773 167 q 740 71 768 102 q 665 25 711 40 q 564 6 620 10 q 452 1 509 1 l 364 2 q 305 1 332 2 q 252 -1 279 -1 m 661 735 q 632 743 645 735 q 618 760 618 750 q 621 767 618 764 q 630 782 624 771 q 642 804 636 792 q 648 825 648 817 q 638 836 648 835 q 591 857 610 838 q 572 903 572 876 q 593 950 572 930 q 643 970 614 970 q 687 956 671 970 q 710 918 703 941 q 716 869 716 895 q 701 764 716 819 q 685 742 696 748 q 661 735 674 735 z "}}}
